<svg width="201" height="156" viewBox="0 0 201 156" fill="none" xmlns="http://www.w3.org/2000/svg">
<path d="M184.785 141.334C194.928 130.915 200.769 115.104 200.95 98.455C201.064 87.9615 200.477 74.7758 197.722 63.4951C188.642 26.2838 162.986 6.12339 144.217 1.79375C125.448 -2.53589 106.12 5.38342 91.5476 17.9315C76.9748 30.4796 78.3795 28.3345 53.448 23.6703C28.5165 19.006 8.07274 32.6483 1.35036 57.7563C-5.37202 82.8643 15.0748 97.0971 17.3156 110.247C19.5564 123.398 15.625 146.719 54.5761 152.457C93.5272 158.196 105.294 130.219 124.609 138.111C140.163 144.459 163.333 163.352 184.785 141.334Z" fill="#E7E8EA"/>
<path d="M15.3407 154.007H190.777" stroke="#263238" stroke-width="0.393351" stroke-linecap="round" stroke-linejoin="round"/>
<path d="M100.187 22.7455C100.186 21.4656 100.438 20.1982 100.927 19.0157C101.416 17.8331 102.134 16.7585 103.039 15.8534C103.944 14.9482 105.018 14.2302 106.2 13.7403C107.383 13.2504 108.65 12.9982 109.93 12.9982H162.297C163.577 12.9977 164.845 13.2495 166.027 13.7391C167.21 14.2288 168.285 14.9468 169.19 15.852C170.095 16.7572 170.813 17.8319 171.303 19.0148C171.793 20.1976 172.044 21.4653 172.044 22.7455V144.259C172.044 145.54 171.793 146.807 171.303 147.99C170.813 149.173 170.095 150.248 169.19 151.153C168.285 152.058 167.21 152.776 166.027 153.266C164.845 153.755 163.577 154.007 162.297 154.007H109.93C108.65 154.007 107.383 153.755 106.2 153.265C105.018 152.775 103.944 152.057 103.039 151.152C102.134 150.246 101.416 149.172 100.927 147.989C100.438 146.807 100.186 145.539 100.187 144.259V22.7455ZM105.575 137.297C105.575 142.682 107.613 147.044 112.994 147.044H159.221C160.502 147.046 161.771 146.796 162.956 146.307C164.14 145.818 165.216 145.1 166.123 144.195C167.03 143.29 167.749 142.215 168.24 141.031C168.731 139.847 168.984 138.579 168.984 137.297V24.9876C168.983 22.4028 167.955 19.9241 166.128 18.0964C164.3 16.2686 161.821 15.2414 159.236 15.2403H139.876V15.3111C139.301 17.3723 137.984 18.7058 136.528 18.7058H135.686C134.231 18.7058 132.913 17.3723 132.339 15.3111L132.319 15.2403H112.994C107.621 15.2246 105.575 19.5908 105.575 24.9876V137.297Z" fill="#707070" stroke="#263238" stroke-width="0.393351" stroke-linecap="round" stroke-linejoin="round"/>
<path d="M163.642 15.2247H144.317V15.2955C143.746 17.3567 142.428 18.6902 140.969 18.6902H140.112C138.652 18.6902 137.335 17.3567 136.764 15.2955L136.745 15.2247H117.419C116.138 15.2247 114.869 15.4774 113.685 15.9682C112.502 16.459 111.427 17.1784 110.521 18.0852C109.616 18.992 108.898 20.0684 108.409 21.2528C107.92 22.4372 107.67 23.7064 107.672 24.9877V142.812C107.672 144.296 108.261 145.718 109.31 146.767C110.359 147.816 111.782 148.406 113.265 148.406H167.804C169.287 148.406 170.71 147.816 171.759 146.767C172.808 145.718 173.397 144.296 173.397 142.812V24.9877C173.399 23.7057 173.148 22.4359 172.659 21.251C172.169 20.066 171.451 18.9893 170.545 18.0824C169.639 17.1755 168.563 16.4563 167.378 15.9659C166.194 15.4756 164.924 15.2237 163.642 15.2247Z" fill="white" stroke="#263238" stroke-width="0.393351" stroke-linecap="round" stroke-linejoin="round"/>
<path d="M150.102 78.2382C149.965 78.3183 146.694 80.0096 146.694 83.7595C146.849 88.0359 150.821 89.5357 150.889 89.5357C150.821 89.6158 150.29 91.5787 148.715 93.6363C147.465 95.4087 146.078 97.1957 143.972 97.1957C141.968 97.1957 141.249 96.0144 138.937 96.0144C136.454 96.0144 135.751 97.1957 133.85 97.1957C131.744 97.1957 130.254 95.3129 128.936 93.5572C127.224 91.2592 125.769 87.6529 125.717 84.1903C125.683 82.3555 126.06 80.5518 127.018 79.0198C128.371 76.8811 130.786 75.4292 133.423 75.3813C135.443 75.3178 137.241 76.6739 138.474 76.6739C139.656 76.6739 141.865 75.3813 144.365 75.3813C145.444 75.3824 148.321 75.6852 150.102 78.2382ZM138.303 75.015C137.944 73.3393 138.937 71.6637 139.861 70.5949C141.043 69.3022 142.909 68.4249 144.519 68.4249C144.622 70.1005 143.97 71.7439 142.807 72.9407C141.762 74.2334 139.964 75.2065 138.303 75.015Z" fill="#E7E8EA"/>
<path d="M173.389 28.921V24.9875C173.389 22.4024 172.362 19.9232 170.534 18.0952C168.706 16.2672 166.227 15.2403 163.642 15.2403H144.317V15.3111C143.746 17.3723 142.429 18.7057 140.969 18.7057H140.112C138.652 18.7057 137.335 17.3723 136.764 15.3111L136.745 15.2403H117.419C114.834 15.2403 112.355 16.2672 110.527 18.0952C108.699 19.9232 107.672 22.4024 107.672 24.9875V28.921H173.389Z" fill="#C6DC08" stroke="#263238" stroke-width="0.393351" stroke-linecap="round" stroke-linejoin="round"/>
<path d="M107.672 140.24V142.812C107.672 144.296 108.261 145.718 109.31 146.767C110.359 147.816 111.782 148.406 113.265 148.406H167.804C169.287 148.406 170.71 147.816 171.759 146.767C172.808 145.718 173.397 144.296 173.397 142.812V140.24H107.672Z" fill="#C6DC08" stroke="#263238" stroke-width="0.393351" stroke-linecap="round" stroke-linejoin="round"/>
<path d="M176.457 22.7455C176.458 21.4653 176.206 20.1976 175.716 19.0148C175.227 17.8319 174.509 16.7572 173.604 15.852C172.698 14.9468 171.624 14.2288 170.441 13.7391C169.258 13.2495 167.99 12.9977 166.71 12.9982H114.355C111.77 12.9982 109.291 14.0252 107.463 15.8531C105.635 17.6811 104.608 20.1603 104.608 22.7455V144.259C104.608 146.845 105.635 149.324 107.463 151.152C109.291 152.98 111.77 154.007 114.355 154.007H166.706C167.987 154.008 169.255 153.756 170.438 153.267C171.621 152.778 172.697 152.06 173.602 151.154C174.508 150.249 175.226 149.174 175.716 147.991C176.206 146.808 176.458 145.54 176.457 144.259V22.7455ZM173.389 137.297C173.39 138.577 173.138 139.845 172.648 141.028C172.159 142.211 171.441 143.285 170.535 144.191C169.63 145.096 168.555 145.814 167.373 146.303C166.19 146.793 164.922 147.045 163.642 147.044H117.419C116.139 147.045 114.871 146.793 113.689 146.303C112.506 145.814 111.431 145.096 110.526 144.191C109.621 143.285 108.903 142.211 108.413 141.028C107.923 139.845 107.671 138.577 107.672 137.297V24.9876C107.672 22.4024 108.699 19.9232 110.527 18.0952C112.355 16.2673 114.834 15.2403 117.419 15.2403H136.729L136.748 15.3111C137.319 17.3723 138.637 18.7058 140.096 18.7058H140.934C142.393 18.7058 143.711 17.3723 144.281 15.3111V15.2403H163.607C164.89 15.2357 166.161 15.4844 167.347 15.9721C168.534 16.4599 169.613 17.1771 170.522 18.0827C171.431 18.9883 172.152 20.0644 172.644 21.2493C173.136 22.4342 173.389 23.7046 173.389 24.9876V137.297Z" fill="#707070" stroke="#263238" stroke-width="0.393351" stroke-linecap="round" stroke-linejoin="round"/>
<path d="M164.999 14.3397H116.062C113.324 14.3397 110.697 15.4276 108.761 17.364C106.825 19.3004 105.737 21.9267 105.737 24.6652V142.34C105.737 143.696 106.004 145.039 106.523 146.291C107.042 147.544 107.802 148.682 108.761 149.641C109.72 150.6 110.858 151.361 112.111 151.88C113.364 152.398 114.706 152.666 116.062 152.666H164.999C166.355 152.666 167.698 152.398 168.95 151.88C170.203 151.361 171.341 150.6 172.3 149.641C173.259 148.682 174.02 147.544 174.538 146.291C175.057 145.039 175.324 143.696 175.324 142.34V24.6652C175.324 21.9267 174.237 19.3004 172.3 17.364C170.364 15.4276 167.737 14.3397 164.999 14.3397ZM173.389 137.297C173.39 138.577 173.138 139.845 172.648 141.028C172.159 142.211 171.441 143.286 170.535 144.191C169.63 145.096 168.555 145.814 167.373 146.304C166.19 146.793 164.922 147.045 163.642 147.045H117.419C116.139 147.045 114.871 146.793 113.688 146.304C112.506 145.814 111.431 145.096 110.526 144.191C109.62 143.286 108.903 142.211 108.413 141.028C107.923 139.845 107.671 138.577 107.672 137.297V24.9877C107.672 22.4026 108.699 19.9234 110.527 18.0954C112.355 16.2674 114.834 15.2405 117.419 15.2405H136.729L136.748 15.3113C137.319 17.3725 138.637 18.7059 140.096 18.7059H140.934C142.393 18.7059 143.711 17.3725 144.281 15.3113V15.2405H163.607C164.89 15.2358 166.161 15.4845 167.347 15.9723C168.534 16.46 169.613 17.1773 170.522 18.0828C171.431 18.9884 172.152 20.0645 172.644 21.2494C173.136 22.4343 173.389 23.7047 173.389 24.9877V137.297Z" fill="#263238" stroke="#263238" stroke-width="0.393351" stroke-linecap="round" stroke-linejoin="round"/>
<path d="M141.244 15.6929C141.244 15.5114 141.191 15.3341 141.09 15.1833C140.989 15.0325 140.845 14.915 140.678 14.8458C140.51 14.7765 140.326 14.7586 140.148 14.7943C139.97 14.83 139.807 14.9176 139.679 15.0462C139.55 15.1748 139.464 15.3384 139.429 15.5165C139.394 15.6945 139.412 15.8789 139.482 16.0463C139.552 16.2137 139.67 16.3566 139.822 16.4568C139.973 16.5571 140.15 16.6102 140.332 16.6094C140.452 16.6094 140.571 16.5856 140.682 16.5395C140.793 16.4934 140.894 16.4259 140.979 16.3407C141.063 16.2555 141.131 16.1545 141.176 16.0433C141.222 15.9321 141.245 15.813 141.244 15.6929Z" fill="#707070"/>
<path d="M113.521 19.1977C113.521 20.126 112.479 20.4564 112.475 21.1644V21.2116H113.486V21.5224H112.137V21.2628C112.137 20.2715 113.179 20.0827 113.179 19.2134C113.179 18.8948 113.073 18.7296 112.817 18.7296C112.561 18.7296 112.459 18.9105 112.459 19.182V19.4534H112.137V19.2016C112.137 18.7335 112.353 18.4149 112.829 18.4149C113.305 18.4149 113.521 18.7296 113.521 19.1977Z" fill="#263238"/>
<path d="M115.193 19.1936V19.2722C115.209 19.4042 115.181 19.5376 115.113 19.6521C115.046 19.7665 114.942 19.8556 114.819 19.9055C114.943 19.9562 115.046 20.046 115.113 20.1611C115.181 20.2762 115.209 20.4103 115.193 20.5428V20.7788C115.193 21.2469 114.973 21.5655 114.501 21.5655C114.029 21.5655 113.812 21.2587 113.812 20.7788V20.5664H114.131V20.7984C114.131 21.0777 114.245 21.2429 114.493 21.2429C114.74 21.2429 114.851 21.0816 114.851 20.7709V20.531C114.851 20.2281 114.725 20.0865 114.457 20.0747H114.272V19.7679H114.473C114.526 19.7684 114.579 19.7574 114.627 19.7357C114.676 19.714 114.719 19.6821 114.754 19.6422C114.789 19.6022 114.816 19.5552 114.831 19.5042C114.846 19.4533 114.85 19.3996 114.843 19.347V19.2093C114.843 18.8907 114.733 18.7294 114.485 18.7294C114.237 18.7294 114.123 18.9025 114.123 19.1778V19.3352H113.804V19.1936C113.804 18.7255 114.021 18.4069 114.493 18.4069C114.965 18.4069 115.193 18.7255 115.193 19.1936Z" fill="#263238"/>
<path d="M115.858 19.4258V19.8742H115.527V19.4258H115.858ZM115.858 21.0975V21.5223H115.527V21.0975H115.858Z" fill="#263238"/>
<path d="M116.55 19.7049C116.594 19.6234 116.66 19.556 116.741 19.5107C116.822 19.4654 116.914 19.4441 117.006 19.4492C117.4 19.4492 117.577 19.7403 117.577 20.1769V20.7787C117.577 21.2468 117.352 21.5654 116.884 21.5654C116.416 21.5654 116.192 21.2586 116.192 20.7787V20.5703H116.515V20.7984C116.515 21.0777 116.629 21.2429 116.872 21.2429C117.116 21.2429 117.234 21.0777 117.234 20.7984V20.2045C117.234 19.9291 117.12 19.76 116.872 19.76C116.828 19.7578 116.783 19.7648 116.741 19.7805C116.699 19.7961 116.661 19.8201 116.629 19.851C116.596 19.8819 116.57 19.919 116.553 19.9602C116.535 20.0013 116.526 20.0456 116.526 20.0904V20.1612H116.208L116.29 18.454H117.502V18.7609H116.597L116.55 19.7049Z" fill="#263238"/>
<path d="M119.284 19.1895V19.2485H118.961V19.1699C118.961 18.8906 118.847 18.7293 118.599 18.7293C118.351 18.7293 118.206 18.8945 118.206 19.2249V19.9133C118.242 19.8127 118.31 19.7265 118.399 19.6677C118.489 19.6088 118.595 19.5805 118.702 19.5868C119.095 19.5868 119.272 19.87 119.272 20.3145V20.7787C119.272 21.2468 119.04 21.5654 118.572 21.5654C118.104 21.5654 117.864 21.2586 117.864 20.7787V19.2053C117.864 18.7175 118.084 18.4186 118.572 18.4186C119.06 18.4186 119.284 18.7215 119.284 19.1895ZM118.241 20.3381V20.7984C118.241 21.0776 118.355 21.2428 118.607 21.2428C118.859 21.2428 118.969 21.0776 118.969 20.7984V20.3381C118.969 20.0628 118.851 19.8976 118.607 19.8976C118.363 19.8976 118.241 20.0628 118.241 20.3381Z" fill="#263238"/>
<path d="M152.805 19.3233H151.94V21.4907H152.805V19.3233Z" fill="#263238"/>
<path d="M153.962 18.8908H153.096V21.4909H153.962V18.8908Z" fill="#263238"/>
<path d="M155.118 18.584H154.253V21.4948H155.118V18.584Z" fill="#263238"/>
<path d="M156.274 18.045H155.409V21.4907H156.274V18.045Z" fill="#263238"/>
<path d="M167.017 21.4474H161.805V18.2534H167.017V21.4474ZM162.104 21.1603H166.73V18.5445H162.092L162.104 21.1603Z" fill="#263238"/>
<path d="M165.274 18.8592H162.529V20.8299H165.274V18.8592Z" fill="#263238"/>
<path d="M167.481 19.4691H166.828V20.2164H167.481V19.4691Z" fill="#263238"/>
<path d="M159.897 20.7435C159.863 20.7423 159.829 20.7329 159.799 20.716C158.737 20.0866 158.041 20.6688 158.009 20.6924C157.992 20.7106 157.97 20.725 157.947 20.7349C157.924 20.7448 157.899 20.7499 157.873 20.7499C157.848 20.7499 157.823 20.7448 157.8 20.7349C157.776 20.725 157.755 20.7106 157.738 20.6924C157.702 20.6563 157.682 20.6075 157.682 20.5567C157.682 20.5058 157.702 20.4571 157.738 20.421C157.777 20.3895 158.67 19.6343 159.98 20.421C160.015 20.4436 160.042 20.4768 160.057 20.5158C160.072 20.5548 160.074 20.5976 160.063 20.6379C160.052 20.6782 160.029 20.714 159.996 20.7401C159.963 20.7661 159.923 20.7811 159.881 20.7828L159.897 20.7435Z" fill="#263238"/>
<path d="M160.287 20.0904C160.252 20.0886 160.219 20.0792 160.188 20.0629C158.658 19.1503 157.628 20.0314 157.62 20.0393C157.583 20.0753 157.533 20.0955 157.482 20.0955C157.431 20.0955 157.381 20.0753 157.344 20.0393C157.327 20.02 157.314 19.9976 157.306 19.9732C157.298 19.9489 157.294 19.9231 157.296 19.8974C157.298 19.8718 157.305 19.8467 157.317 19.8238C157.328 19.8009 157.344 19.7805 157.364 19.7639C157.364 19.7639 158.615 18.6901 160.389 19.7442C160.433 19.7704 160.464 19.8128 160.477 19.8622C160.489 19.9116 160.482 19.9639 160.456 20.0078C160.437 20.0346 160.411 20.0562 160.382 20.0706C160.352 20.0851 160.319 20.0919 160.287 20.0904Z" fill="#263238"/>
<path d="M160.645 19.3313C160.61 19.3324 160.575 19.3228 160.546 19.3037C158.607 18.1512 157.317 19.2368 157.262 19.3037C157.244 19.3219 157.223 19.3364 157.2 19.3463C157.176 19.3562 157.151 19.3613 157.126 19.3613C157.101 19.3613 157.076 19.3562 157.052 19.3463C157.029 19.3364 157.008 19.3219 156.99 19.3037C156.955 19.2676 156.934 19.2188 156.934 19.168C156.934 19.1172 156.955 19.0684 156.99 19.0323C156.99 19.0323 158.536 17.7067 160.727 19.0087C160.749 19.0217 160.769 19.0389 160.784 19.0595C160.8 19.08 160.811 19.1034 160.817 19.1284C160.823 19.1533 160.824 19.1792 160.82 19.2046C160.816 19.23 160.807 19.2543 160.794 19.2762C160.775 19.2959 160.751 19.3111 160.726 19.3206C160.7 19.3302 160.672 19.3338 160.645 19.3313Z" fill="#263238"/>
<path d="M159.311 21.054C159.311 21.1834 159.26 21.3075 159.168 21.3989C159.077 21.4904 158.953 21.5418 158.823 21.5418C158.694 21.5418 158.57 21.4904 158.478 21.3989C158.387 21.3075 158.336 21.1834 158.336 21.054C158.336 20.9247 158.387 20.8006 158.478 20.7091C158.57 20.6177 158.694 20.5663 158.823 20.5663C158.953 20.5663 159.077 20.6177 159.168 20.7091C159.26 20.8006 159.311 20.9247 159.311 21.054Z" fill="#263238"/>
<path d="M102.968 37.642H100.922V45.7096H102.968V37.642Z" fill="#263238" stroke="#263238" stroke-width="0.393351" stroke-linecap="round" stroke-linejoin="round"/>
<path d="M100.305 22.7455C100.305 20.1603 99.2776 17.6811 97.4496 15.8531C95.6217 14.0252 93.1424 12.9982 90.5573 12.9982H38.2141C36.9339 12.9977 35.6662 13.2495 34.4833 13.7391C33.3005 14.2288 32.2258 14.9468 31.3206 15.852C30.4154 16.7572 29.6974 17.8319 29.2077 19.0148C28.7181 20.1976 28.4663 21.4653 28.4668 22.7455V144.259C28.4663 145.54 28.7181 146.807 29.2077 147.99C29.6974 149.173 30.4154 150.248 31.3206 151.153C32.2258 152.058 33.3005 152.776 34.4833 153.266C35.6662 153.755 36.9339 154.007 38.2141 154.007H90.5652C93.1489 154.005 95.6262 152.977 97.4524 151.149C99.2787 149.321 100.305 146.843 100.305 144.259V22.7455ZM94.9196 137.297C94.9196 142.682 92.8859 147.044 87.501 147.044H41.2783C39.9981 147.045 38.7304 146.793 37.5475 146.303C36.3647 145.814 35.29 145.096 34.3848 144.191C33.4796 143.285 32.7616 142.211 32.2719 141.028C31.7823 139.845 31.5305 138.577 31.531 137.297V24.9876C31.531 22.4024 32.558 19.9232 34.3859 18.0952C36.2139 16.2673 38.6931 15.2403 41.2783 15.2403H60.6036L60.6233 15.3111C61.1936 17.3723 62.5114 18.7058 63.9707 18.7058H64.8085C66.2679 18.7058 67.5856 17.3723 68.1559 15.3111V15.2403H87.4813C92.8663 15.2403 94.8999 19.6065 94.8999 24.9876L94.9196 137.297Z" fill="#707070" stroke="#263238" stroke-width="0.393351" stroke-linecap="round" stroke-linejoin="round"/>
<path d="M83.7838 15.2247H64.4663V15.2955C63.8763 17.3567 62.5428 18.6941 61.0992 18.6941H60.2614C58.8021 18.6941 57.4843 17.3606 56.914 15.2995L56.8943 15.2287H37.569C36.2879 15.2287 35.0195 15.4812 33.8361 15.9718C32.6528 16.4623 31.5777 17.1814 30.6725 18.0877C29.7672 18.9941 29.0495 20.07 28.5603 21.254C28.0712 22.4379 27.8202 23.7067 27.8217 24.9877V142.812C27.8217 143.548 27.9671 144.277 28.2494 144.957C28.5317 145.637 28.9455 146.255 29.467 146.774C29.9884 147.294 30.6074 147.705 31.2883 147.985C31.9692 148.265 32.6987 148.408 33.4348 148.406H87.9454C89.4289 148.406 90.8516 147.816 91.9006 146.767C92.9496 145.718 93.5389 144.296 93.5389 142.812V24.9877C93.541 23.7057 93.2901 22.4359 92.8007 21.2509C92.3113 20.066 91.5929 18.9893 90.6868 18.0824C89.7806 17.1755 88.7045 16.4563 87.5199 15.9659C86.3354 15.4756 85.0658 15.2237 83.7838 15.2247Z" fill="white" stroke="#263238" stroke-width="0.393351" stroke-linecap="round" stroke-linejoin="round"/>
<path fill-rule="evenodd" clip-rule="evenodd" d="M56.7977 70.1663C57.9158 69.5418 59.2044 69.1859 60.5761 69.1859C61.9478 69.1859 63.2363 69.5418 64.3545 70.1663L65.1726 69.3482C65.389 69.1317 65.74 69.1317 65.9564 69.3482C66.1729 69.5646 66.1729 69.9156 65.9564 70.132L65.2997 70.7887C67.1459 72.2073 68.3358 74.4375 68.3358 76.9456H52.8163C52.8163 74.4375 54.0063 72.2073 55.8524 70.7887L55.1957 70.132C54.9793 69.9156 54.9793 69.5646 55.1957 69.3482C55.4122 69.1317 55.7631 69.1317 55.9796 69.3482L56.7977 70.1663ZM58.359 73.62C58.359 74.2322 57.8627 74.7285 57.2505 74.7285C56.6382 74.7285 56.1419 74.2322 56.1419 73.62C56.1419 73.0078 56.6382 72.5115 57.2505 72.5115C57.8627 72.5115 58.359 73.0078 58.359 73.62ZM63.9017 74.7285C64.5139 74.7285 65.0102 74.2322 65.0102 73.62C65.0102 73.0078 64.5139 72.5115 63.9017 72.5115C63.2894 72.5115 62.7931 73.0078 62.7931 73.62C62.7931 74.2322 63.2894 74.7285 63.9017 74.7285Z" fill="#E7E8EA"/>
<path d="M48.3822 79.7169C48.3822 78.7986 49.1266 78.0541 50.045 78.0541C50.9633 78.0541 51.7078 78.7986 51.7078 79.7169V86.3681C51.7078 87.2865 50.9633 88.0309 50.045 88.0309C49.1266 88.0309 48.3822 87.2865 48.3822 86.3681V79.7169Z" fill="#E7E8EA"/>
<path d="M56.1419 92.4651V96.345C56.1419 97.2633 56.8864 98.0078 57.8047 98.0078C58.7231 98.0078 59.4675 97.2633 59.4675 96.345V92.4651H61.6846V96.345C61.6846 97.2633 62.4291 98.0078 63.3474 98.0078C64.2657 98.0078 65.0102 97.2633 65.0102 96.345V92.4651H66.1187C67.3432 92.4651 68.3358 91.4725 68.3358 90.248V78.0541H52.8163V90.248C52.8163 91.4725 53.8089 92.4651 55.0334 92.4651H56.1419Z" fill="#E7E8EA"/>
<path d="M69.4444 79.7169C69.4444 78.7986 70.1888 78.0541 71.1072 78.0541C72.0255 78.0541 72.77 78.7986 72.77 79.7169V86.3681C72.77 87.2865 72.0255 88.0309 71.1072 88.0309C70.1888 88.0309 69.4444 87.2865 69.4444 86.3681V79.7169Z" fill="#E7E8EA"/>
<path d="M93.5389 28.9212V24.9877C93.541 23.7057 93.2901 22.4359 92.8007 21.2509C92.3113 20.066 91.5929 18.9893 90.6868 18.0824C89.7806 17.1755 88.7045 16.4563 87.5199 15.9659C86.3354 15.4756 85.0658 15.2237 83.7838 15.2247H64.4663V15.2955C63.8763 17.3567 62.5428 18.6941 61.0992 18.6941H60.2614C58.8021 18.6941 57.4843 17.3606 56.914 15.2995L56.8943 15.2287H37.569C36.2879 15.2287 35.0195 15.4812 33.8361 15.9718C32.6528 16.4623 31.5777 17.1814 30.6725 18.0877C29.7672 18.9941 29.0495 20.07 28.5603 21.254C28.0712 22.4379 27.8202 23.7067 27.8217 24.9877V28.9212H93.5389Z" fill="#C6DC08" stroke="#263238" stroke-width="0.393351" stroke-linecap="round" stroke-linejoin="round"/>
<path d="M27.8217 140.24V142.812C27.8217 143.548 27.967 144.277 28.2494 144.957C28.5317 145.637 28.9455 146.255 29.467 146.774C29.9884 147.294 30.6074 147.706 31.2883 147.985C31.9692 148.265 32.6986 148.408 33.4348 148.406H87.9454C89.4289 148.406 90.8516 147.816 91.9006 146.767C92.9496 145.718 93.5389 144.296 93.5389 142.812V140.24H27.8217Z" fill="#C6DC08" stroke="#263238" stroke-width="0.393351" stroke-linecap="round" stroke-linejoin="round"/>
<path d="M96.6031 22.7455C96.6036 21.4653 96.3518 20.1976 95.8622 19.0148C95.3725 17.8319 94.6546 16.7572 93.7493 15.852C92.8441 14.9468 91.7694 14.2288 90.5866 13.7391C89.4038 13.2495 88.136 12.9977 86.8558 12.9982H34.5048C31.9196 12.9982 29.4404 14.0252 27.6124 15.8531C25.7845 17.6811 24.7575 20.1603 24.7575 22.7455V144.259C24.7575 146.845 25.7845 149.324 27.6124 151.152C29.4404 152.98 31.9196 154.007 34.5048 154.007H86.8558C88.136 154.007 89.4038 153.755 90.5866 153.266C91.7694 152.776 92.8441 152.058 93.7493 151.153C94.6546 150.248 95.3725 149.173 95.8622 147.99C96.3518 146.807 96.6036 145.54 96.6031 144.259V22.7455ZM93.5389 137.297C93.5394 138.578 93.2874 139.846 92.7972 141.03C92.3071 142.213 91.5884 143.288 90.6824 144.193C89.7763 145.099 88.7006 145.817 87.5169 146.306C86.3332 146.795 85.0646 147.046 83.7838 147.044H37.569C36.2888 147.045 35.0211 146.793 33.8382 146.303C32.6554 145.814 31.5807 145.096 30.6755 144.191C29.7703 143.285 29.0523 142.211 28.5626 141.028C28.073 139.845 27.8212 138.577 27.8217 137.297V24.9876C27.8217 22.4024 28.8487 19.9232 30.6766 18.0952C32.5046 16.2673 34.9838 15.2403 37.569 15.2403H56.8943L56.914 15.3111C57.4843 17.3723 58.8021 18.7058 60.2614 18.7058H61.0992C62.5586 18.7058 63.8763 17.3723 64.4466 15.3111V15.2403H83.7838C85.0645 15.2393 86.3328 15.4907 87.5163 15.98C88.6998 16.4694 89.7752 17.1872 90.6812 18.0924C91.5871 18.9977 92.3058 20.0725 92.7962 21.2556C93.2865 22.4387 93.5389 23.7069 93.5389 24.9876V137.297Z" fill="#707070" stroke="#263238" stroke-width="0.393351" stroke-linecap="round" stroke-linejoin="round"/>
<path d="M85.1487 14.3397H36.2119C33.4734 14.3397 30.8471 15.4276 28.9107 17.364C26.9743 19.3004 25.8864 21.9267 25.8864 24.6652V142.34C25.8864 143.696 26.1535 145.039 26.6724 146.291C27.1913 147.544 27.9519 148.682 28.9107 149.641C29.8695 150.6 31.0078 151.361 32.2605 151.88C33.5133 152.398 34.8559 152.666 36.2119 152.666H85.1487C86.5047 152.666 87.8474 152.398 89.1001 151.88C90.3528 151.361 91.4911 150.6 92.4499 149.641C93.4087 148.682 94.1693 147.544 94.6882 146.291C95.2071 145.039 95.4742 143.696 95.4742 142.34V24.6652C95.4742 21.9267 94.3863 19.3004 92.4499 17.364C90.5135 15.4276 87.8872 14.3397 85.1487 14.3397ZM93.5389 137.297C93.5394 138.578 93.2874 139.846 92.7972 141.03C92.3071 142.213 91.5884 143.288 90.6824 144.194C89.7763 145.099 88.7007 145.817 87.5169 146.306C86.3332 146.795 85.0646 147.046 83.7838 147.045H37.569C36.2888 147.045 35.0211 146.793 33.8382 146.304C32.6554 145.814 31.5807 145.096 30.6755 144.191C29.7703 143.286 29.0523 142.211 28.5626 141.028C28.073 139.845 27.8212 138.577 27.8217 137.297V24.9877C27.8217 22.4026 28.8487 19.9234 30.6766 18.0954C32.5046 16.2674 34.9838 15.2405 37.569 15.2405H56.8943L56.914 15.3113C57.4843 17.3725 58.8021 18.7059 60.2614 18.7059H61.0992C62.5586 18.7059 63.8763 17.3725 64.4466 15.3113V15.2405H83.7838C85.0645 15.2395 86.3328 15.4908 87.5163 15.9802C88.6998 16.4696 89.7753 17.1874 90.6812 18.0926C91.5872 18.9978 92.3058 20.0727 92.7962 21.2558C93.2865 22.4389 93.5389 23.707 93.5389 24.9877V137.297Z" fill="#263238" stroke="#263238" stroke-width="0.393351" stroke-linecap="round" stroke-linejoin="round"/>
<path d="M61.3943 15.6929C61.3943 15.5114 61.3404 15.3341 61.2395 15.1833C61.1386 15.0325 60.9953 14.915 60.8276 14.8458C60.6599 14.7765 60.4754 14.7586 60.2975 14.7943C60.1196 14.83 59.9563 14.9176 59.8283 15.0462C59.7003 15.1748 59.6133 15.3384 59.5784 15.5165C59.5435 15.6945 59.5622 15.8789 59.6321 16.0463C59.7021 16.2137 59.8202 16.3566 59.9714 16.4568C60.1227 16.5571 60.3002 16.6102 60.4817 16.6094C60.6019 16.6094 60.7208 16.5856 60.8318 16.5395C60.9428 16.4934 61.0436 16.4259 61.1284 16.3407C61.2132 16.2555 61.2803 16.1545 61.3259 16.0433C61.3716 15.9321 61.3948 15.813 61.3943 15.6929Z" fill="#707070"/>
<path d="M33.663 19.1977C33.663 20.126 32.6206 20.4564 32.6167 21.1644V21.2116H33.6276V21.5224H32.2784V21.2628C32.2784 20.2715 33.3208 20.0827 33.3208 19.2134C33.3208 18.8948 33.2146 18.7296 32.9589 18.7296C32.7032 18.7296 32.6009 18.9105 32.6009 19.182V19.4534H32.2784V19.2016C32.2784 18.7335 32.4947 18.4149 32.9668 18.4149C33.4388 18.4149 33.663 18.7296 33.663 19.1977Z" fill="#263238"/>
<path d="M35.3426 19.1936V19.2722C35.3584 19.4042 35.3304 19.5376 35.2628 19.6521C35.1953 19.7665 35.092 19.8556 34.9689 19.9055C35.0923 19.9562 35.1957 20.046 35.2632 20.1611C35.3307 20.2762 35.3586 20.4103 35.3426 20.5428V20.7788C35.3426 21.2469 35.1223 21.5655 34.6503 21.5655C34.1783 21.5655 33.9619 21.2587 33.9619 20.7788V20.5664H34.2805V20.7984C34.2805 21.0777 34.3946 21.2429 34.6385 21.2429C34.8824 21.2429 35.0004 21.0816 35.0004 20.7709V20.531C35.0004 20.2281 34.8745 20.0865 34.607 20.0747H34.4221V19.7679H34.6149C34.6681 19.7684 34.7207 19.7574 34.7693 19.7357C34.8178 19.714 34.8611 19.6821 34.8962 19.6422C34.9313 19.6022 34.9574 19.5552 34.9726 19.5042C34.9879 19.4533 34.992 19.3996 34.9846 19.347V19.2093C34.9846 18.8907 34.8745 18.7294 34.6228 18.7294C34.371 18.7294 34.2648 18.9025 34.2648 19.1778V19.3352H33.9462V19.1936C33.9462 18.7255 34.1625 18.4069 34.6346 18.4069C35.1066 18.4069 35.3426 18.7255 35.3426 19.1936Z" fill="#263238"/>
<path d="M36.0034 19.4258V19.8742H35.6769V19.4258H36.0034ZM36.0034 21.0975V21.5223H35.6769V21.0975H36.0034Z" fill="#263238"/>
<path d="M36.6997 19.7049C36.7436 19.6234 36.8098 19.556 36.8906 19.5107C36.9714 19.4654 37.0635 19.4441 37.1559 19.4492C37.5493 19.4492 37.7263 19.7403 37.7263 20.1769V20.7787C37.7263 21.2468 37.5021 21.5654 37.034 21.5654C36.5659 21.5654 36.3417 21.2586 36.3417 20.7787V20.5703H36.6643V20.7984C36.6643 21.0777 36.7783 21.2429 37.0222 21.2429C37.2661 21.2429 37.3841 21.0777 37.3841 20.7984V20.2045C37.3841 19.9291 37.27 19.76 37.0222 19.76C36.9775 19.7578 36.9328 19.7648 36.8909 19.7805C36.849 19.7961 36.8107 19.8201 36.7783 19.851C36.746 19.8819 36.7202 19.919 36.7026 19.9602C36.685 20.0013 36.676 20.0456 36.6761 20.0904V20.1612H36.3574L36.44 18.454H37.6516V18.7609H36.7469L36.6997 19.7049Z" fill="#263238"/>
<path d="M39.4334 19.1895V19.2485H39.1109V19.1699C39.1109 18.8906 38.9968 18.7293 38.749 18.7293C38.5012 18.7293 38.3753 18.8945 38.3753 19.2249V19.9133C38.4111 19.8123 38.4788 19.7258 38.5683 19.6669C38.6578 19.6079 38.764 19.5798 38.8709 19.5868C39.2643 19.5868 39.4413 19.87 39.4413 20.3145V20.7787C39.4413 21.2468 39.2092 21.5654 38.7372 21.5654C38.2652 21.5654 38.0331 21.2586 38.0331 20.7787V19.2053C38.0331 18.7175 38.2534 18.4186 38.7372 18.4186C39.221 18.4186 39.4334 18.7215 39.4334 19.1895ZM38.3753 20.3381V20.7984C38.3753 21.0776 38.4894 21.2428 38.7372 21.2428C38.985 21.2428 39.103 21.0776 39.103 20.7984V20.3381C39.103 20.0628 38.985 19.8976 38.7372 19.8976C38.4894 19.8976 38.3753 20.0628 38.3753 20.3381Z" fill="#263238"/>
<path d="M72.9548 19.3233H72.0895V21.4907H72.9548V19.3233Z" fill="#263238"/>
<path d="M74.1113 18.8908H73.2459V21.4909H74.1113V18.8908Z" fill="#263238"/>
<path d="M75.2677 18.584H74.4024V21.4948H75.2677V18.584Z" fill="#263238"/>
<path d="M76.4242 18.045H75.5588V21.4907H76.4242V18.045Z" fill="#263238"/>
<path d="M87.1548 21.4474H81.9547V18.2534H87.1548V21.4474ZM82.2418 21.1603H86.8676V18.5445H82.2418V21.1603Z" fill="#263238"/>
<path d="M85.4201 18.8592H82.6745V20.8299H85.4201V18.8592Z" fill="#263238"/>
<path d="M87.6268 19.4691H86.9739V20.2164H87.6268V19.4691Z" fill="#263238"/>
<path d="M80.047 20.7435C80.0124 20.7428 79.9785 20.7333 79.9486 20.716C78.8866 20.0866 78.1864 20.6688 78.1589 20.6924C78.1409 20.7107 78.1195 20.7252 78.0959 20.7352C78.0722 20.7451 78.0468 20.7502 78.0212 20.7502C77.9956 20.7502 77.9702 20.7451 77.9465 20.7352C77.9229 20.7252 77.9015 20.7107 77.8835 20.6924C77.8512 20.6533 77.8352 20.6033 77.8388 20.5527C77.8425 20.5021 77.8656 20.4549 77.9032 20.421C77.9425 20.3895 78.8354 19.6343 80.1453 20.421C80.1804 20.4436 80.2074 20.4768 80.2224 20.5158C80.2374 20.5548 80.2396 20.5976 80.2286 20.6379C80.2177 20.6782 80.1941 20.714 80.1615 20.7401C80.1288 20.7661 80.0887 20.7811 80.047 20.7828V20.7435Z" fill="#263238"/>
<path d="M80.4364 20.0906C80.402 20.0889 80.3684 20.0795 80.338 20.0631C78.8079 19.1505 77.7773 20.0316 77.7694 20.0395C77.7512 20.0607 77.7286 20.0777 77.7032 20.0894C77.6778 20.1012 77.6502 20.1074 77.6222 20.1076C77.5942 20.1078 77.5665 20.1021 77.5409 20.0907C77.5153 20.0794 77.4925 20.0627 77.4738 20.0418C77.4552 20.0209 77.4413 19.9963 77.4329 19.9696C77.4246 19.9429 77.422 19.9147 77.4254 19.887C77.4288 19.8592 77.4381 19.8325 77.4527 19.8086C77.4672 19.7847 77.4867 19.7642 77.5098 19.7484C77.5098 19.7484 78.7646 18.6746 80.5386 19.7287C80.5824 19.7549 80.6139 19.7973 80.6265 19.8467C80.639 19.8961 80.6315 19.9484 80.6055 19.9923C80.5884 20.022 80.5637 20.0467 80.534 20.064C80.5044 20.0812 80.4707 20.0904 80.4364 20.0906Z" fill="#263238"/>
<path d="M80.7943 19.3313C80.7583 19.332 80.7228 19.3225 80.6921 19.3037C78.7568 18.1512 77.4666 19.2368 77.4115 19.3037C77.3939 19.3219 77.3728 19.3364 77.3495 19.3463C77.3262 19.3562 77.3011 19.3613 77.2758 19.3613C77.2505 19.3613 77.2254 19.3562 77.2021 19.3463C77.1788 19.3364 77.1577 19.3219 77.1401 19.3037C77.1043 19.2676 77.0842 19.2188 77.0842 19.168C77.0842 19.1172 77.1043 19.0684 77.1401 19.0323C77.1401 19.0323 78.686 17.7067 80.8769 19.0087C80.9209 19.0356 80.9526 19.0787 80.9651 19.1288C80.9776 19.1788 80.97 19.2317 80.9438 19.2762C80.9246 19.2959 80.9012 19.3111 80.8753 19.3206C80.8495 19.3302 80.8218 19.3338 80.7943 19.3313Z" fill="#263238"/>
<path d="M79.4569 21.054C79.4569 21.1834 79.4055 21.3075 79.3141 21.3989C79.2226 21.4904 79.0985 21.5418 78.9692 21.5418C78.8398 21.5418 78.7158 21.4904 78.6243 21.3989C78.5328 21.3075 78.4814 21.1834 78.4814 21.054C78.4814 20.9247 78.5328 20.8006 78.6243 20.7091C78.7158 20.6177 78.8398 20.5663 78.9692 20.5663C79.0985 20.5663 79.2226 20.6177 79.3141 20.7091C79.4055 20.8006 79.4569 20.9247 79.4569 21.054Z" fill="#263238"/>
<path d="M99.5375 37.642H97.4921V45.7096H99.5375V37.642Z" fill="#263238" stroke="#263238" stroke-width="0.393351" stroke-linecap="round" stroke-linejoin="round"/>
<path d="M99.5375 55.1026H97.4921V63.1702H99.5375V55.1026Z" fill="#263238" stroke="#263238" stroke-width="0.393351" stroke-linecap="round" stroke-linejoin="round"/>
<path d="M43.6187 99.5514L44.606 103.807C44.606 103.807 43.3079 105.286 42.1397 104.732C40.9714 104.177 40.5348 101.093 40.5348 101.093L43.6187 99.5514Z" fill="white" stroke="#263238" stroke-width="0.393351" stroke-linecap="round" stroke-linejoin="round"/>
<path d="M40.6135 89.0134C41.3141 89.6239 41.7824 90.4576 41.9391 91.3735C42.1633 92.8486 45.4792 102.682 45.4792 102.682C44.2646 102.479 43.0184 102.58 41.8525 102.977C40.0825 103.638 38.2612 101.884 38.2612 101.884L38.1826 90.284" fill="#C6DC08"/>
<path d="M40.6135 89.0134C41.3141 89.6239 41.7824 90.4576 41.9391 91.3735C42.1633 92.8486 45.4792 102.682 45.4792 102.682C44.2646 102.479 43.0184 102.58 41.8525 102.977C40.0825 103.638 38.2612 101.884 38.2612 101.884L38.1826 90.284" stroke="#263238" stroke-width="0.393351" stroke-linecap="round" stroke-linejoin="round"/>
<path d="M40.6489 101.691L45.2039 100.948C45.5048 101.47 45.6081 102.083 45.495 102.675C45.2983 103.642 45.5225 103.992 44.8499 104.248C44.1773 104.504 42.1358 104.213 41.5811 103.461C41.1977 102.912 40.8846 102.318 40.6489 101.691Z" fill="#C6DC08" stroke="#263238" stroke-width="0.393351" stroke-linecap="round" stroke-linejoin="round"/>
<path d="M40.6096 98.1589L41.4946 93.718" stroke="#263238" stroke-width="0.393351" stroke-linecap="round" stroke-linejoin="round"/>
<path d="M19.5495 101.534C20.5132 98.0959 22.4682 92.3097 22.8458 91.0667C23.365 89.3714 24.2461 88.9308 24.2461 88.9308L25.5717 97.1912L25.0564 98.2965C25.0564 98.2965 23.6247 102.277 22.539 104.244L25.5009 110.538L26.5512 112.729L25.2256 114.644C25.2256 114.644 19.1837 105.29 18.8887 104.629C18.5937 103.969 19.5495 101.534 19.5495 101.534Z" fill="white" stroke="#263238" stroke-width="0.393351" stroke-linecap="round" stroke-linejoin="round"/>
<path d="M24.6316 88.7931C23.8862 89.0178 23.2536 89.5168 22.8616 90.1895C22.126 91.3695 18.5347 103.229 18.5347 103.229C19.2943 103.796 20.1772 104.174 21.1112 104.334C22.5862 104.555 22.5705 104.24 22.5705 104.24L25.5324 98.8078" fill="#C6DC08"/>
<path d="M24.6316 88.7931C23.8862 89.0178 23.2536 89.5168 22.8616 90.1895C22.126 91.3695 18.5347 103.229 18.5347 103.229C19.2943 103.796 20.1772 104.174 21.1112 104.334C22.5862 104.555 22.5705 104.24 22.5705 104.24L25.5324 98.8078" stroke="#263238" stroke-width="0.393351" stroke-linecap="round" stroke-linejoin="round"/>
<path d="M18.9005 101.042C18.9005 101.042 17.7873 103.272 18.3459 103.831C18.9044 104.39 21.4101 104.948 22.897 104.574L23.2903 102.608C23.2903 102.608 19.8328 101.88 18.9005 101.042Z" fill="#C6DC08" stroke="#263238" stroke-width="0.393351" stroke-linecap="round" stroke-linejoin="round"/>
<path d="M23.2824 94.6069L25.0604 99.6418L22.6177 96.6052" stroke="#263238" stroke-width="0.393351" stroke-linecap="round" stroke-linejoin="round"/>
<path d="M41.7306 150.833C41.7306 150.833 41.7306 151.132 43.599 152.705C45.4674 154.278 45.8451 154.727 45.3219 155.25C44.7987 155.773 42.2538 154.802 41.4317 154.278C40.6096 153.755 40.9793 153.751 40.0077 153.303C39.0361 152.855 39.4846 151.281 39.634 150.907C39.7835 150.534 41.7306 150.833 41.7306 150.833Z" fill="white" stroke="#263238" stroke-width="0.393351" stroke-linecap="round" stroke-linejoin="round"/>
<path d="M23.6286 150.494C23.6286 150.494 23.6286 150.793 21.7602 152.367C19.8918 153.94 19.5141 154.385 20.0373 154.912C20.5605 155.439 23.1054 154.459 23.9315 153.936C24.7575 153.413 24.3799 153.413 25.3515 152.965C26.3231 152.516 25.8746 150.943 25.7448 150.569C25.615 150.195 23.6286 150.494 23.6286 150.494Z" fill="white" stroke="#263238" stroke-width="0.393351" stroke-linecap="round" stroke-linejoin="round"/>
<path d="M24.7772 122.48C24.5412 119.962 25.0722 115.006 25.0722 114.424C25.0722 113.842 26.2011 111.391 26.5315 110.707L26.563 109.92C26.563 109.92 38.2062 109.48 39.7442 108.929C39.7442 108.929 41.5379 115.246 41.7581 121.178C41.9784 127.11 42.9657 134.359 42.7494 138.536C42.5724 141.876 42.415 148.539 42.2695 150.777C42.2541 151.034 42.1555 151.278 41.9887 151.473C41.8219 151.669 41.5959 151.804 41.3451 151.859L41.0776 151.918C40.9157 151.957 40.7474 151.96 40.584 151.929C40.4205 151.897 40.2655 151.832 40.1292 151.736C39.9928 151.641 39.8782 151.518 39.7929 151.375C39.7076 151.232 39.6534 151.073 39.634 150.907C39.0952 146.58 37.0969 131.987 36.267 129.308C35.2796 126.122 33.246 117.508 33.246 117.508C33.246 117.508 28.5769 138.749 28.0302 141.616C27.4834 144.484 25.7212 150.954 25.7212 150.954C25.2626 151.13 24.7822 151.241 24.2933 151.285C23.8853 151.266 23.4817 151.192 23.0936 151.065L24.7772 122.48Z" fill="#263238" stroke="#263238" stroke-width="0.393351" stroke-linecap="round" stroke-linejoin="round"/>
<path d="M32.9825 86.7753C32.9825 86.7753 35.8225 87.3417 37.7381 87.9121C39.6537 88.4824 40.936 88.8325 40.936 89.4855C40.936 90.1384 40.0825 109.224 40.0825 109.224C40.0825 109.224 40.0117 110.011 38.3085 110.219C36.6052 110.427 27.5857 110.715 27.0153 110.573C26.445 110.431 26.2286 109.865 26.1657 109C26.1028 108.134 23.8921 90.0401 24.0337 89.1904C24.1753 88.3408 31.1337 87.0585 31.3501 86.9877C31.8644 86.7685 32.4292 86.695 32.9825 86.7753Z" fill="#C6DC08" stroke="#263238" stroke-width="0.393351" stroke-linecap="round" stroke-linejoin="round"/>
<path d="M35.3505 89.4972C35.3505 90.929 33.958 92.0894 32.243 92.0894C30.528 92.0894 29.1316 90.929 29.1316 89.4972C29.1316 88.0654 30.524 86.909 32.243 86.909C33.9619 86.909 35.3505 88.0694 35.3505 89.4972Z" fill="#C6DC08" stroke="#263238" stroke-width="0.393351" stroke-linecap="round" stroke-linejoin="round"/>
<path d="M24.2619 88.9386L32.1289 93.8594L32.0581 103.013L35.2718 102.773L33.8242 94.0207L40.2516 89.0409L34.6306 86.8735C34.6306 86.8735 34.4693 88.9622 34.3081 89.682C34.1468 90.4019 33.6394 91.1964 32.125 91.161C30.6106 91.1256 29.8121 88.9622 29.8121 88.9622L29.8553 86.8617C29.8553 86.8617 24.9778 87.9552 24.2619 88.9386Z" fill="#263238" stroke="#263238" stroke-width="0.393351" stroke-linecap="round" stroke-linejoin="round"/>
<path d="M40.346 97.7576C40.346 97.7576 37.4116 104.327 33.5017 107.678" stroke="#263238" stroke-width="0.393351" stroke-linecap="round" stroke-linejoin="round"/>
<path d="M29.1276 109.334C28.8383 109.56 28.5242 109.753 28.1915 109.908" stroke="#263238" stroke-width="0.393351" stroke-linecap="round" stroke-linejoin="round"/>
<path d="M34.4772 103.485C34.4772 103.485 31.944 106.891 29.7806 108.799" stroke="#263238" stroke-width="0.393351" stroke-linecap="round" stroke-linejoin="round"/>
<path d="M34.9964 81.89C34.9964 81.89 35.6533 80.2497 35.9837 81.5635C36.3142 82.8773 35.1616 84.5176 34.5047 84.0259" fill="white"/>
<path d="M34.9964 81.89C34.9964 81.89 35.6533 80.2497 35.9837 81.5635C36.3142 82.8773 35.1616 84.5176 34.5047 84.0259" stroke="#263238" stroke-width="0.393351" stroke-linecap="round" stroke-linejoin="round"/>
<path d="M28.2701 82.2989C28.2701 82.2989 26.8737 81.3981 26.9563 82.6293C27.0389 83.8605 28.2701 85.2529 28.6792 84.5174" fill="white"/>
<path d="M28.2701 82.2989C28.2701 82.2989 26.8737 81.3981 26.9563 82.6293C27.0389 83.8605 28.2701 85.2529 28.6792 84.5174" stroke="#263238" stroke-width="0.393351" stroke-linecap="round" stroke-linejoin="round"/>
<path d="M34.5048 84.0257L34.4182 89.1039C34.4037 89.3899 34.3325 89.6701 34.2089 89.9284C34.0852 90.1867 33.9115 90.4178 33.6978 90.6085C33.4841 90.7991 33.2347 90.9454 32.964 91.0389C32.6934 91.1324 32.4068 91.1713 32.121 91.1532C29.9065 91.1532 29.9891 88.6122 29.9891 88.6122L29.5013 84.5174C29.5013 84.5174 33.0297 84.9265 34.5048 84.0257Z" fill="white" stroke="#263238" stroke-width="0.393351" stroke-linecap="round" stroke-linejoin="round"/>
<path d="M32.2469 88.2779C32.9274 88.152 33.7849 87.3536 34.4536 86.6101L34.4851 84.6748L33.1241 83.8527C32.3496 83.9675 31.5659 84.0083 30.7836 83.9747L29.6429 85.0643L29.8553 86.8619C30.4611 87.5306 31.4248 88.4274 32.2469 88.2779Z" fill="#263238"/>
<path d="M27.6801 81.1267C27.6801 81.1267 26.6928 78.09 29.3046 76.2884C31.9165 74.4869 34.7172 76.7801 35.0476 79.0773C35.378 81.3745 35.1302 84.4111 33.899 86.134C32.6678 87.8569 31.9047 87.9788 30.5358 86.9522C29.167 85.9255 27.7588 83.0974 27.6801 81.1267Z" fill="white" stroke="#263238" stroke-width="0.393351" stroke-linecap="round" stroke-linejoin="round"/>
<path d="M29.3047 79.3528C29.3047 79.3528 28.3881 80.8987 28.9113 81.0128C29.4345 81.1268 31.5468 79.636 31.5468 79.636C31.5468 79.636 31.1534 80.4975 32.003 80.4975C32.8527 80.4975 33.8361 78.3222 33.8361 78.3222C33.7794 78.7621 33.8797 79.2078 34.1193 79.581C34.5126 80.1513 34.9807 80.8987 34.9807 80.8987L35.0358 81.2409L35.6651 80.8987C35.6651 80.8987 35.6101 77.921 35.5511 77.4647C35.4921 77.0085 36.6957 78.3773 36.7547 77.4057C36.8137 76.4342 34.1193 74.8883 33.8911 74.7742C33.663 74.6602 35.378 74.7742 35.0358 74.314C34.6936 73.8538 32.2823 73.2283 31.3737 73.5706C30.3079 74.0778 29.2753 74.6519 28.2819 75.2895C28.2819 75.2895 27.8257 74.1449 27.4244 75.2305C27.0232 76.3162 26.2444 77.4057 26.5079 78.3773C26.7715 79.3489 27.6526 81.5241 27.7116 81.6972C27.7706 81.8703 28.8562 79.3371 28.8562 79.3371C28.8562 79.3371 27.9476 80.7807 29.3047 79.3528Z" fill="#263238" stroke="#263238" stroke-width="0.393351" stroke-linecap="round" stroke-linejoin="round"/>
<path d="M29.2574 82.8103C29.4772 82.9503 29.7324 83.0247 29.993 83.0247C30.2536 83.0247 30.5088 82.9503 30.7286 82.8103" stroke="#263238" stroke-width="0.393351" stroke-linecap="round" stroke-linejoin="round"/>
<path d="M32.3571 82.6451C32.3571 82.6451 33.5764 83.0385 34.0839 82.3934" stroke="#263238" stroke-width="0.393351" stroke-linecap="round" stroke-linejoin="round"/>
<path d="M31.1888 84.6278C31.1888 84.6278 31.6451 84.9818 31.948 84.8796C32.0455 84.8274 32.131 84.7552 32.1988 84.6678C32.2665 84.5804 32.3151 84.4796 32.3413 84.3721" stroke="#263238" stroke-width="0.393351" stroke-linecap="round" stroke-linejoin="round"/>
<path d="M31.2911 85.6427C31.5281 85.7573 31.7966 85.7893 32.0539 85.7337C32.3112 85.6781 32.5425 85.5381 32.7111 85.3359" stroke="#263238" stroke-width="0.393351" stroke-linecap="round" stroke-linejoin="round"/>
<path d="M29.0529 81.9843C29.0529 81.9843 30.0205 81.4769 30.7797 81.7326" stroke="#263238" stroke-width="0.393351" stroke-linecap="round" stroke-linejoin="round"/>
<path d="M32.0581 81.6814C32.2911 81.497 32.5682 81.3764 32.8621 81.3315C33.1559 81.2867 33.4563 81.3192 33.7338 81.4258" stroke="#263238" stroke-width="0.393351" stroke-linecap="round" stroke-linejoin="round"/>
<path d="M31.5703 92.5732L32.5459 99.3428L35.7595 99.0084L35.079 92.0225L31.5703 92.5732Z" fill="white" stroke="#263238" stroke-width="0.393351" stroke-linecap="round" stroke-linejoin="round"/>
<path d="M36.9593 96.4676L36.4636 95.3584L35.3544 94.611L35.4763 95.3505L35.909 96.3378L33.9973 96.031L32.3334 95.9681C32.3334 95.9681 32.1486 96.3378 32.3334 96.4008C32.5183 96.4637 33.7495 96.9711 33.7495 96.9711L31.9637 97.156C31.9637 97.156 31.7159 97.6477 31.9637 97.7736C32.2115 97.8994 32.6403 99.0048 33.3208 99.1896C34.0013 99.3745 36.4676 98.8199 36.4676 98.8199C36.4676 98.8199 40.4011 105.9 41.2153 106.467C42.0295 107.033 43.4967 106.714 43.8704 106.53C44.2441 106.345 44.9246 105.35 44.8538 104.248C44.8263 103.756 37.3801 97.4628 37.3801 97.4628L36.9593 96.4676Z" fill="white" stroke="#263238" stroke-width="0.393351" stroke-linecap="round" stroke-linejoin="round"/>
<path d="M186.704 93.2929C186.704 93.2929 182.822 91.1334 182.535 96.0227C182.247 100.912 181.528 141.47 181.528 141.47" stroke="#263238" stroke-width="0.786702" stroke-linecap="round" stroke-linejoin="round"/>
<path d="M180.517 96.4554C180.517 96.4554 183.683 112.28 182.247 141.042" stroke="#263238" stroke-width="0.786702" stroke-linecap="round" stroke-linejoin="round"/>
<path d="M183.628 94.2765C183.628 94.2765 182.145 95.2284 181.299 94.1389C180.454 93.0493 181.87 91.055 180.623 90.2054C179.376 89.3557 177.216 90.6538 177.216 90.6538C177.216 90.6538 178.876 91.1415 178.825 92.0462C178.774 92.951 177.972 93.2971 177.865 92.8998C177.759 92.5025 176.965 90.5082 175.619 91.3264C175.227 91.5535 174.885 91.8583 174.614 92.2222C174.344 92.5861 174.15 93.0014 174.046 93.4426C174.046 93.4426 177.193 93.1083 177.374 94.2883C177.555 95.4684 176.084 94.0838 174.789 94.0091C173.495 93.9343 172.315 94.1192 172.398 94.9059C172.429 95.5992 172.388 96.2939 172.276 96.9789C172.983 96.3901 173.877 96.0735 174.797 96.086C176.221 96.1686 176.17 97.0772 174.872 96.9985C173.574 96.9199 172.469 98.1786 172.469 98.1786C172.469 98.1786 173.649 100.196 175.147 101.192C176.646 102.187 177.189 101.833 177.362 101.066C177.535 100.299 177.134 98.3123 178.042 98.3753C178.951 98.4382 176.54 101.793 177.7 101.994C178.861 102.195 179.785 101.856 180.092 101.093L180.395 100.334C180.395 100.334 180.001 98.3674 180.167 97.5807C180.332 96.794 180.56 97.6043 180.761 98.5247C180.961 99.4452 181.095 101.672 181.492 101.557C181.889 101.443 183.152 99.8346 183.459 99.1974C183.766 98.5601 181.795 96.6327 181.815 96.2433C181.834 95.8539 183.353 96.5934 183.589 96.9985C183.76 97.3021 183.915 97.6146 184.053 97.9347C184.053 97.9347 185.001 97.3407 184.977 95.5195C184.954 93.6983 183.628 94.2765 183.628 94.2765Z" fill="#C6DC08"/>
<path opacity="0.3" d="M183.628 94.2765C183.628 94.2765 182.145 95.2284 181.299 94.1389C180.454 93.0493 181.87 91.055 180.623 90.2054C179.376 89.3557 177.216 90.6538 177.216 90.6538C177.216 90.6538 178.876 91.1415 178.825 92.0462C178.774 92.951 177.972 93.2971 177.865 92.8998C177.759 92.5025 176.965 90.5082 175.619 91.3264C175.227 91.5535 174.885 91.8583 174.614 92.2222C174.344 92.5861 174.15 93.0014 174.046 93.4426C174.046 93.4426 177.193 93.1083 177.374 94.2883C177.555 95.4684 176.084 94.0838 174.789 94.0091C173.495 93.9343 172.315 94.1192 172.398 94.9059C172.429 95.5992 172.388 96.2939 172.276 96.9789C172.983 96.3901 173.877 96.0735 174.797 96.086C176.221 96.1686 176.17 97.0772 174.872 96.9985C173.574 96.9199 172.469 98.1786 172.469 98.1786C172.469 98.1786 173.649 100.196 175.147 101.192C176.646 102.187 177.189 101.833 177.362 101.066C177.535 100.299 177.134 98.3123 178.042 98.3753C178.951 98.4382 176.54 101.793 177.7 101.994C178.861 102.195 179.785 101.856 180.092 101.093L180.395 100.334C180.395 100.334 180.001 98.3674 180.167 97.5807C180.332 96.794 180.56 97.6043 180.761 98.5247C180.961 99.4452 181.095 101.672 181.492 101.557C181.889 101.443 183.152 99.8346 183.459 99.1974C183.766 98.5601 181.795 96.6327 181.815 96.2433C181.834 95.8539 183.353 96.5934 183.589 96.9985C183.76 97.3021 183.915 97.6146 184.053 97.9347C184.053 97.9347 185.001 97.3407 184.977 95.5195C184.954 93.6983 183.628 94.2765 183.628 94.2765Z" fill="#263238"/>
<path d="M176.084 98.5443C177.051 97.3446 178.479 95.724 179.675 94.953" stroke="#263238" stroke-width="0.393351" stroke-linecap="round" stroke-linejoin="round"/>
<path d="M174.978 99.9996C174.978 99.9996 175.226 99.6535 175.627 99.1382" stroke="#263238" stroke-width="0.393351" stroke-linecap="round" stroke-linejoin="round"/>
<path d="M180.324 95.2479C180.324 95.2479 181.764 97.2815 182.027 99.3781" stroke="#263238" stroke-width="0.393351" stroke-linecap="round" stroke-linejoin="round"/>
<path d="M178.695 96.4515C178.695 96.4515 179.089 96.2155 178.943 98.8116" stroke="#263238" stroke-width="0.393351" stroke-linecap="round" stroke-linejoin="round"/>
<path d="M179.746 94.0443C179.746 94.0443 180.568 93.3166 180.139 91.8612" stroke="#263238" stroke-width="0.393351" stroke-linecap="round" stroke-linejoin="round"/>
<path d="M178.633 95.2795L178.046 94.2057" stroke="#263238" stroke-width="0.393351" stroke-linecap="round" stroke-linejoin="round"/>
<path d="M177.397 96.3769C177.397 96.3769 175.533 94.9687 174.369 94.8979" stroke="#263238" stroke-width="0.393351" stroke-linecap="round" stroke-linejoin="round"/>
<path d="M188.923 90.4372C188.923 90.4372 188.864 92.573 187.196 92.6793C185.528 92.7855 184.497 90.0045 182.794 90.6732C181.091 91.3419 180.922 94.3864 180.922 94.3864C180.922 94.3864 182.542 93.0569 183.412 93.7256C184.281 94.3943 184.08 95.4327 183.612 95.2714C183.144 95.1102 180.607 94.5398 180.517 96.4515C180.482 96.9969 180.558 97.5438 180.741 98.0589C180.923 98.5741 181.208 99.0469 181.579 99.4488C181.579 99.4488 183.38 96.0778 184.694 96.6954C186.008 97.3129 183.608 97.844 182.653 99.0869C181.697 100.33 181.079 101.644 181.921 102.092C182.634 102.535 183.301 103.049 183.911 103.626C183.8 102.512 184.094 101.395 184.737 100.479C185.791 99.1105 186.665 99.7832 185.705 101.026C184.745 102.269 185.221 104.224 185.221 104.224C185.221 104.224 188.049 104.421 190.071 103.599C192.093 102.777 192.101 101.99 191.452 101.29C190.803 100.59 188.549 99.6494 189.222 98.7801C189.894 97.9108 191.621 102.611 192.608 101.589C193.596 100.566 193.895 99.4056 193.34 98.5835L192.785 97.7574C192.785 97.7574 190.535 96.8173 189.886 96.1171C189.237 95.417 190.173 95.7435 191.235 96.1683C192.298 96.5931 194.606 97.9698 194.776 97.5017C194.945 97.0337 194.186 94.6657 193.753 93.938C193.32 93.2103 190.048 93.8593 189.674 93.5682C189.3 93.2772 191.074 92.2702 191.641 92.3095C192.062 92.3439 192.481 92.4017 192.895 92.4826C192.895 92.4826 192.943 91.1295 191.106 89.914C189.269 88.6985 188.923 90.4372 188.923 90.4372Z" fill="#C6DC08"/>
<path opacity="0.2" d="M188.923 90.4372C188.923 90.4372 188.864 92.573 187.196 92.6793C185.528 92.7855 184.497 90.0045 182.794 90.6732C181.091 91.3419 180.922 94.3864 180.922 94.3864C180.922 94.3864 182.542 93.0569 183.412 93.7256C184.281 94.3943 184.08 95.4327 183.612 95.2714C183.144 95.1102 180.607 94.5398 180.517 96.4515C180.482 96.9969 180.558 97.5438 180.741 98.0589C180.923 98.5741 181.208 99.0469 181.579 99.4488C181.579 99.4488 183.38 96.0778 184.694 96.6954C186.008 97.3129 183.608 97.844 182.653 99.0869C181.697 100.33 181.079 101.644 181.921 102.092C182.634 102.535 183.301 103.049 183.911 103.626C183.8 102.512 184.094 101.395 184.737 100.479C185.791 99.1105 186.665 99.7832 185.705 101.026C184.745 102.269 185.221 104.224 185.221 104.224C185.221 104.224 188.049 104.421 190.071 103.599C192.093 102.777 192.101 101.99 191.452 101.29C190.803 100.59 188.549 99.6494 189.222 98.7801C189.894 97.9108 191.621 102.611 192.608 101.589C193.596 100.566 193.895 99.4056 193.34 98.5835L192.785 97.7574C192.785 97.7574 190.535 96.8173 189.886 96.1171C189.237 95.417 190.173 95.7435 191.235 96.1683C192.298 96.5931 194.606 97.9698 194.776 97.5017C194.945 97.0337 194.186 94.6657 193.753 93.938C193.32 93.2103 190.048 93.8593 189.674 93.5682C189.3 93.2772 191.074 92.2702 191.641 92.3095C192.062 92.3439 192.481 92.4017 192.895 92.4826C192.895 92.4826 192.943 91.1295 191.106 89.914C189.269 88.6985 188.923 90.4372 188.923 90.4372Z" fill="#263238"/>
<path d="M188.065 100.904C187.526 99.1184 186.885 96.5774 186.917 94.8624" stroke="#263238" stroke-width="0.393351" stroke-linecap="round" stroke-linejoin="round"/>
<path d="M188.757 103.005C188.757 103.005 188.58 102.521 188.336 101.762" stroke="#263238" stroke-width="0.393351" stroke-linecap="round" stroke-linejoin="round"/>
<path d="M187.644 94.4101C187.644 94.4101 190.661 94.3589 192.943 95.5193" stroke="#263238" stroke-width="0.393351" stroke-linecap="round" stroke-linejoin="round"/>
<path d="M187.739 96.8648C187.739 96.8648 187.778 96.2984 190.268 98.218" stroke="#263238" stroke-width="0.393351" stroke-linecap="round" stroke-linejoin="round"/>
<path d="M186.047 94.1702C186.047 94.1702 185.874 92.8485 184.124 92.29" stroke="#263238" stroke-width="0.393351" stroke-linecap="round" stroke-linejoin="round"/>
<path d="M186.523 96.1251L185.048 95.9796" stroke="#263238" stroke-width="0.393351" stroke-linecap="round" stroke-linejoin="round"/>
<path d="M186.779 98.1077C186.779 98.1077 184.096 99.0164 183.239 100.133" stroke="#263238" stroke-width="0.393351" stroke-linecap="round" stroke-linejoin="round"/>
<path d="M171.029 104.653C171.029 104.653 179.514 119.038 179.372 140.755" stroke="#263238" stroke-width="0.786702" stroke-linecap="round" stroke-linejoin="round"/>
<path d="M181.492 103.17C181.492 103.17 181.221 105.628 179.289 105.593C177.358 105.558 176.426 102.25 174.396 102.863C172.366 103.477 171.887 106.97 171.887 106.97C171.887 106.97 173.881 105.589 174.821 106.447C175.761 107.304 175.435 108.476 174.907 108.244C174.38 108.012 171.505 107.119 171.226 109.318C171.133 109.944 171.169 110.583 171.331 111.194C171.492 111.806 171.776 112.379 172.166 112.878C172.166 112.878 174.565 109.161 176.021 109.995C177.476 110.829 174.66 111.218 173.436 112.563C172.213 113.909 171.379 115.364 172.311 115.962C173.093 116.543 173.814 117.202 174.463 117.929C174.443 116.637 174.885 115.382 175.71 114.388C177.059 112.909 177.999 113.767 176.776 115.112C175.553 116.457 175.918 118.759 175.918 118.759C175.918 118.759 179.16 119.25 181.571 118.491C183.982 117.732 184.065 116.827 183.38 115.958C182.696 115.089 180.19 113.794 181.048 112.85C181.905 111.906 183.455 117.5 184.69 116.414C185.925 115.329 186.382 114.015 185.819 113.012L185.257 112.009C185.257 112.009 182.747 110.711 182.063 109.841C181.378 108.972 182.428 109.448 183.616 110.026C184.804 110.604 187.333 112.426 187.55 111.898C187.766 111.371 187.137 108.571 186.708 107.69C186.279 106.809 182.44 107.249 182.035 106.883C181.63 106.517 183.774 105.51 184.423 105.609C184.905 105.69 185.383 105.797 185.854 105.927C185.854 105.927 186.039 104.374 184.033 102.781C182.027 101.188 181.492 103.17 181.492 103.17Z" fill="#C6DC08"/>
<path opacity="0.3" d="M181.492 103.17C181.492 103.17 181.221 105.628 179.289 105.593C177.358 105.558 176.426 102.25 174.396 102.863C172.366 103.477 171.887 106.97 171.887 106.97C171.887 106.97 173.881 105.589 174.821 106.447C175.761 107.304 175.435 108.476 174.907 108.244C174.38 108.012 171.505 107.119 171.226 109.318C171.133 109.944 171.169 110.583 171.331 111.194C171.492 111.806 171.776 112.379 172.166 112.878C172.166 112.878 174.565 109.161 176.021 109.995C177.476 110.829 174.66 111.218 173.436 112.563C172.213 113.909 171.379 115.364 172.311 115.962C173.093 116.543 173.814 117.202 174.463 117.929C174.443 116.637 174.885 115.382 175.71 114.388C177.059 112.909 177.999 113.767 176.776 115.112C175.553 116.457 175.918 118.759 175.918 118.759C175.918 118.759 179.16 119.25 181.571 118.491C183.982 117.732 184.065 116.827 183.38 115.958C182.696 115.089 180.19 113.794 181.048 112.85C181.905 111.906 183.455 117.5 184.69 116.414C185.925 115.329 186.382 114.015 185.819 113.012L185.257 112.009C185.257 112.009 182.747 110.711 182.063 109.841C181.378 108.972 182.428 109.448 183.616 110.026C184.804 110.604 187.333 112.426 187.55 111.898C187.766 111.371 187.137 108.571 186.708 107.69C186.279 106.809 182.44 107.249 182.035 106.883C181.63 106.517 183.774 105.51 184.423 105.609C184.905 105.69 185.383 105.797 185.854 105.927C185.854 105.927 186.039 104.374 184.033 102.781C182.027 101.188 181.492 103.17 181.492 103.17Z" fill="#263238"/>
<path d="M179.514 115.144C179.061 113.035 178.55 110.05 178.762 108.063" stroke="#263238" stroke-width="0.393351" stroke-linecap="round" stroke-linejoin="round"/>
<path d="M180.115 117.653C180.115 117.653 179.958 117.079 179.746 116.182" stroke="#263238" stroke-width="0.393351" stroke-linecap="round" stroke-linejoin="round"/>
<path d="M179.643 107.635C179.643 107.635 183.128 107.855 185.646 109.412" stroke="#263238" stroke-width="0.393351" stroke-linecap="round" stroke-linejoin="round"/>
<path d="M179.518 110.474C179.518 110.474 179.616 109.825 182.306 112.272" stroke="#263238" stroke-width="0.393351" stroke-linecap="round" stroke-linejoin="round"/>
<path d="M177.818 107.198C177.818 107.198 177.747 105.656 175.777 104.838" stroke="#263238" stroke-width="0.393351" stroke-linecap="round" stroke-linejoin="round"/>
<path d="M178.184 109.507L176.497 109.2" stroke="#263238" stroke-width="0.393351" stroke-linecap="round" stroke-linejoin="round"/>
<path d="M178.294 111.82C178.294 111.82 175.112 112.607 174.011 113.822" stroke="#263238" stroke-width="0.393351" stroke-linecap="round" stroke-linejoin="round"/>
<path d="M181.492 123.719C181.492 123.719 181.221 126.177 179.289 126.138C177.358 126.099 176.426 122.798 174.396 123.408C172.366 124.018 171.887 127.519 171.887 127.519C171.887 127.519 173.881 126.134 174.821 126.991C175.761 127.849 175.435 129.025 174.907 128.789C174.38 128.553 171.505 127.664 171.226 129.867C171.136 130.49 171.173 131.124 171.335 131.733C171.496 132.341 171.779 132.911 172.166 133.407C172.166 133.407 174.565 129.69 176.021 130.52C177.476 131.35 174.66 131.743 173.436 133.088C172.213 134.434 171.379 135.889 172.311 136.491C173.094 137.071 173.815 137.73 174.463 138.458C174.442 137.167 174.885 135.911 175.71 134.917C177.059 133.438 177.999 134.292 176.776 135.637C175.553 136.983 175.918 139.284 175.918 139.284C175.918 139.284 179.16 139.775 181.571 139.016C183.982 138.257 184.065 137.356 183.38 136.487C182.696 135.618 180.19 134.32 181.048 133.379C181.905 132.439 183.455 138.029 184.69 136.939C185.925 135.85 186.382 134.544 185.819 133.541L185.257 132.534C185.257 132.534 182.747 131.24 182.063 130.37C181.378 129.501 182.428 129.977 183.616 130.551C184.804 131.126 187.333 132.951 187.55 132.428C187.766 131.904 187.137 129.1 186.708 128.219C186.279 127.338 182.44 127.774 182.035 127.408C181.63 127.043 183.774 126.04 184.423 126.138C184.905 126.219 185.383 126.326 185.854 126.456C185.854 126.456 186.039 124.903 184.033 123.31C182.027 121.717 181.492 123.719 181.492 123.719Z" fill="#C6DC08"/>
<path opacity="0.3" d="M181.492 123.719C181.492 123.719 181.221 126.177 179.289 126.138C177.358 126.099 176.426 122.798 174.396 123.408C172.366 124.018 171.887 127.519 171.887 127.519C171.887 127.519 173.881 126.134 174.821 126.991C175.761 127.849 175.435 129.025 174.907 128.789C174.38 128.553 171.505 127.664 171.226 129.867C171.136 130.49 171.173 131.124 171.335 131.733C171.496 132.341 171.779 132.911 172.166 133.407C172.166 133.407 174.565 129.69 176.021 130.52C177.476 131.35 174.66 131.743 173.436 133.088C172.213 134.434 171.379 135.889 172.311 136.491C173.094 137.071 173.815 137.73 174.463 138.458C174.442 137.167 174.885 135.911 175.71 134.917C177.059 133.438 177.999 134.292 176.776 135.637C175.553 136.983 175.918 139.284 175.918 139.284C175.918 139.284 179.16 139.775 181.571 139.016C183.982 138.257 184.065 137.356 183.38 136.487C182.696 135.618 180.19 134.32 181.048 133.379C181.905 132.439 183.455 138.029 184.69 136.939C185.925 135.85 186.382 134.544 185.819 133.541L185.257 132.534C185.257 132.534 182.747 131.24 182.063 130.37C181.378 129.501 182.428 129.977 183.616 130.551C184.804 131.126 187.333 132.951 187.55 132.428C187.766 131.904 187.137 129.1 186.708 128.219C186.279 127.338 182.44 127.774 182.035 127.408C181.63 127.043 183.774 126.04 184.423 126.138C184.905 126.219 185.383 126.326 185.854 126.456C185.854 126.456 186.039 124.903 184.033 123.31C182.027 121.717 181.492 123.719 181.492 123.719Z" fill="#263238"/>
<path d="M179.514 135.704C179.061 133.592 178.55 130.591 178.762 128.624" stroke="#263238" stroke-width="0.393351" stroke-linecap="round" stroke-linejoin="round"/>
<path d="M180.115 138.213C180.115 138.213 179.958 137.635 179.746 136.738" stroke="#263238" stroke-width="0.393351" stroke-linecap="round" stroke-linejoin="round"/>
<path d="M179.643 128.195C179.643 128.195 183.128 128.416 185.646 129.969" stroke="#263238" stroke-width="0.393351" stroke-linecap="round" stroke-linejoin="round"/>
<path d="M179.518 131.031C179.518 131.031 179.616 130.382 182.306 132.833" stroke="#263238" stroke-width="0.393351" stroke-linecap="round" stroke-linejoin="round"/>
<path d="M177.818 127.762C177.818 127.762 177.747 126.224 175.777 125.402" stroke="#263238" stroke-width="0.393351" stroke-linecap="round" stroke-linejoin="round"/>
<path d="M178.184 130.063L176.497 129.757" stroke="#263238" stroke-width="0.393351" stroke-linecap="round" stroke-linejoin="round"/>
<path d="M178.294 132.372C178.294 132.372 175.112 133.159 174.011 134.379" stroke="#263238" stroke-width="0.393351" stroke-linecap="round" stroke-linejoin="round"/>
<path d="M174.337 121.752C174.337 121.752 179.801 134.701 180.379 140.884L179.226 111.383" stroke="#263238" stroke-width="0.786702" stroke-linecap="round" stroke-linejoin="round"/>
<path d="M187.569 118.746C180.379 117.452 180.379 140.896 180.379 140.896" stroke="#263238" stroke-width="0.786702" stroke-linecap="round" stroke-linejoin="round"/>
<path d="M181.24 140.755C181.24 140.755 177.071 101.632 189.151 101.632" stroke="#263238" stroke-width="0.786702" stroke-linecap="round" stroke-linejoin="round"/>
<path d="M184.828 117.873C183.844 116.768 181.76 116.768 180.532 119.592C179.305 122.417 180.407 121.925 180.407 121.925C180.407 121.925 182.739 121.189 184.214 120.698C185.689 120.206 187.652 118.979 187.774 119.714C187.896 120.45 186.791 121.189 185.441 121.433C184.092 121.677 180.532 122.661 180.898 123.4C181.264 124.14 182.125 126.35 182.125 126.35C183.175 125.458 184.283 124.637 185.441 123.892C187.038 122.912 188.022 123.278 187.16 124.383C186.299 125.489 183.844 126.716 184.336 128.191C184.828 129.666 187.774 131.503 187.774 131.503C187.774 131.503 188.144 128.435 189.001 127.452C189.859 126.468 189.863 127.577 189.615 129.296C189.493 130.027 189.412 130.764 189.371 131.503L192.809 132.734C193.37 131.877 193.985 131.056 194.65 130.276L195.263 129.662C195.263 129.662 192.561 127.33 192.439 125.859C192.317 124.387 194.28 125.859 194.894 126.102C195.507 126.346 196.491 128.069 196.491 128.069C196.491 128.069 197.104 125.249 197.226 124.265L197.352 123.282C197.352 123.282 194.772 122.303 193.788 122.303C192.805 122.303 192.317 123.038 192.317 122.055C192.317 121.071 193.301 120.458 194.406 120.584C195.406 120.751 196.391 120.997 197.352 121.319C197.352 121.319 198.088 120.706 197.84 118.865C197.592 117.024 196.982 117.02 195.507 117.512C194.032 118.003 193.053 119.109 191.967 119.109C190.881 119.109 191.475 117.759 192.215 117.39C192.954 117.02 194.791 116.284 195.161 116.162C195.531 116.04 193.194 114.322 191.967 114.074C190.74 113.826 189.151 114.695 189.269 115.915C189.493 118.487 185.811 118.998 184.828 117.873Z" fill="#C6DC08"/>
<path d="M192.73 130.516C192.77 130.886 192.793 131.255 192.809 131.625" stroke="#263238" stroke-width="0.393351" stroke-linecap="round" stroke-linejoin="round"/>
<path d="M190.264 121.701C191.342 124.133 192.119 126.688 192.577 129.308" stroke="#263238" stroke-width="0.393351" stroke-linecap="round" stroke-linejoin="round"/>
<path d="M189.823 120.713C189.214 119.407 188.757 118.609 188.757 118.609C189.427 118.292 189.984 117.779 190.354 117.138C190.64 116.555 191.061 116.049 191.582 115.663" stroke="#263238" stroke-width="0.393351" stroke-linecap="round" stroke-linejoin="round"/>
<path d="M184.458 122.782C184.458 122.782 188.879 120.942 188.879 121.311" stroke="#263238" stroke-width="0.393351" stroke-linecap="round" stroke-linejoin="round"/>
<path d="M191.334 120.45C191.334 120.45 193.301 119.47 195.02 119.47" stroke="#263238" stroke-width="0.393351" stroke-linecap="round" stroke-linejoin="round"/>
<path d="M190.598 123.396C189.747 124.097 188.966 124.878 188.266 125.729C187.549 126.575 186.969 127.528 186.547 128.553" stroke="#263238" stroke-width="0.393351" stroke-linecap="round" stroke-linejoin="round"/>
<path d="M191.947 123.888C191.947 123.888 194.528 123.152 195.881 124.379" stroke="#263238" stroke-width="0.393351" stroke-linecap="round" stroke-linejoin="round"/>
<path d="M196.62 107.3C195.283 106.513 193.804 106.49 193.08 105.656C192.357 104.822 193.777 104.401 194.54 104.716C195.303 105.031 197.065 105.939 197.395 106.136C197.726 106.333 197.502 103.445 196.88 102.356C196.259 101.266 194.567 100.637 193.733 101.526C191.947 103.402 189.163 100.94 189.355 99.4764C189.548 98.0132 188.175 96.4319 185.241 97.3563C182.306 98.2806 183.396 98.792 183.396 98.792C183.396 98.792 185.481 100.074 186.818 100.861C188.156 101.648 190.358 102.332 189.894 102.906C189.43 103.481 188.14 103.131 187.07 102.273C186 101.416 182.92 99.3702 182.605 100.129C182.291 100.889 181.185 102.989 181.185 102.989C182.546 103.197 183.892 103.495 185.213 103.882C187.003 104.444 187.369 105.428 185.969 105.503C184.568 105.577 182.035 104.527 181.248 105.864C180.462 107.202 181.001 110.636 181.001 110.636C181.001 110.636 183.557 108.901 184.863 108.905C186.169 108.909 185.335 109.637 183.876 110.577C183.243 110.963 182.632 111.384 182.047 111.839L183.372 115.242C184.387 115.103 185.409 115.03 186.433 115.022L187.298 115.081C187.298 115.081 187.298 111.513 188.321 110.455C189.343 109.397 189.528 111.847 189.745 112.469C189.961 113.09 189.308 114.963 189.308 114.963C189.308 114.963 191.845 113.574 192.667 113.023L193.489 112.473C193.489 112.473 192.541 109.881 191.896 109.141C191.251 108.402 190.374 108.512 191.11 107.867C191.845 107.222 192.958 107.564 193.588 108.476C194.118 109.342 194.578 110.248 194.964 111.186C194.964 111.186 195.909 111.34 197.14 109.947C198.371 108.555 197.954 108.091 196.62 107.3ZM185.001 111.234C184.018 110.742 186.35 109.759 186.35 109.759C187.212 109.633 185.98 111.721 185.001 111.23V111.234ZM186.653 106.651C186.236 106.439 187.491 106.022 187.491 106.022C189.304 106.368 187.074 106.856 186.653 106.647V106.651Z" fill="#C6DC08"/>
<path d="M184.973 113.731C184.718 113.999 184.458 114.262 184.187 114.518" stroke="#263238" stroke-width="0.393351" stroke-linecap="round" stroke-linejoin="round"/>
<path d="M190.012 106.089C188.883 108.498 187.463 110.759 185.784 112.823" stroke="#263238" stroke-width="0.393351" stroke-linecap="round" stroke-linejoin="round"/>
<path d="M190.468 105.109C191.055 103.792 191.357 102.926 191.357 102.926C192.036 103.224 192.789 103.307 193.517 103.166C194.143 103 194.8 102.987 195.433 103.127" stroke="#263238" stroke-width="0.393351" stroke-linecap="round" stroke-linejoin="round"/>
<path d="M185.39 102.415C185.39 102.415 189.678 104.547 189.399 104.775" stroke="#263238" stroke-width="0.393351" stroke-linecap="round" stroke-linejoin="round"/>
<path d="M191.656 106.081C191.656 106.081 193.686 106.919 194.803 108.217" stroke="#263238" stroke-width="0.393351" stroke-linecap="round" stroke-linejoin="round"/>
<path d="M188.95 107.454C187.863 107.269 186.76 107.192 185.658 107.222C184.55 107.234 183.451 107.422 182.401 107.776" stroke="#263238" stroke-width="0.393351" stroke-linecap="round" stroke-linejoin="round"/>
<path d="M189.458 108.795C189.458 108.795 191.704 110.262 191.66 112.083" stroke="#263238" stroke-width="0.393351" stroke-linecap="round" stroke-linejoin="round"/>
<path d="M177.543 124.313C176.465 123.675 175.277 123.66 174.691 122.991C174.105 122.322 175.254 121.98 175.871 122.232C176.489 122.484 177.901 123.215 178.172 123.376C178.444 123.538 178.255 121.209 177.755 120.336C177.256 119.463 175.895 118.947 175.21 119.663C173.775 121.174 171.533 119.195 171.67 118.015C171.808 116.835 170.722 115.568 168.358 116.312C165.994 117.055 166.875 117.468 166.875 117.468C166.875 117.468 168.555 118.495 169.629 119.132C170.703 119.769 172.488 120.312 172.107 120.776C171.725 121.241 170.691 120.957 169.829 120.265C168.968 119.573 166.494 117.929 166.242 118.542C165.99 119.156 165.097 120.843 165.097 120.843C166.192 121.012 167.275 121.252 168.339 121.563C169.778 122.011 170.073 122.806 168.948 122.865C167.823 122.924 165.801 122.078 165.144 123.156C164.488 124.234 164.944 126.995 164.944 126.995C164.944 126.995 167.001 125.599 168.051 125.603C169.102 125.607 168.445 126.189 167.265 126.948C166.756 127.26 166.265 127.6 165.794 127.967L166.86 130.701C167.677 130.591 168.501 130.532 169.326 130.524L170.022 130.575C170.022 130.575 170.022 127.703 170.844 126.85C171.666 125.996 171.816 127.971 171.993 128.474C172.17 128.978 171.639 130.48 171.639 130.48C171.639 130.48 173.68 129.363 174.341 128.907L175.002 128.462C175.002 128.462 174.239 126.378 173.72 125.78C173.2 125.182 172.496 125.276 173.094 124.757C173.692 124.238 174.581 124.513 175.088 125.249C175.515 125.945 175.885 126.674 176.198 127.428C176.198 127.428 176.957 127.55 177.948 126.429C178.939 125.308 178.617 124.946 177.543 124.313ZM168.189 127.459C167.402 127.066 169.279 126.279 169.279 126.279C169.971 126.189 168.98 127.868 168.189 127.475V127.459ZM169.522 123.77C169.184 123.601 170.195 123.262 170.195 123.262C171.654 123.561 169.861 123.955 169.522 123.786V123.77Z" fill="#C6DC08"/>
<path d="M168.169 129.485C167.965 129.706 167.752 129.914 167.536 130.119" stroke="#263238" stroke-width="0.393351" stroke-linecap="round" stroke-linejoin="round"/>
<path d="M172.225 123.325C171.316 125.264 170.174 127.085 168.822 128.746" stroke="#263238" stroke-width="0.393351" stroke-linecap="round" stroke-linejoin="round"/>
<path d="M172.591 122.539C173.063 121.477 173.307 120.78 173.307 120.78C173.853 121.021 174.46 121.088 175.045 120.973C175.549 120.84 176.078 120.83 176.587 120.942" stroke="#263238" stroke-width="0.393351" stroke-linecap="round" stroke-linejoin="round"/>
<path d="M168.504 120.383C168.504 120.383 171.953 122.098 171.729 122.291" stroke="#263238" stroke-width="0.393351" stroke-linecap="round" stroke-linejoin="round"/>
<path d="M173.546 123.325C174.497 123.728 175.36 124.312 176.088 125.044" stroke="#263238" stroke-width="0.393351" stroke-linecap="round" stroke-linejoin="round"/>
<path d="M171.363 124.435C170.489 124.288 169.602 124.226 168.716 124.25C167.824 124.26 166.938 124.41 166.092 124.694" stroke="#263238" stroke-width="0.393351" stroke-linecap="round" stroke-linejoin="round"/>
<path d="M171.784 125.516C171.784 125.516 173.59 126.696 173.558 128.163" stroke="#263238" stroke-width="0.393351" stroke-linecap="round" stroke-linejoin="round"/>
<path d="M173.153 104.051C173.153 104.051 171.804 105.031 170.946 104.051C170.089 103.072 171.312 101.105 170.085 100.365C168.858 99.6259 166.895 100.979 166.895 100.979C166.895 100.979 168.488 101.349 168.488 102.206C168.488 103.064 167.752 103.438 167.63 103.068C167.509 102.698 166.647 100.857 165.42 101.719C165.065 101.956 164.763 102.264 164.531 102.622C164.299 102.981 164.142 103.382 164.071 103.803C164.071 103.803 167.017 103.312 167.261 104.417C167.505 105.522 166.033 104.295 164.806 104.295C163.579 104.295 162.474 104.539 162.596 105.278C162.662 105.932 162.662 106.591 162.596 107.245C163.231 106.65 164.058 106.301 164.928 106.262C166.281 106.262 166.281 107.123 165.05 107.123C163.819 107.123 162.843 108.35 162.843 108.35C162.843 108.35 164.071 110.191 165.542 111.053C167.013 111.914 167.509 111.544 167.63 110.805C167.752 110.065 167.261 108.229 168.122 108.229C168.984 108.229 166.895 111.544 168 111.666C169.106 111.788 169.967 111.419 170.207 110.683L170.455 109.947C170.455 109.947 169.963 108.107 170.085 107.367C170.207 106.628 170.455 107.367 170.699 108.229C170.943 109.09 171.19 111.175 171.56 111.053C171.93 110.931 173.031 109.334 173.279 108.72C173.527 108.107 171.56 106.388 171.56 106.018C171.56 105.648 173.031 106.262 173.279 106.632C173.527 107.001 173.771 107.493 173.771 107.493C173.771 107.493 174.628 106.879 174.506 105.16C174.384 103.441 173.153 104.051 173.153 104.051Z" fill="#C6DC08"/>
<path d="M166.277 108.492C167.127 107.312 168.386 105.695 169.471 104.897" stroke="#263238" stroke-width="0.393351" stroke-linecap="round" stroke-linejoin="round"/>
<path d="M165.298 109.952C165.298 109.952 165.514 109.609 165.864 109.098" stroke="#263238" stroke-width="0.393351" stroke-linecap="round" stroke-linejoin="round"/>
<path d="M170.085 105.145C170.085 105.145 171.56 106.986 171.926 108.948" stroke="#263238" stroke-width="0.393351" stroke-linecap="round" stroke-linejoin="round"/>
<path d="M168.61 106.372C168.61 106.372 168.976 106.124 168.976 108.579" stroke="#263238" stroke-width="0.393351" stroke-linecap="round" stroke-linejoin="round"/>
<path d="M169.471 104.051C169.471 104.051 170.207 103.312 169.719 101.963" stroke="#263238" stroke-width="0.393351" stroke-linecap="round" stroke-linejoin="round"/>
<path d="M168.488 105.266L167.874 104.283" stroke="#263238" stroke-width="0.393351" stroke-linecap="round" stroke-linejoin="round"/>
<path d="M167.387 106.372C167.387 106.372 165.542 105.145 164.436 105.145" stroke="#263238" stroke-width="0.393351" stroke-linecap="round" stroke-linejoin="round"/>
<path d="M185.131 130.13C185.131 130.13 183.781 131.114 182.92 130.13C182.059 129.147 183.29 127.184 182.063 126.449C180.835 125.713 178.869 127.062 178.869 127.062C178.869 127.062 180.466 127.428 180.466 128.289C180.466 129.151 179.73 129.517 179.608 129.147C179.486 128.777 178.625 126.936 177.397 127.798C177.042 128.036 176.74 128.344 176.508 128.703C176.276 129.062 176.119 129.465 176.048 129.886C176.048 129.886 178.994 129.395 179.238 130.5C179.482 131.605 178.011 130.374 176.784 130.374C175.557 130.374 174.451 130.622 174.573 131.358C174.64 132.012 174.64 132.67 174.573 133.324C175.209 132.731 176.036 132.384 176.906 132.345C178.255 132.345 178.255 133.202 177.028 133.202C175.8 133.202 174.817 134.43 174.817 134.43C174.817 134.43 176.048 136.274 177.519 137.132C178.99 137.99 179.486 137.624 179.608 136.888C179.73 136.153 179.238 134.308 180.1 134.308C180.961 134.308 178.869 137.624 179.974 137.746C181.079 137.868 181.941 137.502 182.184 136.762L182.432 136.027C182.432 136.027 181.941 134.186 182.063 133.45C182.184 132.715 182.432 133.45 182.676 134.308C182.92 135.165 183.168 137.254 183.534 137.132C183.899 137.01 185.009 135.413 185.253 134.799C185.496 134.186 183.534 132.467 183.534 132.097C183.534 131.727 185.009 132.345 185.253 132.711C185.432 132.989 185.596 133.276 185.744 133.572C185.744 133.572 186.606 132.959 186.484 131.24C186.362 129.521 185.131 130.13 185.131 130.13Z" fill="#C6DC08"/>
<path d="M178.243 134.583C179.089 133.403 180.348 131.787 181.437 130.988" stroke="#263238" stroke-width="0.393351" stroke-linecap="round" stroke-linejoin="round"/>
<path d="M177.264 136.023C177.264 136.023 177.48 135.685 177.83 135.169" stroke="#263238" stroke-width="0.393351" stroke-linecap="round" stroke-linejoin="round"/>
<path d="M182.051 131.236C182.051 131.236 183.522 133.077 183.892 135.04" stroke="#263238" stroke-width="0.393351" stroke-linecap="round" stroke-linejoin="round"/>
<path d="M180.576 132.463C180.576 132.463 180.945 132.219 180.945 134.673" stroke="#263238" stroke-width="0.393351" stroke-linecap="round" stroke-linejoin="round"/>
<path d="M181.437 130.131C181.437 130.131 182.173 129.395 181.681 128.042" stroke="#263238" stroke-width="0.393351" stroke-linecap="round" stroke-linejoin="round"/>
<path d="M180.454 131.357L179.84 130.374" stroke="#263238" stroke-width="0.393351" stroke-linecap="round" stroke-linejoin="round"/>
<path d="M179.348 132.463C179.348 132.463 177.508 131.236 176.402 131.236" stroke="#263238" stroke-width="0.393351" stroke-linecap="round" stroke-linejoin="round"/>
<path d="M185.556 140.346H176.064V154.007H185.556V140.346Z" fill="#263238" stroke="#263238" stroke-width="0.786702" stroke-linecap="round" stroke-linejoin="round"/>
</svg>
