<svg width="200" height="200" viewBox="0 0 200 200" fill="none" xmlns="http://www.w3.org/2000/svg">
<path d="M52 168.4H173.08C174.344 166.968 175.836 164.596 176.204 164.104C179.887 159.128 182.947 153.719 185.316 148C195.028 124.728 193.316 97.672 183.12 74.8C175.56 57.872 162.344 43.26 143.756 35.976C126.608 29.252 102.956 27.508 88.392 39.976C73.828 52.444 76.22 74.46 61.592 86.924C61.192 87.272 60.764 87.608 60.336 87.932C52.368 93.908 41.408 93.78 31.936 96.236C22.108 98.788 13.088 105.168 9.67599 114.236C5.16799 126.236 9.24399 139.972 16.212 150.452C24.712 163.232 37.676 166.88 52 168.4Z" fill="#E7E8EA"/>
<path d="M134.636 31.6H88.2761L87.6641 37.972H134.636V31.6Z" stroke="#A3A3A3" stroke-width="0.4" stroke-miterlimit="10"/>
<path d="M134.636 37.972H88.2761L87.6641 44.348H134.636V37.972Z" stroke="#A3A3A3" stroke-width="0.4" stroke-miterlimit="10"/>
<path d="M134.636 44.348H88.2761L87.6641 50.72H134.636V44.348Z" stroke="#A3A3A3" stroke-width="0.4" stroke-miterlimit="10"/>
<path d="M134.636 50.72H88.2761L87.6641 57.092H134.636V50.72Z" stroke="#A3A3A3" stroke-width="0.4" stroke-miterlimit="10"/>
<path d="M134.636 57.092H88.2761L87.6641 63.468H134.636V57.092Z" stroke="#A3A3A3" stroke-width="0.4" stroke-miterlimit="10"/>
<path d="M134.636 63.468H88.2761L87.6641 69.84H134.636V63.468Z" stroke="#A3A3A3" stroke-width="0.4" stroke-miterlimit="10"/>
<path d="M134.636 69.84H88.2761L87.6641 76.212H134.636V69.84Z" stroke="#A3A3A3" stroke-width="0.4" stroke-miterlimit="10"/>
<path d="M134.636 76.212H88.2761L87.6641 82.588H134.636V76.212Z" stroke="#A3A3A3" stroke-width="0.4" stroke-miterlimit="10"/>
<path d="M134.636 82.588H88.2761L87.6641 88.96H134.636V82.588Z" stroke="#A3A3A3" stroke-width="0.4" stroke-miterlimit="10"/>
<path d="M134.636 88.96H88.2761L87.6641 95.332H134.636V88.96Z" stroke="#A3A3A3" stroke-width="0.4" stroke-miterlimit="10"/>
<path d="M134.636 95.332H88.2761L87.6641 101.708H134.636V95.332Z" stroke="#A3A3A3" stroke-width="0.4" stroke-miterlimit="10"/>
<path d="M134.636 101.708H88.2761L87.6641 108.08H134.636V101.708Z" stroke="#A3A3A3" stroke-width="0.4" stroke-miterlimit="10"/>
<path d="M134.636 108.08H88.2761L87.6641 114.452H134.636V108.08Z" stroke="#A3A3A3" stroke-width="0.4" stroke-miterlimit="10"/>
<path d="M134.636 114.452H88.2761L87.6641 120.828H134.636V114.452Z" stroke="#A3A3A3" stroke-width="0.4" stroke-miterlimit="10"/>
<path d="M134.636 120.828H88.2761L87.6641 127.2H134.636V120.828Z" stroke="#A3A3A3" stroke-width="0.4" stroke-miterlimit="10"/>
<path d="M182.288 31.6H135.932L135.32 37.972H182.288V31.6Z" stroke="#A3A3A3" stroke-width="0.4" stroke-miterlimit="10"/>
<path d="M182.288 37.972H135.932L135.32 44.348H182.288V37.972Z" stroke="#A3A3A3" stroke-width="0.4" stroke-miterlimit="10"/>
<path d="M182.288 44.348H135.932L135.32 50.72H182.288V44.348Z" stroke="#A3A3A3" stroke-width="0.4" stroke-miterlimit="10"/>
<path d="M182.288 50.72H135.932L135.32 57.092H182.288V50.72Z" stroke="#A3A3A3" stroke-width="0.4" stroke-miterlimit="10"/>
<path d="M182.288 57.092H135.932L135.32 63.468H182.288V57.092Z" stroke="#A3A3A3" stroke-width="0.4" stroke-miterlimit="10"/>
<path d="M182.288 63.468H135.932L135.32 69.84H182.288V63.468Z" stroke="#A3A3A3" stroke-width="0.4" stroke-miterlimit="10"/>
<path d="M182.288 69.84H135.932L135.32 76.212H182.288V69.84Z" stroke="#A3A3A3" stroke-width="0.4" stroke-miterlimit="10"/>
<path d="M182.288 76.212H135.932L135.32 82.588H182.288V76.212Z" stroke="#A3A3A3" stroke-width="0.4" stroke-miterlimit="10"/>
<path d="M182.288 82.588H135.932L135.32 88.96H182.288V82.588Z" stroke="#A3A3A3" stroke-width="0.4" stroke-miterlimit="10"/>
<path d="M182.288 88.96H135.932L135.32 95.332H182.288V88.96Z" stroke="#A3A3A3" stroke-width="0.4" stroke-miterlimit="10"/>
<path d="M182.288 95.332H135.932L135.32 101.708H182.288V95.332Z" stroke="#A3A3A3" stroke-width="0.4" stroke-miterlimit="10"/>
<path d="M182.288 101.708H135.932L135.32 108.08H182.288V101.708Z" stroke="#A3A3A3" stroke-width="0.4" stroke-miterlimit="10"/>
<path d="M182.288 108.08H135.932L135.32 114.452H182.288V108.08Z" stroke="#A3A3A3" stroke-width="0.4" stroke-miterlimit="10"/>
<path d="M182.288 114.452H135.932L135.32 120.828H182.288V114.452Z" stroke="#A3A3A3" stroke-width="0.4" stroke-miterlimit="10"/>
<path d="M182.288 120.828H135.932L135.32 127.2H182.288V120.828Z" stroke="#A3A3A3" stroke-width="0.4" stroke-miterlimit="10"/>
<path d="M184.612 26.664H86.58V31.472H184.612V26.664Z" stroke="#A3A3A3" stroke-width="0.4" stroke-miterlimit="10"/>
<path d="M184.612 31.472V116.148" stroke="#A3A3A3" stroke-width="0.4" stroke-miterlimit="10"/>
<path d="M183.544 31.608V89.704" stroke="#A3A3A3" stroke-width="0.4" stroke-miterlimit="10"/>
<path d="M185.304 115.96H183.988V118.116H185.304V115.96Z" fill="#263238" stroke="#A3A3A3" stroke-width="0.4" stroke-miterlimit="10"/>
<path d="M184.12 89.2401H182.8V91.3961H184.12V89.2401Z" fill="#263238" stroke="#A3A3A3" stroke-width="0.4" stroke-miterlimit="10"/>
<path d="M69.6 35.6H19.2V98.4H69.6V35.6Z" stroke="#A3A3A3" stroke-width="0.4" stroke-miterlimit="10"/>
<path d="M68.316 37.2H20.484V96.7999H68.316V37.2Z" stroke="#A3A3A3" stroke-width="0.4" stroke-miterlimit="10"/>
<path d="M53.2 56.0359H35.6V77.968H53.2V56.0359Z" fill="#D6D6D6"/>
<path d="M60.8 158.8C60.8 158.8 60.98 152.364 60.752 146.828C60.524 141.292 60.984 129.42 60.984 129.42" stroke="#263238" stroke-width="0.4" stroke-miterlimit="10"/>
<path d="M60.876 136.408L58.36 134.432" stroke="#263238" stroke-width="0.4" stroke-miterlimit="10"/>
<path d="M60.8521 137.772L61.744 136.324" stroke="#263238" stroke-width="0.4" stroke-miterlimit="10"/>
<path d="M60.644 143.496L62.88 141.652" stroke="#263238" stroke-width="0.4" stroke-miterlimit="10"/>
<path d="M60.984 131.86L59.804 130.788" stroke="#263238" stroke-width="0.4" stroke-miterlimit="10"/>
<path d="M60.624 144.504L59.148 142.92" stroke="#263238" stroke-width="0.4" stroke-miterlimit="10"/>
<path d="M60.756 150.716L57.684 147.916" stroke="#263238" stroke-width="0.4" stroke-miterlimit="10"/>
<path d="M60.832 154.168C61.6159 153.869 62.3778 153.514 63.112 153.108" stroke="#263238" stroke-width="0.4" stroke-miterlimit="10"/>
<path d="M59.1401 137.404C57.9041 136.448 53.768 136.604 52.968 138.604C52.168 140.604 54.6921 143.804 57.1321 143.584C58.0841 143.496 58.496 143.428 58.868 142.896L55.468 139.572L59.148 142.528C59.2547 142.337 59.3392 142.134 59.4001 141.924C59.4441 141.776 59.48 141.62 59.516 141.452C59.752 140.264 60.2921 138.296 59.1401 137.404Z" fill="#C6DC08"/>
<path d="M67.14 135.108C67.1414 135.131 67.1414 135.153 67.14 135.176C66.808 136.652 65.12 137.488 63.7 137.364C63.5026 137.345 63.3073 137.309 63.116 137.256C62.7848 137.785 62.5798 138.383 62.5167 139.004C62.4535 139.624 62.5341 140.251 62.752 140.836C62.8126 141.001 62.8932 141.158 62.992 141.304C63.392 140.964 67.884 137.144 67.884 137.144L63.24 141.62C64.636 143.12 67.924 142.916 69.068 140.136C70.212 137.356 68.752 135.504 67.14 135.108Z" fill="#C6DC08"/>
<path d="M64.864 129.944C62.464 129.412 60.3 130.508 60.34 133.02C60.3494 133.577 60.4732 134.126 60.7037 134.633C60.9342 135.14 61.2665 135.595 61.68 135.968L64.136 132.56L62.048 136.252C62.2445 136.384 62.4535 136.497 62.672 136.588C62.9773 136.712 63.2996 136.789 63.628 136.816C65.044 136.94 66.732 136.104 67.068 134.628C67.44 132.976 67.272 130.472 64.864 129.944Z" fill="#C6DC08"/>
<path d="M62.052 121.2C61.4422 121.445 60.8454 121.721 60.264 122.028C58.724 122.78 57.508 125.228 58.724 127.304C59.1494 128.151 59.8885 128.798 60.784 129.108L61.4 123.108L61.152 129.2C61.269 129.213 61.387 129.213 61.504 129.2C62.504 129.096 64.088 127.9 64.24 125.444C64.392 122.988 62.052 121.2 62.052 121.2Z" fill="#C6DC08"/>
<path d="M55.016 126.648L59.664 130.364C59.7144 130.194 59.7294 130.016 59.708 129.84C59.496 127.712 57.372 126.48 55.968 126.036C54.564 125.592 53.596 126.384 54.496 128.436C55.396 130.488 57.764 131.444 58.82 131.148C59.0708 131.087 59.2952 130.947 59.46 130.748L55.016 126.648Z" fill="#C6DC08"/>
<path d="M58.216 131.412C57.212 131.444 55.588 130.728 54.64 129.348C54.1496 129.306 53.662 129.456 53.28 129.767C52.898 130.077 52.6514 130.523 52.592 131.012C52.12 133.232 53.724 135.552 56.036 135.268C56.755 135.229 57.4375 134.939 57.964 134.448L53.828 130.676L58.252 134.048C58.3399 133.89 58.3956 133.716 58.416 133.536C58.5596 132.824 58.49 132.085 58.216 131.412Z" fill="#C6DC08"/>
<path d="M58.192 143.74C57.8117 143.904 57.4055 144 56.992 144.024C55.48 144.164 53.94 142.98 53.172 141.588C52.244 141.74 51.504 142.236 51.324 143.252C50.868 145.848 53.268 149.252 55.696 148.728C56.3275 148.603 56.9118 148.305 57.384 147.868L52.084 142.772L57.684 147.524C58.0051 147.113 58.2121 146.625 58.284 146.108C58.5519 145.335 58.519 144.49 58.192 143.74Z" fill="#C6DC08"/>
<path d="M68.852 149.064C67.072 147.004 64.948 148.848 64.948 148.848C64.948 148.848 63.648 149.28 63.16 151.12C63.0045 151.68 63.0269 152.274 63.224 152.82L68.584 149.696L63.352 153.112C63.84 154.036 64.904 154.604 66.364 154.192C68.724 153.532 70.636 151.128 68.852 149.064Z" fill="#C6DC08"/>
<path d="M64.412 156.864H56.992V167.852H64.412V156.864Z" fill="#263238"/>
<path d="M122.236 124.872L121.948 122.648C121.636 120.528 120.828 114.976 120.828 114.44C120.828 113.78 117.764 111.876 117.764 111.876L114.076 117.124L111.544 122.064C111.544 122.064 113.172 123.54 114.616 124.624C115.559 125.301 116.63 125.78 117.764 126.032L125.144 151.344L130.108 141.312L122.236 124.872Z" fill="white" stroke="#263238" stroke-width="0.4" stroke-linecap="round" stroke-linejoin="round"/>
<path d="M115.516 104.124L110.211 104.386C109.116 104.44 108.273 105.37 108.327 106.465L109.033 120.799C109.087 121.894 110.018 122.737 111.112 122.683L116.418 122.422C117.512 122.368 118.356 121.437 118.302 120.343L117.596 106.008C117.542 104.914 116.611 104.07 115.516 104.124Z" fill="white" stroke="#263238" stroke-width="0.4" stroke-linecap="round" stroke-linejoin="round"/>
<path d="M116.098 104.08L110.792 104.341C109.698 104.395 108.854 105.326 108.908 106.42L109.614 120.755C109.668 121.849 110.599 122.693 111.693 122.639L116.999 122.378C118.093 122.324 118.937 121.393 118.883 120.298L118.177 105.964C118.123 104.869 117.192 104.026 116.098 104.08Z" fill="#263238" stroke="#263238" stroke-width="0.4" stroke-linecap="round" stroke-linejoin="round"/>
<path d="M117.9 106.592C117.875 106.144 117.7 105.717 117.403 105.381C117.107 105.044 116.705 104.817 116.264 104.736L115.628 105.6L111.988 105.828L110.852 105.068L115.848 104.724H115.82L111.124 104.956C110.6 104.986 110.108 105.221 109.756 105.61C109.403 105.999 109.218 106.511 109.24 107.036L109.888 120.164C109.918 120.688 110.153 121.18 110.542 121.532C110.931 121.885 111.443 122.07 111.968 122.048L116.66 121.816C117.184 121.786 117.676 121.551 118.028 121.162C118.381 120.773 118.566 120.261 118.544 119.736L117.9 106.592Z" fill="#C6DC08" stroke="#263238" stroke-width="0.4" stroke-linecap="round" stroke-linejoin="round"/>
<path d="M120.464 125.32C119.76 125.231 119.106 124.91 118.604 124.408C118.102 123.906 117.781 123.252 117.692 122.548C117.328 120.016 118.536 117.124 118.536 117.124C117.727 116.654 116.88 116.252 116.004 115.924C114.676 115.44 115.64 112.908 116.124 113.632C116.608 114.356 119.98 114.832 120.944 115.44C121.908 116.048 122.144 119.54 122.144 119.54L122.228 124.876" fill="white"/>
<path d="M120.464 125.32C119.76 125.231 119.106 124.91 118.604 124.408C118.102 123.906 117.781 123.252 117.692 122.548C117.328 120.016 118.536 117.124 118.536 117.124C117.727 116.654 116.88 116.252 116.004 115.924C114.676 115.44 115.64 112.908 116.124 113.632C116.608 114.356 119.98 114.832 120.944 115.44C121.908 116.048 122.144 119.54 122.144 119.54L122.228 124.876" stroke="#263238" stroke-width="0.4" stroke-linecap="round" stroke-linejoin="round"/>
<path d="M155.504 168.4L167.6 136.704C168.083 135.44 168.057 134.039 167.528 132.794C166.999 131.549 166.008 130.558 164.764 130.028C163.495 129.489 162.065 129.472 160.785 129.982C159.504 130.491 158.476 131.485 157.924 132.748L142.376 168.4H155.504Z" fill="#263238" stroke="#263238" stroke-width="0.4" stroke-linecap="round" stroke-linejoin="round"/>
<path d="M125.068 154C124.596 154.356 115.024 165.792 112.844 168.4H140.8C142.484 166.06 149.244 156.476 152.148 149.732C155.484 142 155.748 132.8 155.084 130C154.42 127.2 153.748 125.2 153.748 125.2C153.748 125.2 140.8 127.468 134 131.068C134 131.068 125.732 137.468 124.132 141.6C122.532 145.732 125.6 153.6 125.068 154Z" fill="#C6DC08" stroke="#263238" stroke-width="0.4" stroke-linecap="round" stroke-linejoin="round"/>
<path d="M147.968 149.356C148.276 148.556 148.564 147.756 148.828 146.956C150.064 143.18 151.628 138.628 150.8 134.628C150 130.76 145.068 131.16 142.268 133.292C139.468 135.424 137.468 140.492 136.268 144.892C135.068 149.292 129.976 159.34 129.976 159.34C129.976 159.34 111.708 155.472 109.576 154.672C107.444 153.872 104.508 152.54 102.508 150.672C100.508 148.804 95.176 146.004 93.308 143.872C91.44 141.74 91.176 142.404 91.308 143.204C91.44 144.004 92.376 144.94 93.04 145.74C93.6705 146.442 94.3381 147.11 95.04 147.74C95.04 147.74 91.976 147.072 90.508 146.54C89.04 146.008 88.376 145.204 87.976 145.872C87.576 146.54 87.976 147.34 89.308 148.004C90.64 148.668 95.84 150.14 95.84 150.14H90.508C89.44 150.14 87.976 150.804 88.64 151.472C89.304 152.14 92.64 151.74 93.576 151.74H96.376C96.376 151.74 92.64 153.072 91.576 153.204C90.512 153.336 90.64 154.404 91.44 154.54C92.24 154.676 97.976 153.472 97.976 153.472C97.976 153.472 100.376 155.34 101.44 155.604C102.408 155.785 103.391 155.874 104.376 155.872C104.376 155.872 113.976 162.272 121.176 164.804C126.124 166.548 135.356 171.368 139.284 165.808C142.072 161.856 146.24 153.836 147.968 149.356Z" fill="white" stroke="#263238" stroke-width="0.4" stroke-linecap="round" stroke-linejoin="round"/>
<path d="M144.54 92.088C144.54 92.088 141.684 95.8 141.396 97.8C141.108 99.8 141.54 100.94 140.54 101.512C139.54 102.084 136.54 102.08 136.116 103.512C135.692 104.944 137.684 107.512 137.684 107.512C137.684 107.512 137.972 113.936 138.544 115.36C139.116 116.784 144.252 117.076 144.252 117.076L143.396 123.2L151.82 120.632L154.104 112.352C154.104 112.352 157.388 110.924 158.528 106.352C159.668 101.78 157.672 97.072 152.676 94.076C147.68 91.08 144.54 92.088 144.54 92.088Z" fill="white" stroke="#263238" stroke-width="0.4" stroke-linecap="round" stroke-linejoin="round"/>
<path d="M144.252 117.072L148.536 117.516L143.964 119.928L144.252 117.072Z" fill="#263238" stroke="#263238" stroke-width="0.4" stroke-linecap="round" stroke-linejoin="round"/>
<path d="M139.828 108.364C139.828 108.364 142.54 108.792 143.968 106.936" stroke="#263238" stroke-width="0.4" stroke-linecap="round" stroke-linejoin="round"/>
<path d="M143.56 101.116C143.348 101.644 142.928 101.976 142.62 101.852C142.312 101.728 142.22 101.2 142.448 100.672C142.676 100.144 143.084 99.808 143.388 99.932C143.692 100.056 143.772 100.584 143.56 101.116Z" fill="#263238"/>
<path d="M143.224 97.2C143.224 97.2 144.8 96.22 145.836 98.18" stroke="#263238" stroke-width="0.4" stroke-linecap="round" stroke-linejoin="round"/>
<path d="M140.772 108.46C140.772 108.46 140.72 110.688 141.536 110.636C142.352 110.584 143.332 107.64 143.332 107.64C143.332 107.64 142.732 108.348 140.772 108.46Z" fill="#263238" stroke="#263238" stroke-width="0.4" stroke-linecap="round" stroke-linejoin="round"/>
<path d="M153.332 119.6C153.332 119.6 142.668 123.6 139.468 124.668C136.268 125.736 133.068 132.268 133.068 132.268C133.068 132.268 148.932 126.932 151.868 126.132L154.132 125.868C154.132 125.868 154.8 120.4 153.332 119.6Z" fill="white" stroke="#263238" stroke-width="0.4" stroke-linecap="round" stroke-linejoin="round"/>
<path d="M159.736 85.656C159.736 85.656 159.36 85.844 160.68 83.02C162 80.196 155.588 77.552 148.24 79.82C140.892 82.088 141.84 88.116 142.772 90.944C143.704 93.772 149.172 93.204 148.992 95.088C148.812 96.972 147.672 98.86 149.748 100.556C151.824 102.252 150.124 101.876 150.688 102.82C151.252 103.764 153.14 103.196 153.704 103.572C154.268 103.948 155.776 105.268 154.08 107.908C152.384 110.548 150.5 110.168 150.88 113.184C151.26 116.2 152.012 119.028 155.972 120.16C159.932 121.292 163.32 121.48 163.888 118.276C164.456 115.072 162.38 114.316 164.64 112.996C166.9 111.676 173.124 111.112 173.876 104.892C174.628 98.672 173.12 93.008 168.8 89.428C166.226 87.2886 163.068 85.9742 159.736 85.656Z" fill="#263238" stroke="#263238" stroke-width="0.4" stroke-linecap="round" stroke-linejoin="round"/>
<path d="M156.26 116.768C157.224 118.484 159.172 119.228 160.26 118.828C161.86 118.22 162.076 115.192 160.056 114.788C158.036 114.384 157.432 115.588 158.456 116.604" stroke="#9C9C9C" stroke-width="0.4" stroke-linecap="round" stroke-linejoin="round"/>
<path d="M148.58 90.2161C149.592 91.8161 152.048 92.8681 156.404 94.1881C163.068 96.2081 164.684 101.46 163.068 104.084C161.452 106.708 156.604 109.336 155.796 113.372C155.668 113.992 155.648 114.629 155.736 115.256" stroke="#9C9C9C" stroke-width="0.4" stroke-linecap="round" stroke-linejoin="round"/>
<path d="M153.372 86.112C153.372 86.112 155.796 85.908 154.572 83.888C153.348 81.868 148.716 83.488 148.112 87.12C148.004 87.6817 147.987 88.2569 148.06 88.824" stroke="#9C9C9C" stroke-width="0.4" stroke-linecap="round" stroke-linejoin="round"/>
<path d="M163.388 93.412C165.472 94.512 168.02 96.6641 168.316 100.652C168.716 106.104 166.296 107.92 162.26 110.344C158.224 112.768 160.036 114.8 160.036 114.8" stroke="#9C9C9C" stroke-width="0.4" stroke-linecap="round" stroke-linejoin="round"/>
<path d="M160.644 92.3721C161.191 92.4976 161.726 92.6688 162.244 92.8841" stroke="#9C9C9C" stroke-width="0.4" stroke-linecap="round" stroke-linejoin="round"/>
<path d="M107.78 45.724C104.759 46.6326 102.006 48.2636 99.7574 50.4757C97.509 52.6879 95.8335 55.4147 94.876 58.42" stroke="#263238" stroke-width="0.4" stroke-miterlimit="10"/>
<path d="M117.392 45.344C116.059 45.0589 114.699 44.9154 113.336 44.916C112.425 44.917 111.514 44.9811 110.612 45.108" stroke="#263238" stroke-width="0.4" stroke-miterlimit="10"/>
<path d="M131.828 70.032C133.313 65.2354 132.88 60.0497 130.62 55.566C128.359 51.0823 124.447 47.6503 119.708 45.992" stroke="#263238" stroke-width="0.4" stroke-miterlimit="10"/>
<path d="M130.04 74.076C130.575 73.1687 131.033 72.2188 131.412 71.236" stroke="#263238" stroke-width="0.4" stroke-miterlimit="10"/>
<path d="M105.232 81.872C108.746 83.4874 112.662 84.0147 116.478 83.386C120.294 82.7572 123.834 81.0013 126.644 78.344" stroke="#263238" stroke-width="0.4" stroke-miterlimit="10"/>
<path d="M102.164 80.096C102.736 80.4996 103.329 80.8734 103.94 81.216" stroke="#263238" stroke-width="0.4" stroke-miterlimit="10"/>
<path d="M94.22 61.2C93.6905 64.4879 94.0178 67.8567 95.1705 70.9811C96.3231 74.1055 98.2621 76.8798 100.8 79.036" stroke="#263238" stroke-width="0.4" stroke-miterlimit="10"/>
<path d="M113.336 81.8C123.012 81.8 130.856 73.956 130.856 64.28C130.856 54.604 123.012 46.76 113.336 46.76C103.66 46.76 95.816 54.604 95.816 64.28C95.816 73.956 103.66 81.8 113.336 81.8Z" fill="white" stroke="#263238" stroke-width="0.4" stroke-miterlimit="10"/>
<path d="M124.108 75.904H104.612C104.344 75.9039 104.085 75.8072 103.882 75.6317C103.679 75.4561 103.546 75.2134 103.508 74.948L100.044 52.372H95.7079C95.413 52.372 95.1302 52.2549 94.9216 52.0463C94.7131 51.8378 94.5959 51.5549 94.5959 51.26C94.5959 50.9651 94.7131 50.6822 94.9216 50.4737C95.1302 50.2652 95.413 50.148 95.7079 50.148H101.008C101.276 50.1483 101.534 50.2451 101.736 50.4207C101.938 50.5963 102.07 50.8389 102.108 51.104L105.576 73.68H124.108C124.403 73.68 124.686 73.7972 124.894 74.0057C125.103 74.2142 125.22 74.4971 125.22 74.792C125.22 75.0869 125.103 75.3698 124.894 75.5783C124.686 75.7869 124.403 75.904 124.108 75.904Z" fill="white" stroke="#263238" stroke-width="0.4" stroke-linecap="round" stroke-linejoin="round"/>
<path d="M96.144 49.864H94.324C93.5861 49.864 92.988 50.4622 92.988 51.2V51.36C92.988 52.0979 93.5861 52.696 94.324 52.696H96.144C96.8818 52.696 97.48 52.0979 97.48 51.36V51.2C97.48 50.4622 96.8818 49.864 96.144 49.864Z" fill="#263238" stroke="#263238" stroke-width="0.4" stroke-linecap="round" stroke-linejoin="round"/>
<path d="M102.944 71.212H105.116L104.868 69.624H102.692L102.944 71.212Z" fill="#263238" stroke="#263238" stroke-width="0.4" stroke-linecap="round" stroke-linejoin="round"/>
<path d="M123.716 70.124H102.46L100.584 55.5H125.592L123.716 70.124Z" fill="#C6DC08" stroke="#263238" stroke-width="0.4" stroke-linecap="round" stroke-linejoin="round"/>
<path d="M107.764 68.532C107.624 68.532 107.486 68.5045 107.357 68.451C107.228 68.3975 107.11 68.3192 107.012 68.2204C106.913 68.1216 106.834 68.0043 106.781 67.8752C106.727 67.7461 106.7 67.6077 106.7 67.468V60.096C106.7 59.8135 106.812 59.5424 107.011 59.3422C107.211 59.1421 107.481 59.0291 107.764 59.028C108.047 59.0291 108.317 59.1421 108.517 59.3422C108.716 59.5424 108.828 59.8135 108.828 60.096V67.468C108.828 67.6077 108.8 67.7461 108.747 67.8752C108.693 68.0043 108.615 68.1216 108.516 68.2204C108.418 68.3192 108.3 68.3975 108.171 68.451C108.042 68.5045 107.904 68.532 107.764 68.532Z" fill="white" stroke="#263238" stroke-width="0.4" stroke-linecap="round" stroke-linejoin="round"/>
<path d="M111.532 68.532C111.25 68.532 110.979 68.4199 110.78 68.2204C110.58 68.0208 110.468 67.7502 110.468 67.468V60.096C110.468 59.8135 110.58 59.5424 110.779 59.3422C110.979 59.1421 111.249 59.0291 111.532 59.028C111.815 59.0291 112.085 59.1421 112.285 59.3422C112.484 59.5424 112.596 59.8135 112.596 60.096V67.468C112.596 67.7502 112.484 68.0208 112.284 68.2204C112.085 68.4199 111.814 68.532 111.532 68.532Z" fill="white" stroke="#263238" stroke-width="0.4" stroke-linecap="round" stroke-linejoin="round"/>
<path d="M115.3 68.532C115.16 68.532 115.022 68.5045 114.893 68.451C114.764 68.3975 114.646 68.3192 114.548 68.2204C114.449 68.1216 114.37 68.0043 114.317 67.8752C114.263 67.7461 114.236 67.6077 114.236 67.468V60.096C114.236 59.8135 114.348 59.5424 114.547 59.3422C114.747 59.1421 115.017 59.0291 115.3 59.028C115.583 59.0291 115.853 59.1421 116.053 59.3422C116.252 59.5424 116.364 59.8135 116.364 60.096V67.468C116.364 67.6077 116.336 67.7461 116.283 67.8752C116.23 68.0043 116.151 68.1216 116.052 68.2204C115.954 68.3192 115.836 68.3975 115.707 68.451C115.578 68.5045 115.44 68.532 115.3 68.532Z" fill="white" stroke="#263238" stroke-width="0.4" stroke-linecap="round" stroke-linejoin="round"/>
<path d="M119.068 68.532C118.786 68.532 118.515 68.4199 118.316 68.2204C118.116 68.0208 118.004 67.7502 118.004 67.468V60.096C118.004 59.8135 118.116 59.5424 118.315 59.3422C118.515 59.1421 118.785 59.0291 119.068 59.028C119.351 59.0291 119.621 59.1421 119.821 59.3422C120.02 59.5424 120.132 59.8135 120.132 60.096V67.468C120.132 67.7502 120.02 68.0208 119.82 68.2204C119.621 68.4199 119.35 68.532 119.068 68.532Z" fill="white" stroke="#263238" stroke-width="0.4" stroke-linecap="round" stroke-linejoin="round"/>
<path d="M109.204 78.42C110.651 78.42 111.824 77.247 111.824 75.8C111.824 74.353 110.651 73.18 109.204 73.18C107.757 73.18 106.584 74.353 106.584 75.8C106.584 77.247 107.757 78.42 109.204 78.42Z" fill="#263238" stroke="#263238" stroke-width="0.4" stroke-linecap="round" stroke-linejoin="round"/>
<path d="M109.204 76.924C109.825 76.924 110.328 76.4208 110.328 75.8C110.328 75.1793 109.825 74.676 109.204 74.676C108.583 74.676 108.08 75.1793 108.08 75.8C108.08 76.4208 108.583 76.924 109.204 76.924Z" fill="white" stroke="#263238" stroke-width="0.4" stroke-linecap="round" stroke-linejoin="round"/>
<path d="M118.072 78.42C119.519 78.42 120.692 77.247 120.692 75.8C120.692 74.353 119.519 73.18 118.072 73.18C116.625 73.18 115.452 74.353 115.452 75.8C115.452 77.247 116.625 78.42 118.072 78.42Z" fill="#263238" stroke="#263238" stroke-width="0.4" stroke-linecap="round" stroke-linejoin="round"/>
<path d="M119.2 75.8C119.2 75.5777 119.134 75.3604 119.011 75.1756C118.887 74.9907 118.711 74.8467 118.506 74.7616C118.301 74.6765 118.075 74.6543 117.857 74.6976C117.639 74.741 117.438 74.848 117.281 75.0052C117.124 75.1624 117.017 75.3627 116.974 75.5807C116.93 75.7988 116.952 76.0248 117.038 76.2302C117.123 76.4356 117.267 76.6111 117.452 76.7346C117.636 76.8581 117.854 76.924 118.076 76.924C118.224 76.9246 118.37 76.8958 118.507 76.8395C118.643 76.7832 118.767 76.7005 118.872 76.596C118.976 76.4915 119.059 76.3674 119.115 76.2308C119.172 76.0942 119.2 75.9478 119.2 75.8Z" fill="white" stroke="#263238" stroke-width="0.4" stroke-linecap="round" stroke-linejoin="round"/>
<path d="M122.784 57.884H125.096" stroke="#263238" stroke-width="0.4" stroke-linecap="round" stroke-linejoin="round"/>
<path d="M119.888 57.884H121.528" stroke="#263238" stroke-width="0.4" stroke-linecap="round" stroke-linejoin="round"/>
<path d="M101.176 57.884H118.632" stroke="#263238" stroke-width="0.4" stroke-linecap="round" stroke-linejoin="round"/>
<path d="M113.336 81.8V102.396" stroke="#263238" stroke-width="0.4" stroke-miterlimit="10"/>
<path d="M113.336 103.512C113.952 103.512 114.452 103.012 114.452 102.396C114.452 101.78 113.952 101.28 113.336 101.28C112.72 101.28 112.22 101.78 112.22 102.396C112.22 103.012 112.72 103.512 113.336 103.512Z" fill="#263238" stroke="#263238" stroke-width="0.4" stroke-linecap="round" stroke-linejoin="round"/>
<path d="M125.868 61.892C128.629 61.892 130.868 59.6535 130.868 56.892C130.868 54.1306 128.629 51.892 125.868 51.892C123.107 51.892 120.868 54.1306 120.868 56.892C120.868 59.6535 123.107 61.892 125.868 61.892Z" fill="#C6DC08"/>
<path d="M125.868 62.492C124.76 62.492 123.678 62.1636 122.757 61.5482C121.836 60.9329 121.118 60.0583 120.694 59.035C120.27 58.0118 120.159 56.8858 120.376 55.7995C120.592 54.7132 121.125 53.7154 121.908 52.9322C122.691 52.149 123.689 51.6157 124.775 51.3996C125.862 51.1835 126.988 51.2944 128.011 51.7183C129.034 52.1421 129.909 52.8599 130.524 53.7808C131.14 54.7017 131.468 55.7844 131.468 56.892C131.468 58.3772 130.878 59.8016 129.828 60.8518C128.778 61.902 127.353 62.492 125.868 62.492ZM125.868 52.492C124.998 52.492 124.147 52.75 123.423 53.2335C122.7 53.717 122.136 54.4042 121.803 55.2082C121.47 56.0122 121.383 56.8969 121.552 57.7504C121.722 58.6039 122.141 59.3879 122.757 60.0033C123.372 60.6186 124.156 61.0377 125.01 61.2074C125.863 61.3772 126.748 61.2901 127.552 60.9571C128.356 60.624 129.043 60.0601 129.526 59.3365C130.01 58.6129 130.268 57.7622 130.268 56.892C130.268 55.725 129.804 54.6059 128.979 53.7807C128.154 52.9556 127.035 52.492 125.868 52.492Z" fill="#263238"/>
<path d="M126.196 58.716H126.152C126.056 58.71 125.963 58.6807 125.88 58.6305C125.798 58.5803 125.729 58.5108 125.68 58.428L123.752 55.2C123.707 55.1324 123.676 55.0563 123.661 54.9763C123.645 54.8964 123.647 54.8142 123.665 54.7348C123.682 54.6553 123.716 54.5804 123.764 54.5144C123.811 54.4484 123.872 54.3928 123.942 54.351C124.012 54.3092 124.089 54.282 124.17 54.2711C124.25 54.2602 124.332 54.2658 124.411 54.2876C124.489 54.3094 124.562 54.3469 124.626 54.3979C124.689 54.4488 124.742 54.5121 124.78 54.584L126.268 57.068L130.4 51.916C130.5 51.7919 130.645 51.7124 130.803 51.6952C130.961 51.6779 131.12 51.7243 131.244 51.824C131.368 51.9237 131.448 52.0687 131.465 52.2269C131.482 52.3852 131.436 52.5439 131.336 52.668L126.664 58.492C126.607 58.5613 126.536 58.6173 126.455 58.656C126.374 58.6947 126.286 58.7152 126.196 58.716Z" fill="white"/>
<path d="M66 108.984C66 108.984 69.064 108.108 69.564 107.856C70.064 107.604 72.5 104.98 72.5 104.608C72.5 104.236 71.624 104.42 70.94 104.792C70.256 105.164 68.14 107.48 68.14 107.48L66 108.984Z" fill="white" stroke="#263238" stroke-width="0.4" stroke-linecap="round" stroke-linejoin="round"/>
<path d="M64.0599 109.732C64.0599 109.732 68.1239 107.92 68.5639 107.608C69.0039 107.296 70.8119 105.42 70.9399 104.808C71.0679 104.196 69.6879 104.372 69.3119 104.56C68.9359 104.748 66.6879 106.996 66.4359 107.248C66.1839 107.5 63.6359 109.624 63.6359 109.624C63.6359 109.624 62.7999 110.044 64.0599 109.732Z" fill="white" stroke="#263238" stroke-width="0.4" stroke-linecap="round" stroke-linejoin="round"/>
<path d="M49.372 110.692C49.372 110.692 53.372 106.532 54.128 106.084C54.884 105.636 63.788 105.64 63.788 105.64C63.788 105.64 68.096 104.44 68.84 104.3C69.584 104.16 69.436 105.64 68.396 106.236C67.356 106.832 64.232 109.652 63.044 110.396C61.856 111.14 54.276 112.18 54.276 112.18L50.56 116.636L46.696 114.26L49.372 110.692Z" fill="white" stroke="#263238" stroke-width="0.4" stroke-linecap="round" stroke-linejoin="round"/>
<path d="M63.788 105.64C63.788 105.64 65.688 105.42 65.5 105.98C65.312 106.54 64.624 107.732 63.312 107.796L57.936 108.044" fill="white"/>
<path d="M63.788 105.64C63.788 105.64 65.688 105.42 65.5 105.98C65.312 106.54 64.624 107.732 63.312 107.796L57.936 108.044" stroke="#263238" stroke-width="0.4" stroke-linecap="round" stroke-linejoin="round"/>
<path d="M46.696 114.26C46.696 114.26 43.332 114 42.668 114.4C42.004 114.8 33.6 124.268 33.6 124.268L36.632 138.828C36.496 139.416 50.3 125 52.268 120.668C53.116 118.796 51.068 116.532 51.068 116.532L46.696 114.26Z" fill="#C6DC08" stroke="#263238" stroke-width="0.4" stroke-linecap="round" stroke-linejoin="round"/>
<path d="M47.7 110.444L54.38 115.092L51.548 118.476L45.14 114.12L47.7 110.444Z" fill="#C6DC08" stroke="#263238" stroke-width="0.4" stroke-linecap="round" stroke-linejoin="round"/>
<path d="M75.5101 98.0477C75.0188 97.4204 67.8417 97.0257 61.2607 96.7849C55.4987 96.5737 48.4854 96.6326 47.8302 97.0716C47.3208 97.4155 47.3995 99.0124 47.7319 99.5284C48.0644 100.044 49.0127 100.428 49.5729 100.511C51.6481 100.826 58.8055 102.196 60.9872 102.295C63.1688 102.393 66.0318 102.401 68.4853 102.295C70.4803 102.21 74.6224 102.034 75.5069 100.582C75.8394 100.041 75.6936 98.2803 75.5101 98.0477Z" fill="#C6DC08"/>
<mask id="mask0_11243_4832" style="mask-type:luminance" maskUnits="userSpaceOnUse" x="47" y="96" width="29" height="7">
<path d="M75.5101 98.0477C75.0188 97.4204 67.8417 97.0257 61.2607 96.7849C55.4987 96.5737 48.4854 96.6326 47.8302 97.0716C47.3208 97.4155 47.3995 99.0124 47.7319 99.5284C48.0644 100.044 49.0127 100.428 49.5729 100.511C51.6481 100.826 58.8055 102.196 60.9872 102.295C63.1688 102.393 66.0318 102.401 68.4853 102.295C70.4803 102.21 74.6224 102.034 75.5069 100.582C75.8394 100.041 75.6936 98.2803 75.5101 98.0477Z" fill="white"/>
</mask>
<g mask="url(#mask0_11243_4832)">
<path opacity="0.2" d="M47.5796 97.4499C47.6228 97.3005 47.7116 97.1682 47.8335 97.0716C48.4886 96.6293 55.5036 96.5802 61.264 96.7833C67.84 97.0241 75.022 97.4172 75.5134 98.0461C75.0712 98.8306 73.3645 99.7151 72.4096 99.869C70.8846 100.076 69.3479 100.185 67.8089 100.197C66.3086 100.197 62.0763 99.9591 60.0716 99.869C58.0668 99.779 55.0958 99.6119 54.1753 99.2548C53.2548 98.8978 49.5385 98.5211 48.3461 98.0445C48.0296 97.9408 47.7587 97.7307 47.5796 97.4499Z" fill="black" fill-opacity="0.7"/>
<path opacity="0.2" d="M75.6461 100.177C75.6242 100.318 75.5782 100.454 75.5102 100.58C74.6257 102.033 70.4852 102.208 68.4886 102.295C66.0318 102.4 63.1721 102.393 60.9905 102.295C58.8088 102.196 51.6546 100.821 49.5762 100.509C49.016 100.424 48.0726 100.049 47.7352 99.5267C47.5667 99.1905 47.4776 98.8201 47.4748 98.4441C48.2053 99.381 48.5083 99.8543 51.4057 100.393C54.3375 100.94 66.6771 102.098 71.4106 101.62C74.0377 101.358 75.1711 100.708 75.6461 100.177Z" fill="black" fill-opacity="0.7"/>
<path d="M61.3181 99.8953C61.5637 99.9116 61.8094 99.9264 62.0567 99.9395" stroke="#263238" stroke-width="0.163787" stroke-linecap="round" stroke-linejoin="round"/>
<path d="M53.661 99.1761C56.0261 99.5578 58.4108 99.8542 60.807 99.864" stroke="#263238" stroke-width="0.163787" stroke-linecap="round" stroke-linejoin="round"/>
<path d="M47.5797 97.45C47.9645 98.1657 48.9456 98.2197 49.6368 98.4327C50.7194 98.7602 51.8987 98.8831 53.0174 99.0698" stroke="#263238" stroke-width="0.163787" stroke-linecap="round" stroke-linejoin="round"/>
<path d="M66.9703 100.247C66.8065 100.247 66.6345 100.234 66.4675 100.224" stroke="#263238" stroke-width="0.163787" stroke-linecap="round" stroke-linejoin="round"/>
<path d="M68.8375 100.231C68.6131 100.241 68.3903 100.247 68.166 100.252" stroke="#263238" stroke-width="0.163787" stroke-linecap="round" stroke-linejoin="round"/>
<path d="M75.5101 98.0476C74.6552 99.7772 72.431 100.026 70.7227 100.133" stroke="#263238" stroke-width="0.163787" stroke-linecap="round" stroke-linejoin="round"/>
</g>
<path d="M75.5101 98.0477C75.0188 97.4204 67.8417 97.0257 61.2607 96.7849C55.4987 96.5737 48.4854 96.6326 47.8302 97.0716C47.3208 97.4155 47.3995 99.0124 47.7319 99.5284C48.0644 100.044 49.0127 100.428 49.5729 100.511C51.6481 100.826 58.8055 102.196 60.9872 102.295C63.1688 102.393 66.0318 102.401 68.4853 102.295C70.4803 102.21 74.6224 102.034 75.5069 100.582C75.8394 100.041 75.6936 98.2803 75.5101 98.0477Z" stroke="#263238" stroke-width="0.163787" stroke-linecap="round" stroke-linejoin="round"/>
<path d="M48.3658 94.2478C48.3658 94.2478 47.8073 95.2224 47.9957 95.509C48.184 95.7956 48.0677 96.9241 47.9957 97.2042C47.9236 97.4843 48.8146 98.0477 49.5025 97.8839C50.1904 97.7201 51.7742 98.4293 52.3196 98.3409C52.865 98.2524 53.6823 98.5047 54.1377 98.6062C54.593 98.7077 55.4103 99.2892 55.9557 99.1598C56.5011 99.0304 57.1366 99.1598 57.5002 99.1598C57.8638 99.1598 58.0915 99.1598 58.8105 99.1795C59.5295 99.1991 60.355 99.6233 60.6727 99.4497C60.9905 99.2761 62.3106 99.5005 62.6726 99.4497C63.0345 99.3989 64.8018 99.5431 65.2407 99.4906C65.6797 99.4382 66.2628 99.5414 66.4446 99.4497C66.6264 99.358 67.1259 99.5234 67.3995 99.5021C67.8484 99.4315 68.3042 99.4139 68.7572 99.4497C69.3076 99.5218 69.2175 99.6512 70.1265 99.5038C71.0355 99.3563 71.4057 99.4497 71.4057 99.4497C71.4057 99.4497 72.1329 99.2859 72.5604 99.1598C72.9879 99.0337 73.1582 99.453 73.5283 99.1598C73.8985 98.8666 74.0345 98.7143 74.2163 98.6062C74.3981 98.4981 74.611 98.1918 74.7076 98.2131C74.7756 98.2093 74.8404 98.1829 74.8917 98.1381C74.943 98.0933 74.978 98.0327 74.991 97.9658C74.991 97.843 75.2579 97.463 75.1728 96.8602C75.0876 96.2575 75.1973 94.4034 74.7076 93.7892C74.2179 93.175 53.6381 91.47 48.3658 94.2478Z" fill="#263238"/>
<mask id="mask1_11243_4832" style="mask-type:luminance" maskUnits="userSpaceOnUse" x="47" y="92" width="29" height="8">
<path d="M48.3658 94.2478C48.3658 94.2478 47.8073 95.2224 47.9957 95.509C48.184 95.7956 48.0677 96.9241 47.9957 97.2042C47.9236 97.4843 48.8146 98.0477 49.5025 97.8839C50.1904 97.7201 51.7742 98.4293 52.3196 98.3409C52.865 98.2524 53.6823 98.5047 54.1377 98.6062C54.593 98.7077 55.4103 99.2892 55.9557 99.1598C56.5011 99.0304 57.1366 99.1598 57.5002 99.1598C57.8638 99.1598 58.0915 99.1598 58.8105 99.1795C59.5295 99.1991 60.355 99.6233 60.6727 99.4497C60.9905 99.2761 62.3106 99.5005 62.6726 99.4497C63.0345 99.3989 64.8018 99.5431 65.2407 99.4906C65.6797 99.4382 66.2628 99.5414 66.4446 99.4497C66.6264 99.358 67.1259 99.5234 67.3995 99.5021C67.8484 99.4315 68.3042 99.4139 68.7572 99.4497C69.3076 99.5218 69.2175 99.6512 70.1265 99.5038C71.0355 99.3563 71.4057 99.4497 71.4057 99.4497C71.4057 99.4497 72.1329 99.2859 72.5604 99.1598C72.9879 99.0337 73.1582 99.453 73.5283 99.1598C73.8985 98.8666 74.0345 98.7143 74.2163 98.6062C74.3981 98.4981 74.611 98.1918 74.7076 98.2131C74.7756 98.2093 74.8404 98.1829 74.8917 98.1381C74.943 98.0933 74.978 98.0327 74.991 97.9658C74.991 97.843 75.2579 97.463 75.1728 96.8602C75.0876 96.2575 75.1973 94.4034 74.7076 93.7892C74.2179 93.175 53.6381 91.47 48.3658 94.2478Z" fill="white"/>
</mask>
<g mask="url(#mask1_11243_4832)">
<g opacity="0.2">
<path d="M59.9996 98.1459C59.7621 98.1459 59.4214 98.4539 59.4214 98.4539L60.545 98.7208C60.545 98.7208 62.0797 99.0582 62.1828 98.96C62.286 98.8617 62.2844 98.141 62.1828 97.8741C62.0813 97.6071 62.0879 97.3974 61.8553 96.9536C61.6227 96.5097 60.9544 96.246 60.9217 95.9299C60.8889 95.6138 60.8873 95.7661 60.3763 95.5221C59.8653 95.278 58.9792 95.5221 58.4682 95.3042C57.9572 95.0864 57.207 94.8293 57.207 94.8293L59.1823 94.4165C59.1823 94.4165 56.6272 94.4362 56.2521 94.4165C55.8771 94.3969 55.1269 94.7162 54.7519 94.8293C54.3768 94.9423 53.7298 95.0668 53.7298 95.0668C53.7298 95.0668 55.651 95.5221 55.7297 95.5221H53.4891C52.8077 95.5221 52.6701 95.3861 52.3294 95.5221C51.9888 95.658 52.0232 95.8284 51.6497 95.8284C51.4197 95.8457 51.1886 95.8457 50.9586 95.8284C50.4901 95.794 49.7793 95.6924 49.7793 95.6924C49.7793 95.6924 49.2552 96.0757 49.1569 96.1396C49.0586 96.2034 48.4346 96.2034 48.0644 95.7104C48.0644 95.7104 48.0644 95.6973 48.0644 95.6908C48.1161 96.1145 48.1089 96.5433 48.0432 96.965C48.0432 96.947 48.0432 96.9306 48.0432 96.9126C48.1194 96.9782 48.2087 97.0267 48.3052 97.0551C48.7818 97.1911 48.4428 97.5678 48.9522 97.499C49.4615 97.4302 49.9758 96.9863 50.3509 97.2599C50.726 97.5334 51.9183 97.7709 52.2246 97.8053C52.5309 97.8397 52.7029 97.3974 53.417 97.8053C54.1311 98.2131 53.964 98.1115 54.4407 98.2131C54.9173 98.3146 55.407 97.9068 55.7247 98.2131C56.0425 98.5194 56.6223 98.5554 57.0662 98.4883C57.51 98.4211 57.8147 99.0238 57.9506 98.5161C58.0865 98.0084 57.1677 97.6972 56.8942 97.6972C56.6207 97.6972 56.0752 97.594 55.9393 97.4236C55.8034 97.2533 55.1564 97.3221 55.4627 97.1845C55.769 97.0469 57.8147 97.2861 58.1914 97.4236C58.5681 97.5612 58.8367 97.458 59.4181 97.5874C59.7731 97.686 60.1406 97.7323 60.5089 97.725C60.8152 97.725 60.8152 97.6562 61.1215 97.725C61.4278 97.7938 60.2371 98.1459 59.9996 98.1459Z" fill="white"/>
<path d="M75.1269 97.5661C75.1269 97.5661 75.0385 97.4875 74.7142 96.8848C74.3899 96.282 73.3842 96.2116 72.9977 96.1396C72.6335 96.0705 72.2596 96.0705 71.8954 96.1396C71.4172 96.2034 71.0437 96.2116 70.839 96.1396C70.6343 96.0675 71.3844 95.794 71.7578 95.7596C72.1313 95.7252 72.3213 95.6236 72.5686 95.5958C72.6422 95.5821 72.7107 95.5481 72.7662 95.4978C72.8217 95.4475 72.8622 95.3828 72.883 95.3108C72.883 95.3108 71.9986 95.3665 70.8046 95.3108C69.6106 95.2551 69.3174 95.2305 68.7655 95.3108C68.2135 95.391 67.5321 95.8021 67.1571 95.8349C66.782 95.8677 66.1006 95.8349 66.3381 95.9709C66.8939 96.1958 67.4792 96.3392 68.0759 96.3967C68.5542 96.4147 68.9964 96.3967 68.9964 96.3967C68.9964 96.3967 66.6379 96.9356 66.1629 96.9978C65.6879 97.06 65.6568 97.3352 65.4521 97.3696C65.2473 97.404 65.0426 97.6071 64.7019 97.6071C64.3612 97.6071 64.0893 97.6759 64.0893 97.8118C64.0893 97.9478 63.562 98.3572 64.2335 98.3228C64.6514 98.3028 65.0702 98.3143 65.4864 98.3572L63.9534 98.6979C63.9534 98.6979 64.566 99.0648 65.6895 98.9665C66.8131 98.8682 66.8492 98.6307 67.6337 98.5963C68.4182 98.562 68.962 98.7323 69.4353 98.6979C69.9087 98.6635 70.0414 98.4948 70.5737 98.39C71.106 98.2852 71.3107 98.4604 71.8577 98.4604C72.4048 98.4604 72.8093 98.8011 73.2548 98.4948C73.7003 98.1885 73.8805 98.1181 73.72 98.0509C73.5595 97.9838 71.8397 98.1869 72.5637 97.9134C73.2876 97.6398 73.874 97.4711 74.1065 97.5055C74.3306 97.5114 74.5449 97.5988 74.7093 97.7512C74.8157 97.8347 74.9238 97.8069 75.063 97.7512C75.086 97.6933 75.1073 97.6316 75.1269 97.5661Z" fill="white"/>
</g>
<path d="M50.5245 96.3901C51.0699 96.3738 51.6497 96.6129 52.1624 96.68C52.6751 96.7472 53.1451 96.5457 53.5939 96.6653C54.0427 96.7849 54.48 97.1354 55.0598 96.9077" stroke="#263238" stroke-width="0.163787" stroke-linecap="round" stroke-linejoin="round"/>
<path d="M56.9319 96.246H57.4822L57.9261 96.4835H58.4649" stroke="#263238" stroke-width="0.163787" stroke-linecap="round" stroke-linejoin="round"/>
<path d="M59.1381 96.4802C59.5099 96.6162 59.921 96.5523 60.3124 96.4802" stroke="#263238" stroke-width="0.163787" stroke-linecap="round" stroke-linejoin="round"/>
<path d="M66.2775 98.0854C66.5068 98.0281 66.782 97.9806 66.9556 98.1427C66.9826 98.1733 67.0134 98.2003 67.0473 98.223C67.0738 98.2348 67.102 98.2425 67.1309 98.2459C67.5058 98.2962 67.8868 98.2183 68.2118 98.0248C68.2619 97.9896 68.3172 97.9625 68.3756 97.9445C68.4888 97.9422 68.601 97.9663 68.7032 98.015C68.8097 98.0477 68.9554 98.0346 68.9964 97.9298" stroke="#263238" stroke-width="0.163787" stroke-linecap="round" stroke-linejoin="round"/>
<path d="M69.853 97.9642C69.9721 97.9988 70.0986 97.9983 70.2174 97.9629C70.3362 97.9274 70.4422 97.8585 70.5229 97.7644" stroke="#263238" stroke-width="0.163787" stroke-linecap="round" stroke-linejoin="round"/>
<path d="M71.7873 97.7609C72.0412 97.679 72.313 97.7707 72.5751 97.8231C72.6717 97.8486 72.7733 97.8486 72.8699 97.8231C72.9418 97.7915 73.0099 97.752 73.073 97.7052C73.2913 97.5825 73.5441 97.5352 73.792 97.5709C74.0379 97.606 74.2791 97.6687 74.5111 97.7576" stroke="#263238" stroke-width="0.163787" stroke-linecap="round" stroke-linejoin="round"/>
<path d="M67.637 96.7915C67.926 96.7587 68.2185 96.7719 68.5034 96.8308C68.6082 96.8521 68.7392 96.8701 68.8015 96.7833" stroke="#263238" stroke-width="0.163787" stroke-linecap="round" stroke-linejoin="round"/>
<path d="M70.2264 96.6914C70.5553 96.5954 70.8981 96.5555 71.2403 96.5735C71.3993 96.5899 71.5595 96.5899 71.7185 96.5735C71.8022 96.5537 71.8881 96.5444 71.974 96.5457C72.0489 96.5627 72.1227 96.584 72.1952 96.6095C72.4392 96.6701 72.6865 96.5358 72.9306 96.49C73.1406 96.4613 73.3537 96.4646 73.5628 96.4998" stroke="#263238" stroke-width="0.163787" stroke-linecap="round" stroke-linejoin="round"/>
<path d="M48.41 96.6488C48.5099 96.603 48.6 96.7242 48.695 96.7799C48.8457 96.8699 49.0357 96.7962 49.1995 96.7324C49.3633 96.6685 49.5746 96.6292 49.6908 96.7618" stroke="#263238" stroke-width="0.163787" stroke-linecap="round" stroke-linejoin="round"/>
<path d="M51.7218 95.6039C52.0707 95.4942 52.413 95.789 52.7766 95.8316C53.0321 95.8611 53.3089 95.7661 53.5415 95.8807C53.6053 95.9118 53.6627 95.9593 53.7298 95.9855C53.9968 96.0887 54.2638 95.8398 54.5488 95.8021" stroke="#263238" stroke-width="0.163787" stroke-linecap="round" stroke-linejoin="round"/>
<path d="M55.2252 95.8922C55.3648 95.9196 55.4957 95.9803 55.6068 96.0691C55.6635 96.1122 55.7309 96.1388 55.8017 96.1461C55.8725 96.1533 55.9439 96.1408 56.0081 96.11" stroke="#263238" stroke-width="0.163787" stroke-linecap="round" stroke-linejoin="round"/>
</g>
<path d="M48.3658 94.2478C48.3658 94.2478 47.8073 95.2224 47.9957 95.509C48.184 95.7956 48.0677 96.9241 47.9957 97.2042C47.9236 97.4843 48.8146 98.0477 49.5025 97.8839C50.1904 97.7201 51.7742 98.4293 52.3196 98.3409C52.865 98.2524 53.6823 98.5047 54.1377 98.6062C54.593 98.7077 55.4103 99.2892 55.9557 99.1598C56.5011 99.0304 57.1366 99.1598 57.5002 99.1598C57.8638 99.1598 58.0915 99.1598 58.8105 99.1795C59.5295 99.1991 60.355 99.6233 60.6727 99.4497C60.9905 99.2761 62.3106 99.5005 62.6726 99.4497C63.0345 99.3989 64.8018 99.5431 65.2407 99.4906C65.6797 99.4382 66.2628 99.5414 66.4446 99.4497C66.6264 99.358 67.1259 99.5234 67.3995 99.5021C67.8484 99.4315 68.3042 99.4139 68.7572 99.4497C69.3076 99.5218 69.2175 99.6512 70.1265 99.5038C71.0355 99.3563 71.4057 99.4497 71.4057 99.4497C71.4057 99.4497 72.1329 99.2859 72.5604 99.1598C72.9879 99.0337 73.1582 99.453 73.5283 99.1598C73.8985 98.8666 74.0345 98.7143 74.2163 98.6062C74.3981 98.4981 74.611 98.1918 74.7076 98.2131C74.7756 98.2093 74.8404 98.1829 74.8917 98.1381C74.943 98.0933 74.978 98.0327 74.991 97.9658C74.991 97.843 75.2579 97.463 75.1728 96.8602C75.0876 96.2575 75.1973 94.4034 74.7076 93.7892C74.2179 93.175 53.6381 91.47 48.3658 94.2478Z" stroke="#263238" stroke-width="0.163787" stroke-miterlimit="10"/>
<path d="M48.8113 92.9081C48.8113 92.9081 47.7172 94.2495 48.0644 94.8293C48.4116 95.4091 48.5689 95.6892 48.5803 96.3902C48.5918 97.0912 48.8752 97.3254 49.0979 96.3902C49.3207 95.455 49.3763 95.134 49.7793 95.0668C50.1822 94.9997 50.8095 95.2715 50.762 95.5451C50.7145 95.8186 51.404 95.9283 51.54 95.3043C51.6759 94.6803 52.7225 94.8129 53.4939 94.636C54.2654 94.4592 54.4947 93.6681 55.0401 93.6746C55.5855 93.6812 57.2659 94.1807 58.2208 93.9547C59.1757 93.7287 60.35 94.4755 60.7202 94.8293C61.0904 95.1831 61.3541 95.9087 61.8552 96.0446C62.3564 96.1806 62.2205 98.8159 62.8101 98.9535C63.3998 99.091 63.2196 97.1813 63.8567 96.9995C64.4938 96.8177 64.3104 97.6808 64.7657 97.3172C65.2211 96.9536 65.0376 96.233 65.5847 95.9349C66.1317 95.6368 66.0842 95.3616 66.4937 95.0668C66.9031 94.772 66.9523 94.2806 67.6369 94.2806C68.3215 94.2806 69.3632 94.1889 69.681 94.053C69.9987 93.917 70.454 93.917 71.1813 94.4624C71.9085 95.0078 71.9609 95.0291 72.5702 94.8375C73.1794 94.6459 72.9993 94.0071 73.7265 94.5525C74.4537 95.0979 74.3816 95.7793 74.7092 95.7351C75.0368 95.6908 75.1285 97.0453 75.1744 97.3254C75.2202 97.6055 75.5658 97.5072 75.5298 96.7342C75.4623 95.8718 75.4623 95.0054 75.5298 94.143C75.6248 92.7541 73.7625 90.2515 68.0366 89.9714C62.3106 89.6913 51.802 89.9092 48.8113 92.9081Z" fill="#999999"/>
<mask id="mask2_11243_4832" style="mask-type:luminance" maskUnits="userSpaceOnUse" x="47" y="89" width="29" height="10">
<path d="M48.8113 92.9081C48.8113 92.9081 47.7172 94.2495 48.0644 94.8293C48.4116 95.4091 48.5689 95.6892 48.5803 96.3902C48.5918 97.0912 48.8752 97.3254 49.0979 96.3902C49.3207 95.455 49.3763 95.134 49.7793 95.0668C50.1822 94.9997 50.8095 95.2715 50.762 95.5451C50.7145 95.8186 51.404 95.9283 51.54 95.3043C51.6759 94.6803 52.7225 94.8129 53.4939 94.636C54.2654 94.4592 54.4947 93.6681 55.0401 93.6746C55.5855 93.6812 57.2659 94.1807 58.2208 93.9547C59.1757 93.7287 60.35 94.4755 60.7202 94.8293C61.0904 95.1831 61.3541 95.9087 61.8552 96.0446C62.3564 96.1806 62.2205 98.8159 62.8101 98.9535C63.3998 99.091 63.2196 97.1813 63.8567 96.9995C64.4938 96.8177 64.3104 97.6808 64.7657 97.3172C65.2211 96.9536 65.0376 96.233 65.5847 95.9349C66.1317 95.6368 66.0842 95.3616 66.4937 95.0668C66.9031 94.772 66.9523 94.2806 67.6369 94.2806C68.3215 94.2806 69.3632 94.1889 69.681 94.053C69.9987 93.917 70.454 93.917 71.1813 94.4624C71.9085 95.0078 71.9609 95.0291 72.5702 94.8375C73.1794 94.6459 72.9993 94.0071 73.7265 94.5525C74.4537 95.0979 74.3816 95.7793 74.7092 95.7351C75.0368 95.6908 75.1285 97.0453 75.1744 97.3254C75.2202 97.6055 75.5658 97.5072 75.5298 96.7342C75.4623 95.8718 75.4623 95.0054 75.5298 94.143C75.6248 92.7541 73.7625 90.2515 68.0366 89.9714C62.3106 89.6913 51.802 89.9092 48.8113 92.9081Z" fill="white"/>
</mask>
<g mask="url(#mask2_11243_4832)">
<path opacity="0.5" d="M48.8113 92.908C48.8113 92.908 47.7172 94.2494 48.0644 94.8293C48.4116 95.4091 48.5689 95.6891 48.5803 96.3901C48.5918 97.0911 48.8752 97.3254 49.0979 96.3901C49.3207 95.4549 49.3763 95.1339 49.7793 95.0667C50.1822 94.9996 50.8095 95.2715 50.762 95.545C50.7145 95.8185 51.404 95.9283 51.54 95.3042C51.6759 94.6802 52.7225 94.8129 53.4939 94.636C54.2654 94.4591 54.4947 93.668 55.0401 93.6746C55.5855 93.6811 57.2659 94.1807 58.2208 93.9546C59.1757 93.7286 60.35 94.4755 60.7202 94.8293C61.0904 95.183 61.3541 95.9086 61.8552 96.0445C62.3564 96.1805 62.2205 98.8158 62.8101 98.9534C63.3998 99.091 63.2196 97.1812 63.8567 96.9994C64.4938 96.8176 64.3104 97.6808 64.7657 97.3172C65.2211 96.9536 65.0376 96.2329 65.5847 95.9348C66.1317 95.6367 66.0842 95.3616 66.4937 95.0667C66.9031 94.7719 66.9523 94.2806 67.6369 94.2806C68.3215 94.2806 69.3632 94.1888 69.681 94.0529C69.9987 93.917 70.454 93.917 71.1813 94.4624C71.9085 95.0078 71.9609 95.0291 72.5702 94.8374C73.1794 94.6458 72.9993 94.007 73.7265 94.5525C74.4537 95.0979 74.3816 95.7792 74.7092 95.735C75.0368 95.6908 75.1285 97.0453 75.1744 97.3254C75.2202 97.6054 75.5658 97.5072 75.5298 96.7341C75.4623 95.8717 75.4623 95.0054 75.5298 94.143C75.6248 92.7541 73.7625 90.2514 68.0366 89.9713C62.3106 89.6913 51.802 89.9091 48.8113 92.908Z" fill="white"/>
<g opacity="0.2">
<path d="M75.1793 97.3169C75.1318 97.0434 75.0433 95.679 74.7141 95.7265C74.3849 95.774 74.4521 95.0894 73.7314 94.544C73.0107 93.9986 73.1844 94.6357 72.5751 94.829C71.9658 95.0222 71.9199 94.9928 71.1862 94.4539C70.4524 93.915 70.0036 93.9085 69.6875 94.0444C69.3714 94.1804 68.315 94.2803 67.6369 94.2803C66.9588 94.2803 66.9081 94.7716 66.4904 95.0665C66.0727 95.3613 66.1268 95.6348 65.583 95.9329C65.0393 96.231 65.2194 96.9533 64.7641 97.3169C64.3088 97.6805 64.4922 96.8157 63.8567 96.9991C63.2212 97.1826 63.4014 99.0891 62.8101 98.9531C62.2188 98.8172 62.3548 96.1802 61.8536 96.0443C61.3524 95.9083 61.0838 95.1811 60.7202 94.829C60.3566 94.4768 59.1741 93.7267 58.2208 93.9543C57.2676 94.182 55.5855 93.6808 55.0384 93.6743C54.4914 93.6677 54.267 94.4539 53.4956 94.6357C52.7241 94.8175 51.6775 94.6816 51.5416 95.304C51.4057 95.9263 50.7227 95.8166 50.762 95.5447C50.8013 95.2728 50.1756 94.9993 49.7793 95.0665C49.3829 95.1336 49.319 95.453 49.0979 96.3899C48.8768 97.3267 48.5918 97.0892 48.5803 96.3899C48.5689 95.6905 48.4166 95.4071 48.0628 94.829C48.0181 94.7495 47.9949 94.6597 47.9956 94.5685C48.0784 94.6923 48.2009 94.7841 48.3428 94.829C48.7179 94.8732 48.6328 95.8625 48.8113 95.6577C48.9898 95.453 48.9554 94.7602 49.3993 94.675C49.9478 94.6207 50.4983 94.7566 50.9585 95.0599C51.3418 95.3449 51.5236 94.4637 52.0133 94.4048C52.503 94.3458 53.2843 94.5898 53.7282 94.1132C54.172 93.6366 54.5798 93.3664 54.9893 93.3303C55.3988 93.2943 56.4208 93.8217 57.0694 93.4351C57.718 93.0486 58.2962 93.124 58.6712 93.3287C59.0463 93.5334 59.5917 94.0788 60.0683 93.9085C60.5449 93.7382 61.3999 94.01 61.5703 94.4179C61.7406 94.8257 62.0452 95.4841 62.3515 95.2925C62.6578 95.1009 62.9313 95.5447 63.1017 95.8838C63.272 96.2228 63.2654 96.0213 63.6127 95.7478C63.9599 95.4743 64.5954 96.1917 64.8738 95.7478C65.1523 95.304 65.3177 94.8404 65.7599 94.8175C66.2021 94.7946 66.2726 94.7307 66.6804 94.4048C67.0882 94.0788 67.5321 93.8725 68.4198 93.9134C68.6491 93.9186 68.8782 93.8978 69.1028 93.8512C69.7088 93.7332 70.2362 93.5056 70.5769 93.635C70.6224 93.6528 70.6663 93.6748 70.7079 93.7005C71.1583 93.9658 71.7349 94.675 72.1984 94.4097C72.7094 94.1181 72.7094 93.427 73.3236 93.8446C73.9378 94.2623 74.1769 94.711 74.4832 94.6177C74.7895 94.5243 74.7452 94.259 74.9745 94.4097C75.146 94.4857 75.3393 94.4967 75.5183 94.4408C75.4695 95.1996 75.475 95.961 75.5347 96.7191C75.5724 97.4987 75.2235 97.5888 75.1793 97.3169Z" fill="black"/>
<path d="M75.479 93.578C74.8976 93.7189 75.3037 93.3798 74.7141 93.447C74.0164 93.5272 73.7691 93.578 73.5037 93.3503C73.2384 93.1227 72.5423 93.2046 70.9749 93.6419C70.8881 93.6664 70.798 93.6861 70.7095 93.7074C70.1797 93.8069 69.6419 93.8573 69.1028 93.8581C67.9088 93.8794 66.6591 93.7827 65.7599 93.9891C64.3612 94.3068 64.1581 94.2266 63.3391 93.8171C62.5202 93.4077 60.9544 93.2046 60.3058 93.1751C59.6572 93.1456 58.704 92.6919 57.8179 92.4855C56.9318 92.2792 56.18 92.9654 55.728 92.8393C55.2759 92.7132 53.5513 93.4421 52.3294 93.9531C51.1076 94.4641 49.604 94.225 48.5803 93.9531C48.4553 93.92 48.3356 93.8692 48.2249 93.8024C48.3931 93.4868 48.5893 93.1869 48.8113 92.9065C51.8004 89.9075 62.3171 89.6799 68.0431 89.9583C73.0664 90.2089 75.1154 92.1629 75.479 93.578Z" fill="black"/>
</g>
</g>
<path d="M48.8113 92.9081C48.8113 92.9081 47.7172 94.2495 48.0644 94.8293C48.4116 95.4091 48.5689 95.6892 48.5803 96.3902C48.5918 97.0912 48.8752 97.3254 49.0979 96.3902C49.3207 95.455 49.3763 95.134 49.7793 95.0668C50.1822 94.9997 50.8095 95.2715 50.762 95.5451C50.7145 95.8186 51.404 95.9283 51.54 95.3043C51.6759 94.6803 52.7225 94.8129 53.4939 94.636C54.2654 94.4592 54.4947 93.6681 55.0401 93.6746C55.5855 93.6812 57.2659 94.1807 58.2208 93.9547C59.1757 93.7287 60.35 94.4755 60.7202 94.8293C61.0904 95.1831 61.3541 95.9087 61.8552 96.0446C62.3564 96.1806 62.2205 98.8159 62.8101 98.9535C63.3998 99.091 63.2196 97.1813 63.8567 96.9995C64.4938 96.8177 64.3104 97.6808 64.7657 97.3172C65.2211 96.9536 65.0376 96.233 65.5847 95.9349C66.1317 95.6368 66.0842 95.3616 66.4937 95.0668C66.9031 94.772 66.9523 94.2806 67.6369 94.2806C68.3215 94.2806 69.3632 94.1889 69.681 94.053C69.9987 93.917 70.454 93.917 71.1813 94.4624C71.9085 95.0078 71.9609 95.0291 72.5702 94.8375C73.1794 94.6459 72.9993 94.0071 73.7265 94.5525C74.4537 95.0979 74.3816 95.7793 74.7092 95.7351C75.0368 95.6908 75.1285 97.0453 75.1744 97.3254C75.2202 97.6055 75.5658 97.5072 75.5298 96.7342C75.4623 95.8718 75.4623 95.0054 75.5298 94.143C75.6248 92.7541 73.7625 90.2515 68.0366 89.9714C62.3106 89.6913 51.802 89.9092 48.8113 92.9081Z" stroke="#263238" stroke-width="0.163787" stroke-linecap="round" stroke-linejoin="round"/>
<path d="M76.4306 91.1785L76.4044 91.2539L75.9131 92.728C74.4446 92.8347 72.976 92.5211 71.6792 91.8239C70.0217 90.9214 70.6309 90.055 70.9913 89.7077C71.0495 89.6481 71.1125 89.5933 71.1796 89.5439L76.4306 91.1785Z" fill="#757575"/>
<mask id="mask3_11243_4832" style="mask-type:luminance" maskUnits="userSpaceOnUse" x="70" y="89" width="7" height="4">
<path d="M76.4306 91.1785L76.4044 91.2539L75.9131 92.728C74.4446 92.8347 72.976 92.5211 71.6792 91.8239C70.0217 90.9214 70.6309 90.055 70.9913 89.7077C71.0495 89.6481 71.1125 89.5933 71.1796 89.5439L76.4306 91.1785Z" fill="white"/>
</mask>
<g mask="url(#mask3_11243_4832)">
<path opacity="0.2" d="M76.4306 91.1785L76.4044 91.2539C76.2181 91.4742 75.9779 91.6424 75.7072 91.7423C75.4366 91.8422 75.1447 91.8703 74.8599 91.8239C73.7134 91.6601 72.0461 90.5332 70.9913 89.7077C71.0495 89.6481 71.1125 89.5933 71.1796 89.5439L76.4306 91.1785Z" fill="black"/>
<path opacity="0.2" d="M73.2794 92.3251C73.2794 92.3251 73.7314 92.3021 73.9214 91.5258C74.1114 90.7494 74.611 91.3816 75.1957 91.5258C75.7804 91.6699 75.7657 91.2129 76.4044 91.2539L71.1796 89.5456C71.1796 89.5456 69.8579 91.5503 73.2794 92.3251Z" fill="black"/>
</g>
<path d="M76.4306 91.1785L76.4044 91.2539L75.9131 92.728C74.4446 92.8347 72.976 92.5211 71.6792 91.8239C70.0217 90.9214 70.6309 90.055 70.9913 89.7077C71.0495 89.6481 71.1125 89.5933 71.1796 89.5439L76.4306 91.1785Z" stroke="#263238" stroke-width="0.163787" stroke-linecap="round" stroke-linejoin="round"/>
<path d="M58.817 90.8182C58.817 90.8182 55.0008 92.9474 52.4997 93.4387C50.9879 93.7336 49.4301 93.6978 47.9334 93.3339L47.5501 92.1874L47.501 92.0433L48.3641 90.8165C51.5154 89.9861 55.0122 90.24 57.0579 90.5168C58.1373 90.6642 58.817 90.8182 58.817 90.8182Z" fill="#757575"/>
<mask id="mask4_11243_4832" style="mask-type:luminance" maskUnits="userSpaceOnUse" x="47" y="90" width="12" height="4">
<path d="M58.817 90.8182C58.817 90.8182 55.0008 92.9474 52.4997 93.4387C50.9879 93.7336 49.4301 93.6978 47.9334 93.3339L47.5501 92.1874L47.501 92.0433L48.3641 90.8165C51.5154 89.9861 55.0122 90.24 57.0579 90.5168C58.1373 90.6642 58.817 90.8182 58.817 90.8182Z" fill="white"/>
</mask>
<g mask="url(#mask4_11243_4832)">
<path opacity="0.2" d="M57.0579 90.5139C55.4512 91.1461 51.291 92.6726 49.0979 92.4794C48.5717 92.4445 48.0519 92.3449 47.5501 92.1829L47.501 92.0388L48.3641 90.812C51.5154 89.9882 55.0122 90.242 57.0579 90.5139Z" fill="black"/>
<path opacity="0.2" d="M57.1382 91.6879C57.1382 91.6879 57.0809 91.0328 55.728 91.4193C54.3751 91.8059 52.9584 92.5232 52.526 92.3251C52.0936 92.1269 51.9806 91.6273 51.0519 91.819C50.1232 92.0106 49.4697 92.7886 48.5836 92.7067C47.6975 92.6248 47.5043 92.0515 47.5043 92.0515L48.3674 90.8248C48.3674 90.8248 52.1509 89.6652 58.8203 90.8248L57.1382 91.6879Z" fill="black"/>
</g>
<path d="M58.817 90.8182C58.817 90.8182 55.0008 92.9474 52.4997 93.4387C50.9879 93.7336 49.4301 93.6978 47.9334 93.3339L47.5501 92.1874L47.501 92.0433L48.3641 90.8165C51.5154 89.9861 55.0122 90.24 57.0579 90.5168C58.1373 90.6642 58.817 90.8182 58.817 90.8182Z" stroke="#263238" stroke-width="0.163787" stroke-linecap="round" stroke-linejoin="round"/>
<path d="M72.9977 90.2531V92.4789C72.9977 92.4789 71.8151 93.9022 66.4085 93.6352C61.0019 93.3683 57.5002 91.1784 57.5002 91.1784C58.041 90.9661 58.5966 90.7937 59.1626 90.6625C64.507 89.3801 72.9977 90.2531 72.9977 90.2531Z" fill="#757575"/>
<mask id="mask5_11243_4832" style="mask-type:luminance" maskUnits="userSpaceOnUse" x="57" y="89" width="16" height="5">
<path d="M72.9977 90.2531V92.4789C72.9977 92.4789 71.8151 93.9022 66.4085 93.6352C61.0019 93.3683 57.5002 91.1784 57.5002 91.1784C58.041 90.9661 58.5966 90.7937 59.1626 90.6625C64.507 89.3801 72.9977 90.2531 72.9977 90.2531Z" fill="white"/>
</mask>
<g mask="url(#mask5_11243_4832)">
<path opacity="0.2" d="M72.9977 90.2531V90.8967C72.5227 91.7714 70.9323 92.5772 67.4993 92.7623C63.2294 92.9899 60.3189 91.429 59.1626 90.6625C64.507 89.3801 72.9977 90.2531 72.9977 90.2531Z" fill="black"/>
<path opacity="0.2" d="M59.1626 90.6625C59.1626 90.6625 59.6425 91.1539 60.1961 91.0556C60.7497 90.9574 61.1117 91.2194 61.7684 91.6911C62.4252 92.1628 62.9837 91.8828 64.2351 91.4192C65.4864 90.9557 65.3161 92.2152 66.646 92.1481C67.976 92.0809 67.4846 90.5217 68.4968 90.8918C69.509 91.262 69.7186 92.058 70.626 91.506C71.5334 90.9541 72.6734 90.6953 73.0026 91.149V90.2531C73.0026 90.2531 64.6724 89.5095 59.1626 90.6625Z" fill="black"/>
</g>
<path d="M72.9977 90.2531V92.4789C72.9977 92.4789 71.8151 93.9022 66.4085 93.6352C61.0019 93.3683 57.5002 91.1784 57.5002 91.1784C58.041 90.9661 58.5966 90.7937 59.1626 90.6625C64.507 89.3801 72.9977 90.2531 72.9977 90.2531Z" stroke="#263238" stroke-width="0.163787" stroke-linecap="round" stroke-linejoin="round"/>
<path d="M47.5026 92.0449C47.5026 92.0449 48.2069 92.4167 50.0806 92.4872C51.9543 92.5576 56.5224 90.887 56.5224 90.887" stroke="#263238" stroke-width="0.163787" stroke-linecap="round" stroke-linejoin="round"/>
<path d="M59.7604 91.1785C59.7604 91.1785 64.8051 92.9113 67.7368 92.7508C70.6686 92.5903 72.5685 91.4405 72.5685 91.4405" stroke="#263238" stroke-width="0.163787" stroke-linecap="round" stroke-linejoin="round"/>
<path d="M72.9977 90.887C72.9977 90.887 74.077 91.8238 74.8599 91.8238C75.6428 91.8238 75.9884 91.5765 76.429 91.1834" stroke="#263238" stroke-width="0.163787" stroke-linecap="round" stroke-linejoin="round"/>
<path d="M62.8282 90.8869C62.4531 90.9885 64.0222 91.6027 64.8739 91.6879C65.7256 91.773 65.2489 90.5856 65.2489 90.5856" stroke="#263238" stroke-width="0.163787" stroke-linecap="round" stroke-linejoin="round"/>
<path d="M66.3053 90.7166C66.3053 90.7166 65.6911 91.6273 66.3053 91.8189C66.9195 92.0105 68.6917 91.8189 68.8276 91.5257C68.9636 91.2325 67.7368 90.5856 67.7368 90.5856" stroke="#263238" stroke-width="0.163787" stroke-linecap="round" stroke-linejoin="round"/>
<path d="M69.2371 90.5856C69.2371 90.7838 70.0053 91.552 70.4393 91.5257C70.8733 91.4995 72.0657 91.2277 72.1001 90.887C72.1345 90.5463 69.9955 90.5856 69.9955 90.5856" stroke="#263238" stroke-width="0.163787" stroke-linecap="round" stroke-linejoin="round"/>
<path d="M62.5219 90.502C62.5219 90.502 61.7324 90.8525 61.3262 90.8869C60.92 90.9213 59.9537 90.7821 60.2534 90.5839" stroke="#263238" stroke-width="0.163787" stroke-linecap="round" stroke-linejoin="round"/>
<path d="M52.0133 90.8919C52.0133 90.8919 51.1714 92.0204 50.5916 91.9483C50.0118 91.8762 49.057 91.9483 49.0914 91.6912C49.1258 91.434 51.3762 90.887 51.3762 90.887" stroke="#263238" stroke-width="0.163787" stroke-linecap="round" stroke-linejoin="round"/>
<path d="M52.5686 90.887C52.5686 90.887 52.4048 91.5192 52.7405 91.5258C53.0763 91.5323 55.0237 91.0573 55.1253 90.887C55.2268 90.7167 53.8264 90.584 53.8264 90.584" stroke="#263238" stroke-width="0.163787" stroke-linecap="round" stroke-linejoin="round"/>
<path d="M73.5136 90.5856C73.8767 90.8276 74.2547 91.0465 74.6454 91.2407C74.9631 91.3619 75.538 91.357 75.5396 91.2407C75.5413 91.1244 74.7207 90.8853 74.7207 90.8853" stroke="#263238" stroke-width="0.163787" stroke-linecap="round" stroke-linejoin="round"/>
<path d="M47.0096 88.042C47.6893 86.2977 48.0644 84.5926 49.6122 83.6836C53.6299 81.3169 59.4901 80.1163 64.235 80.457C68.9799 80.7977 71.9084 82.1588 74.9516 85.3706C75.1334 85.5622 76.0162 87.7897 76.1898 87.9912C76.4814 88.3188 76.7811 88.6758 76.8892 89.105C76.9973 89.5341 76.8466 90.0631 76.4404 90.24C76.1718 90.3563 75.8623 90.2957 75.574 90.24C68.9947 88.8937 62.1894 89.2949 55.5118 89.9992C53.3383 90.2285 51.1567 90.4906 48.9767 90.3612C48.0759 90.3071 46.9654 89.9976 46.8147 89.1082C46.7816 88.793 46.8313 88.4746 46.9588 88.1845C46.9752 88.1321 46.9998 88.0878 47.0096 88.042Z" fill="#C6DC08"/>
<mask id="mask6_11243_4832" style="mask-type:luminance" maskUnits="userSpaceOnUse" x="46" y="80" width="31" height="11">
<path d="M47.0096 88.042C47.6893 86.2977 48.0644 84.5926 49.6122 83.6836C53.6299 81.3169 59.4901 80.1163 64.235 80.457C68.9799 80.7977 71.9084 82.1588 74.9516 85.3706C75.1334 85.5622 76.0162 87.7897 76.1898 87.9912C76.4814 88.3188 76.7811 88.6758 76.8892 89.105C76.9973 89.5341 76.8466 90.0631 76.4404 90.24C76.1718 90.3563 75.8623 90.2957 75.574 90.24C68.9947 88.8937 62.1894 89.2949 55.5118 89.9992C53.3383 90.2285 51.1567 90.4906 48.9767 90.3612C48.0759 90.3071 46.9654 89.9976 46.8147 89.1082C46.7816 88.793 46.8313 88.4746 46.9588 88.1845C46.9752 88.1321 46.9998 88.0878 47.0096 88.042Z" fill="white"/>
</mask>
<g mask="url(#mask6_11243_4832)">
<path opacity="0.2" d="M76.9252 89.367C76.9351 89.5427 76.894 89.7175 76.8068 89.8703C76.7197 90.0232 76.5901 90.1476 76.4339 90.2285C76.1653 90.3448 75.8541 90.2842 75.5674 90.2285C68.9881 88.8822 62.1828 89.2818 55.5036 89.9877C53.3334 90.217 51.1501 90.4791 48.9701 90.3497C48.0693 90.2956 46.9588 89.9861 46.8082 89.0967C46.783 88.9294 46.7891 88.759 46.8262 88.5939C47.139 88.8461 47.4895 89.0656 47.7565 89.0476C48.3707 89.0083 50.3476 87.7815 52.1542 87.8831C53.9607 87.9846 56.9253 88.0469 58.2896 87.6456C59.6539 87.2443 62.7118 86.9282 64.2285 86.9626C65.7452 86.997 69.3992 87.9895 70.3541 88.0059C71.309 88.0223 72.0935 88.7266 73.2531 88.3548C74.3521 88.0092 76.0015 88.3974 76.9252 89.367Z" fill="black" fill-opacity="0.7"/>
<path d="M66.2841 81.8754C66.2841 81.8754 66.3594 82.5944 66.5854 82.5551C66.8114 82.5158 66.2841 81.8754 66.2841 81.8754Z" fill="white"/>
<path d="M62.3335 83.0939C62.3335 83.0939 62.4088 83.813 62.6365 83.7753C62.8642 83.7376 62.3335 83.0939 62.3335 83.0939Z" fill="white"/>
<path d="M60.504 83.7327C60.504 83.7327 60.1764 83.9555 60.3648 84.0374C60.5531 84.1193 60.504 83.7327 60.504 83.7327Z" fill="white"/>
<path d="M53.7969 82.0588C53.7969 82.0588 53.4693 82.2799 53.6577 82.3635C53.8461 82.447 53.7969 82.0588 53.7969 82.0588Z" fill="white"/>
<path d="M65.7763 81.0139C65.7763 81.0139 65.4487 81.2367 65.6371 81.3186C65.8254 81.4005 65.7763 81.0139 65.7763 81.0139Z" fill="white"/>
<path d="M70.5851 82.1047C70.5851 82.1047 70.2575 82.3274 70.4458 82.4093C70.6342 82.4912 70.5851 82.1047 70.5851 82.1047Z" fill="white"/>
<path d="M54.7748 83.2774C54.7748 83.2774 54.4472 83.5002 54.6355 83.582C54.8239 83.6639 54.7748 83.2774 54.7748 83.2774Z" fill="white"/>
<path d="M61.9044 81.8754C61.9044 81.8754 61.2754 82.0392 61.4769 82.216C61.6783 82.3929 61.9044 81.8754 61.9044 81.8754Z" fill="white"/>
<path d="M61.7586 80.647C61.7586 80.647 62.3171 80.9828 62.3007 80.7158C62.2844 80.4488 61.7586 80.647 61.7586 80.647Z" fill="white"/>
<path d="M64.7248 81.687C64.7248 81.687 64.0942 81.8508 64.2956 82.0277C64.4971 82.2046 64.7248 81.687 64.7248 81.687Z" fill="white"/>
<path d="M63.706 82.5568C63.706 82.5568 64.0336 82.619 63.8076 82.7828C63.5815 82.9466 63.706 82.5568 63.706 82.5568Z" fill="white"/>
<path d="M64.163 80.6863C64.163 80.6863 64.4906 80.7485 64.2629 80.9123C64.0352 81.0761 64.163 80.6863 64.163 80.6863Z" fill="white"/>
<path d="M63.4014 84.8956C63.4014 84.8956 63.729 84.9579 63.5029 85.1217C63.2769 85.2854 63.4014 84.8956 63.4014 84.8956Z" fill="white"/>
<path d="M54.5028 84.9349C54.5028 84.9349 54.8304 84.9972 54.6027 85.1593C54.3751 85.3215 54.5028 84.9349 54.5028 84.9349Z" fill="white"/>
<path d="M50.2755 84.7106C50.2755 84.7106 50.6031 84.7728 50.3771 84.9366C50.1511 85.1004 50.2755 84.7106 50.2755 84.7106Z" fill="white"/>
<path d="M65.4897 83.243C65.4897 83.243 65.1981 83.0792 65.4651 82.9973C65.7321 82.9154 65.4897 83.243 65.4897 83.243Z" fill="white"/>
<path d="M74.0901 85.2903C74.0901 85.2903 73.7986 85.1265 74.0655 85.0446C74.3325 84.9627 74.0901 85.2903 74.0901 85.2903Z" fill="white"/>
<path d="M72.4686 85.1969C72.4686 85.1969 72.1771 85.0331 72.444 84.9513C72.711 84.8694 72.4686 85.1969 72.4686 85.1969Z" fill="white"/>
<path d="M59.1004 81.0827C59.1004 81.0827 58.8088 80.9189 59.0758 80.837C59.3428 80.7551 59.1004 81.0827 59.1004 81.0827Z" fill="white"/>
<path d="M67.6926 84.3437C67.6926 84.3437 67.4011 84.1799 67.668 84.098C67.935 84.0161 67.6926 84.3437 67.6926 84.3437Z" fill="white"/>
<path d="M73.0173 84.021C73.0173 84.021 72.7258 83.8572 72.9927 83.7754C73.2597 83.6935 73.0173 84.021 73.0173 84.021Z" fill="white"/>
<path d="M57.9195 83.3069C57.9195 83.3069 58.247 83.3691 58.0194 83.5329C57.7917 83.6967 57.9195 83.3069 57.9195 83.3069Z" fill="white"/>
<path d="M51.2763 82.9793C51.2763 82.9793 51.6038 83.0415 51.3762 83.2053C51.1485 83.3691 51.2763 82.9793 51.2763 82.9793Z" fill="white"/>
<path d="M57.9195 81.5544C57.9195 81.5544 58.247 81.6167 58.0194 81.7805C57.7917 81.9443 57.9195 81.5544 57.9195 81.5544Z" fill="white"/>
<path d="M60.5449 81.3283C60.5449 81.3283 60.8725 81.3594 60.6465 81.4413C60.4205 81.5232 60.5449 81.3283 60.5449 81.3283Z" fill="white"/>
<path d="M49.2813 84.0898C49.2813 84.0898 49.6089 84.1209 49.3829 84.2028C49.1569 84.2847 49.2813 84.0898 49.2813 84.0898Z" fill="white"/>
<path d="M63.2147 81.1777C63.2147 81.1777 62.666 81.443 63.1377 81.4152C63.6094 81.3873 63.2147 81.1777 63.2147 81.1777Z" fill="white"/>
<path d="M67.9366 81.7575C67.9366 81.7575 68.6262 81.556 68.0726 81.4971C67.519 81.4381 67.9366 81.7575 67.9366 81.7575Z" fill="white"/>
<path d="M55.4987 82.3503C55.4987 82.3503 56.1882 82.1489 55.6362 82.0899C55.0843 82.0309 55.4987 82.3503 55.4987 82.3503Z" fill="white"/>
<path d="M57.1545 82.5568C57.1545 82.5568 56.0195 82.5568 56.2979 82.8237C56.5764 83.0907 57.1545 82.5568 57.1545 82.5568Z" fill="white"/>
<path d="M65.5781 84.1569C65.5781 84.1569 65.7075 85.2838 65.9466 84.9759C66.1858 84.6679 65.5781 84.1569 65.5781 84.1569Z" fill="white"/>
<path d="M59.2526 81.7362C59.2526 81.7362 58.9496 82.2669 59.1511 82.2161C59.3526 82.1653 59.2526 81.7362 59.2526 81.7362Z" fill="white"/>
<path d="M59.5721 85.3952C59.5721 85.3952 59.9177 84.8923 59.7113 84.9267C59.5049 84.9611 59.5721 85.3952 59.5721 85.3952Z" fill="white"/>
<path d="M67.0194 81.0466C67.0194 81.0466 66.7164 81.312 66.9195 81.2874C67.1226 81.2628 67.0194 81.0466 67.0194 81.0466Z" fill="white"/>
<path d="M69.7153 84.6172C69.7153 84.6172 69.8709 85.2085 69.979 85.0299C70.0871 84.8514 69.7153 84.6172 69.7153 84.6172Z" fill="white"/>
<path d="M69.1012 82.7205C69.1012 82.7205 68.7981 83.2512 68.9996 83.1988C69.2011 83.1464 69.1012 82.7205 69.1012 82.7205Z" fill="white"/>
<path d="M57.2364 84.6516C57.2364 84.6516 56.7271 84.9791 56.9302 85.0332C57.1333 85.0872 57.2364 84.6516 57.2364 84.6516Z" fill="white"/>
<path d="M71.3729 83.2626C71.3729 83.2626 71.7135 83.7704 71.7578 83.5673C71.802 83.3642 71.3729 83.2626 71.3729 83.2626Z" fill="white"/>
<path d="M52.4048 83.9899C52.4048 83.9899 51.7938 83.9899 51.938 84.1373C52.0821 84.2847 52.4048 83.9899 52.4048 83.9899Z" fill="white"/>
<path d="M56.6337 81.2989C56.6337 81.2989 57.2447 81.3152 57.1038 81.1613C56.9629 81.0073 56.6337 81.2989 56.6337 81.2989Z" fill="white"/>
<path d="M55.895 87.9978C56.2881 87.9716 56.6796 87.9241 57.0677 87.8602" stroke="#263238" stroke-width="0.163787" stroke-linecap="round" stroke-linejoin="round"/>
<path d="M46.836 88.5972C47.578 89.6257 48.7785 88.5759 49.5827 88.2434C51.2975 87.5342 53.1762 88.0288 54.9713 88.0288" stroke="#263238" stroke-width="0.163787" stroke-linecap="round" stroke-linejoin="round"/>
<path d="M63.7551 86.9249C63.4901 86.9361 63.2259 86.9629 62.9641 87.0052" stroke="#263238" stroke-width="0.163787" stroke-linecap="round" stroke-linejoin="round"/>
<path d="M67.8678 87.5031C66.4888 87.2705 65.8025 86.884 64.5921 86.9397" stroke="#263238" stroke-width="0.163787" stroke-linecap="round" stroke-linejoin="round"/>
<path d="M72.5685 88.5186C72.0903 88.5333 71.5416 88.2008 70.8766 88.0763C70.1707 87.9453 69.3485 88.0174 68.7474 87.8061" stroke="#263238" stroke-width="0.163787" stroke-linecap="round" stroke-linejoin="round"/>
<path d="M76.9252 89.367C76.1538 88.7119 74.9238 88.0305 73.8313 88.2402" stroke="#263238" stroke-width="0.163787" stroke-linecap="round" stroke-linejoin="round"/>
</g>
<path d="M47.0096 88.042C47.6893 86.2977 48.0644 84.5926 49.6122 83.6836C53.6299 81.3169 59.4901 80.1163 64.235 80.457C68.9799 80.7977 71.9084 82.1588 74.9516 85.3706C75.1334 85.5622 76.0162 87.7897 76.1898 87.9912C76.4814 88.3188 76.7811 88.6758 76.8892 89.105C76.9973 89.5341 76.8466 90.0631 76.4404 90.24C76.1718 90.3563 75.8623 90.2957 75.574 90.24C68.9947 88.8937 62.1894 89.2949 55.5118 89.9992C53.3383 90.2285 51.1567 90.4906 48.9767 90.3612C48.0759 90.3071 46.9654 89.9976 46.8147 89.1082C46.7816 88.793 46.8313 88.4746 46.9588 88.1845C46.9752 88.1321 46.9998 88.0878 47.0096 88.042Z" stroke="#263238" stroke-width="0.163787" stroke-linecap="round" stroke-linejoin="round"/>
<path d="M48.2741 89.8583C48.2741 89.8583 47.1816 90.1318 47.2913 90.6314C47.4011 91.1309 46.8 91.1719 46.8 91.1719C46.8 91.1719 46.8458 91.3586 47.5387 91.4045C48.2315 91.4503 48.4854 90.9491 48.8129 91.4045C49.1405 91.8598 49.3665 92.8785 50.3673 92.32C51.368 91.7615 51.3664 90.6691 52.2295 91.1735C53.0927 91.678 53.8674 92.4953 54.6388 92.0858C55.4103 91.6764 56.1391 90.5855 56.7287 90.8591C57.3184 91.1326 58.3191 92.04 59.0463 91.7222C59.7735 91.4045 60.0929 90.4119 61.0461 90.5855C61.9994 90.7591 62.3646 91.3963 63.1377 91.1735C63.9108 90.9508 64.1368 90.4496 64.7756 90.3808C65.4143 90.312 65.7288 91.5863 66.7295 91.6764C67.7303 91.7664 67.8089 90.4496 68.7687 90.3808C69.7285 90.312 70.2739 91.7222 70.8652 91.7222C71.4564 91.7222 71.9167 90.6314 72.5718 90.7215C73.227 90.8116 73.3645 91.8123 73.9542 91.8582C74.5438 91.904 75.045 91.1178 75.6821 91.1703C76.3193 91.2227 76.3176 92.0727 77.32 91.1703C77.32 91.1703 76.3373 91.0409 75.918 89.86C75.4987 88.6791 53.3646 87.5457 48.2741 89.8583Z" fill="#C6DC08"/>
<mask id="mask7_11243_4832" style="mask-type:luminance" maskUnits="userSpaceOnUse" x="46" y="88" width="32" height="5">
<path d="M48.2741 89.8583C48.2741 89.8583 47.1816 90.1318 47.2913 90.6314C47.4011 91.1309 46.8 91.1719 46.8 91.1719C46.8 91.1719 46.8458 91.3586 47.5387 91.4045C48.2315 91.4503 48.4854 90.9491 48.8129 91.4045C49.1405 91.8598 49.3665 92.8785 50.3673 92.32C51.368 91.7615 51.3664 90.6691 52.2295 91.1735C53.0927 91.678 53.8674 92.4953 54.6388 92.0858C55.4103 91.6764 56.1391 90.5855 56.7287 90.8591C57.3184 91.1326 58.3191 92.04 59.0463 91.7222C59.7735 91.4045 60.0929 90.4119 61.0461 90.5855C61.9994 90.7591 62.3646 91.3963 63.1377 91.1735C63.9108 90.9508 64.1368 90.4496 64.7756 90.3808C65.4143 90.312 65.7288 91.5863 66.7295 91.6764C67.7303 91.7664 67.8089 90.4496 68.7687 90.3808C69.7285 90.312 70.2739 91.7222 70.8652 91.7222C71.4564 91.7222 71.9167 90.6314 72.5718 90.7215C73.227 90.8116 73.3645 91.8123 73.9542 91.8582C74.5438 91.904 75.045 91.1178 75.6821 91.1703C76.3193 91.2227 76.3176 92.0727 77.32 91.1703C77.32 91.1703 76.3373 91.0409 75.918 89.86C75.4987 88.6791 53.3646 87.5457 48.2741 89.8583Z" fill="white"/>
</mask>
<g mask="url(#mask7_11243_4832)">
<path opacity="0.6" d="M77.3135 91.1688C76.868 91.5717 76.6206 91.6241 76.429 91.5553C76.1882 91.4718 76.031 91.1966 75.6789 91.1688C75.4288 91.1651 75.1843 91.2433 74.9828 91.3915C74.6372 91.6044 74.3129 91.8829 73.9526 91.8567C73.5251 91.8223 73.3351 91.2916 73.0141 90.9657C72.8981 90.8351 72.7408 90.7484 72.5686 90.72C72.2181 90.6725 71.9232 90.9607 71.635 91.2425C71.3827 91.4849 71.1354 91.7207 70.8603 91.7207C70.5081 91.7207 70.1691 91.2179 69.7514 90.8264C69.4697 90.5644 69.152 90.3531 68.7687 90.3809C68.2774 90.4153 68.0218 90.7724 67.7532 91.1032C67.4846 91.4341 67.2209 91.7191 66.7279 91.6749C66.1399 91.6208 65.7862 91.1573 65.4651 90.7986C65.2424 90.5496 65.0344 90.3531 64.774 90.3809C64.2515 90.435 64.0058 90.7822 63.5079 91.0361C63.3895 91.0947 63.2662 91.143 63.1394 91.1802C62.5383 91.3538 62.1829 91.0164 61.6063 90.7658C61.4278 90.6872 61.241 90.6289 61.0494 90.5922C60.2698 90.4432 59.9144 91.0836 59.4116 91.4947C59.3014 91.5903 59.1778 91.6693 59.0447 91.7289C58.4846 91.9746 57.7655 91.4914 57.1923 91.1327C57.0431 91.0339 56.8877 90.9448 56.7271 90.8658C56.1359 90.5922 55.4168 91.6847 54.6372 92.0925C54.5481 92.1404 54.4519 92.1736 54.3522 92.1908C53.7691 92.2891 53.1795 91.7977 52.5506 91.3719C52.4474 91.3031 52.3409 91.2359 52.2345 91.1737C51.3713 90.6692 51.3713 91.7682 50.3722 92.3202C50.2852 92.37 50.1929 92.4101 50.097 92.4397C49.3256 92.6772 49.1143 91.8141 48.8179 91.4046C48.7678 91.3199 48.6895 91.2556 48.5968 91.2228C48.3494 91.1507 48.0759 91.439 47.542 91.4046C46.8524 91.3588 46.8049 91.1737 46.8049 91.1737C46.8679 91.1683 46.93 91.1557 46.99 91.136C47.0448 91.1256 47.0969 91.1039 47.1429 91.0723C47.1889 91.0407 47.2279 90.9999 47.2573 90.9525C47.2867 90.9051 47.3059 90.8521 47.3138 90.7968C47.3216 90.7416 47.3179 90.6853 47.3028 90.6315C47.1882 90.132 48.2856 89.8585 48.2856 89.8585C53.3744 87.5409 75.5053 88.6776 75.9229 89.8585C76.3406 91.0394 77.3135 91.1688 77.3135 91.1688Z" fill="white"/>
<g opacity="0.1">
<path d="M50.251 90.2531C50.5655 90.6199 50.1281 91.8352 50.0872 92.4445C49.3158 92.682 49.1045 91.8189 48.808 91.4094C48.7579 91.3247 48.6797 91.2604 48.5869 91.2276C49.2748 90.3169 49.93 89.8747 50.251 90.2531Z" fill="black"/>
<path d="M53.91 90.5019C54.2802 91.0915 54.1033 91.7843 54.3523 92.1889C53.7692 92.2871 53.1795 91.7958 52.5506 91.3699C52.8012 90.266 53.4563 89.7779 53.91 90.5019Z" fill="black"/>
<path d="M59.4116 91.4963C59.3014 91.5919 59.1778 91.6708 59.0447 91.7305C58.4845 91.9762 57.7655 91.493 57.1923 91.1343C57.314 90.9128 57.4548 90.7024 57.6132 90.5054C58.1832 89.8338 58.5484 90.5611 59.4116 91.4963Z" fill="black"/>
<path d="M63.5046 91.0344C63.3862 91.0931 63.2629 91.1413 63.1361 91.1785C62.535 91.3521 62.1796 91.0147 61.603 90.7641C61.793 90.3924 61.9846 90.0681 62.2041 89.9632C62.7233 89.7094 63.0771 90.4202 63.5046 91.0344Z" fill="black"/>
<path d="M67.75 91.1099C67.4879 91.4374 67.2176 91.7257 66.7246 91.6815C66.1367 91.6274 65.7829 91.1639 65.4619 90.8052C65.6593 90.6035 65.9078 90.4591 66.1809 90.3876C67.026 90.1992 67.2979 90.5546 67.75 91.1099Z" fill="black"/>
<path d="M71.6349 91.249C71.3827 91.4914 71.1354 91.7273 70.8602 91.7273C70.5081 91.7273 70.1691 91.2244 69.7514 90.833C69.9424 90.6274 70.1459 90.4337 70.3607 90.2532C70.8226 89.901 71.1714 90.5709 71.6349 91.249Z" fill="black"/>
<path d="M74.9828 91.3981C74.6372 91.611 74.3129 91.8894 73.9525 91.8632C73.5251 91.8288 73.3351 91.2982 73.014 90.9722C73.1156 90.4547 73.2548 89.9895 73.6332 90.0911C74.3129 90.2827 74.5635 90.8117 74.9828 91.3981Z" fill="black"/>
<path d="M77.3134 91.1687C76.8679 91.5716 76.6206 91.6241 76.429 91.5553C76.0605 91.4242 76.013 91.0148 75.8819 90.7363C75.7083 90.3662 75.3758 90.4006 75.0073 90.2695C74.7503 90.1506 74.5013 90.015 74.2621 89.8633C74.0099 89.734 73.6987 89.6619 73.4432 89.7946C73.2892 89.8781 73.1631 90.0353 72.9878 90.0419C72.7782 90.0501 72.6242 89.8371 72.4211 89.7831C72.0788 89.693 71.7512 90.073 71.404 90.0026C71.1272 89.9469 70.9634 89.6275 70.6866 89.5751C70.3591 89.5128 70.0921 89.8568 69.7678 89.9485C69.4173 90.0468 69.0635 89.8404 68.7163 89.7323C68.3731 89.6257 68.0074 89.6144 67.6582 89.6996C67.4438 89.769 67.2249 89.8237 67.0031 89.8633C66.6395 89.8994 66.2742 89.7536 65.9123 89.7995C65.7386 89.8208 65.5732 89.8846 65.3996 89.8961C64.9508 89.9239 64.4824 89.5947 64.0778 89.7929C63.9141 89.8765 63.7617 90.0533 63.5701 90.0452C63.3277 90.032 63.2278 89.7864 63.0427 89.6766C62.8249 89.5472 62.6087 89.5718 62.363 89.5391C61.852 89.4703 61.4048 89.2803 60.9757 89.6832C60.7415 89.901 60.5384 90.1745 60.2452 90.299C59.8571 90.4628 59.4017 90.3465 59.0349 90.1352C58.668 89.9239 58.3519 89.6439 57.9833 89.4293C57.5996 89.2045 57.1553 89.1049 56.7124 89.1443C56.4921 89.1669 56.2794 89.2373 56.089 89.3504C55.8987 89.4635 55.7352 89.6168 55.6101 89.7995C55.5053 89.9633 55.4365 90.1451 55.3169 90.2908C55.2633 90.3692 55.189 90.4311 55.1022 90.4696C55.0154 90.508 54.9196 90.5216 54.8255 90.5087C54.5979 90.4481 54.498 90.1811 54.3669 89.9911C53.4334 88.653 52.11 90.53 51.0666 89.8633C50.59 89.5587 49.907 89.5587 49.1585 90.0583C48.4854 90.507 48.0857 91.3931 46.9802 91.1311C47.035 91.1206 47.0871 91.099 47.1331 91.0674C47.1791 91.0358 47.218 90.995 47.2474 90.9476C47.2768 90.9001 47.2961 90.8471 47.3039 90.7919C47.3118 90.7366 47.308 90.6803 47.293 90.6266C47.1783 90.127 48.2757 89.8535 48.2757 89.8535C53.3646 87.5359 75.4954 88.6726 75.9131 89.8535C76.3307 91.0344 77.3134 91.1687 77.3134 91.1687Z" fill="black"/>
</g>
<path d="M51.9249 88.9954C51.4335 89.0232 50.8423 90.9608 50.2739 91.2884C49.7056 91.6159 49.342 90.9706 49.342 90.9706" stroke="#263238" stroke-width="0.163787" stroke-linecap="round" stroke-linejoin="round"/>
<path d="M47.2439 90.9657C47.6616 90.8183 48.1382 90.6594 48.32 90.2958" stroke="#263238" stroke-width="0.163787" stroke-linecap="round" stroke-linejoin="round"/>
<path d="M53.5234 91.1786C53.5234 91.1786 54.0148 92.1138 54.7961 91.2719C55.5773 90.43 56.2554 89.8453 56.9793 90.2532C57.7033 90.661 58.2896 91.3866 58.8187 91.023" stroke="#263238" stroke-width="0.163787" stroke-linecap="round" stroke-linejoin="round"/>
<path d="M71.4139 90.2532C71.4139 90.2532 72.0428 89.4768 72.8601 90.1369C73.6774 90.7969 73.4972 91.2506 74.1557 91.0459" stroke="#263238" stroke-width="0.163787" stroke-linecap="round" stroke-linejoin="round"/>
<path d="M74.4292 89.3177C74.4292 89.3177 75.4742 89.9319 75.7248 90.3856C75.9753 90.8393 76.2915 91.4322 76.6108 91.3405" stroke="#263238" stroke-width="0.163787" stroke-linecap="round" stroke-linejoin="round"/>
<path d="M63.408 90.2531C63.408 90.2531 64.1122 89.4096 64.9983 89.7732C65.8844 90.1369 66.271 91.0459 66.8 91C67.329 90.9541 67.6418 90.204 68.1873 90.1598" stroke="#263238" stroke-width="0.163787" stroke-linecap="round" stroke-linejoin="round"/>
</g>
<path d="M48.2741 89.8583C48.2741 89.8583 47.1816 90.1318 47.2913 90.6314C47.4011 91.1309 46.8 91.1719 46.8 91.1719C46.8 91.1719 46.8458 91.3586 47.5387 91.4045C48.2315 91.4503 48.4854 90.9491 48.8129 91.4045C49.1405 91.8598 49.3665 92.8785 50.3673 92.32C51.368 91.7615 51.3664 90.6691 52.2295 91.1735C53.0927 91.678 53.8674 92.4953 54.6388 92.0858C55.4103 91.6764 56.1391 90.5855 56.7287 90.8591C57.3184 91.1326 58.3191 92.04 59.0463 91.7222C59.7735 91.4045 60.0929 90.4119 61.0461 90.5855C61.9994 90.7591 62.3646 91.3963 63.1377 91.1735C63.9108 90.9508 64.1368 90.4496 64.7756 90.3808C65.4143 90.312 65.7288 91.5863 66.7295 91.6764C67.7303 91.7664 67.8089 90.4496 68.7687 90.3808C69.7285 90.312 70.2739 91.7222 70.8652 91.7222C71.4564 91.7222 71.9167 90.6314 72.5718 90.7215C73.227 90.8116 73.3645 91.8123 73.9542 91.8582C74.5438 91.904 75.045 91.1178 75.6821 91.1703C76.3193 91.2227 76.3176 92.0727 77.32 91.1703C77.32 91.1703 76.3373 91.0409 75.918 89.86C75.4987 88.6791 53.3646 87.5457 48.2741 89.8583Z" stroke="#263238" stroke-width="0.163787" stroke-linecap="round" stroke-linejoin="round"/>
<path d="M92.092 165.188H52.276V168.4H92.092V165.188Z" fill="white" stroke="#263238" stroke-width="0.4" stroke-miterlimit="10" stroke-linecap="round"/>
<path d="M55.684 164.108H52.928V165.14H55.684V164.108Z" fill="white" stroke="#263238" stroke-width="0.4" stroke-miterlimit="10" stroke-linecap="round"/>
<path d="M59.24 164.108H56.484V165.14H59.24V164.108Z" fill="white" stroke="#263238" stroke-width="0.4" stroke-miterlimit="10" stroke-linecap="round"/>
<path d="M62.8 164.108H60.044V165.14H62.8V164.108Z" fill="white" stroke="#263238" stroke-width="0.4" stroke-miterlimit="10" stroke-linecap="round"/>
<path d="M66.356 164.108H63.6V165.14H66.356V164.108Z" fill="white" stroke="#263238" stroke-width="0.4" stroke-miterlimit="10" stroke-linecap="round"/>
<path d="M69.916 164.108H67.16V165.14H69.916V164.108Z" fill="white" stroke="#263238" stroke-width="0.4" stroke-miterlimit="10" stroke-linecap="round"/>
<path d="M73.472 164.108H70.716V165.14H73.472V164.108Z" fill="white" stroke="#263238" stroke-width="0.4" stroke-miterlimit="10" stroke-linecap="round"/>
<path d="M77.032 164.108H74.276V165.14H77.032V164.108Z" fill="white" stroke="#263238" stroke-width="0.4" stroke-miterlimit="10" stroke-linecap="round"/>
<path d="M80.588 164.108H77.832V165.14H80.588V164.108Z" fill="white" stroke="#263238" stroke-width="0.4" stroke-miterlimit="10" stroke-linecap="round"/>
<path d="M84.148 164.108H81.392V165.14H84.148V164.108Z" fill="white" stroke="#263238" stroke-width="0.4" stroke-miterlimit="10" stroke-linecap="round"/>
<path d="M87.704 164.108H84.948V165.14H87.704V164.108Z" fill="white" stroke="#263238" stroke-width="0.4" stroke-miterlimit="10" stroke-linecap="round"/>
<path d="M91.264 164.108H88.508V165.14H91.264V164.108Z" fill="white" stroke="#263238" stroke-width="0.4" stroke-miterlimit="10" stroke-linecap="round"/>
<path d="M43.6 168.4H26.228C25.7007 168.398 25.1802 168.281 24.7033 168.056C24.2264 167.831 23.8048 167.503 23.4682 167.097C23.1317 166.692 22.8884 166.217 22.7557 165.706C22.6229 165.196 22.604 164.663 22.7 164.144L30.46 123.156L32.352 123.516L24.592 164.5C24.546 164.741 24.5538 164.988 24.6148 165.225C24.6758 165.463 24.7885 165.683 24.9449 165.872C25.1013 166.06 25.2974 166.212 25.5192 166.316C25.7411 166.419 25.9831 166.473 26.228 166.472H43.6V168.4Z" fill="#263238"/>
<path d="M31.192 120.984L28.408 121.84L30.548 133.184L33.976 132.544L31.192 120.984Z" fill="#263238"/>
<path d="M37.6 156.576L24.664 91.236L25.656 91.852C26.7499 92.5306 27.693 93.4263 28.4271 94.4837C29.1612 95.5411 29.6706 96.7379 29.924 98L39.9 148.4C40.1849 149.848 40.1252 151.342 39.7256 152.762C39.3261 154.183 38.5979 155.489 37.6 156.576Z" fill="white" stroke="#263238" stroke-width="0.4" stroke-miterlimit="10" stroke-linecap="round"/>
<path d="M180.264 168.4H185.6" stroke="#263238" stroke-width="0.4" stroke-miterlimit="10" stroke-linecap="round"/>
<path d="M8.87201 168.4H176.156" stroke="#263238" stroke-width="0.4" stroke-miterlimit="10" stroke-linecap="round"/>
</svg>
