<svg width="168" height="240" viewBox="0 0 168 240" fill="none" xmlns="http://www.w3.org/2000/svg">
<path d="M83.6973 0C32.9767 0 0 32.0705 0 71.6315V214.515L167.395 239.9V71.6315C167.395 32.0705 134.418 0 83.6973 0Z" fill="black"/>
<path fill-rule="evenodd" clip-rule="evenodd" d="M82.7784 134.843C83.9601 134.982 85.1322 135.212 85.7566 135.424C86.9383 135.827 87.6301 136.457 88.024 137.489C88.1249 137.744 88.1297 137.845 88.1441 140.732C88.1585 142.74 88.1777 143.753 88.2161 143.845C88.317 144.109 88.4563 144.166 88.9751 144.166C89.3594 144.166 89.4507 144.181 89.4747 144.243C89.4891 144.287 89.5035 145.041 89.5035 145.92V147.524L89.3498 147.553C89.2633 147.567 88.1969 147.577 86.9816 147.563C84.6518 147.548 84.6374 147.543 84.1859 147.313C83.8304 147.135 83.3548 146.429 83.3548 146.088C83.3548 145.925 83.2731 145.939 83.0186 146.146C82.25 146.78 81.3901 147.226 80.4774 147.467C79.9586 147.601 79.2429 147.712 78.6472 147.745C77.4127 147.817 75.693 147.76 75.1886 147.625C75.0973 147.601 74.8283 147.534 74.5929 147.476C74.3575 147.423 74.127 147.361 74.0885 147.337C74.0764 147.331 74.0522 147.32 74.0194 147.305C73.935 147.267 73.7932 147.202 73.6514 147.14C72.854 146.78 72.1382 146.088 71.7732 145.339C71.5138 144.801 71.3985 144.277 71.3937 143.628C71.3937 142.778 71.6098 142.043 72.023 141.524C72.2055 141.294 72.6859 140.876 72.8348 140.818C72.8732 140.804 72.9405 140.761 72.9789 140.732C73.1038 140.631 73.8916 140.333 74.372 140.213C75.0493 140.035 76.0821 139.867 76.7498 139.814C76.9371 139.805 77.4127 139.761 77.8066 139.723C77.994 139.705 78.2463 139.682 78.5074 139.657L78.5127 139.657C78.8053 139.63 79.1085 139.602 79.3437 139.579L79.4261 139.571C82.5009 139.291 82.5645 139.285 82.8216 139.161C83.1338 139.007 83.2443 138.685 83.0954 138.33C82.9753 138.051 82.6295 137.893 81.7936 137.739C81.4189 137.672 80.7176 137.657 76.3895 137.633L71.4177 137.609L71.4033 136.245C71.3937 135.256 71.4081 134.867 71.4465 134.814C71.4994 134.756 72.2824 134.751 76.8891 134.766C80.7945 134.775 82.4133 134.799 82.7784 134.843ZM82.1779 141.784C82.3364 141.765 82.5094 141.736 82.5622 141.712C82.615 141.693 82.7688 141.678 82.8985 141.683L83.1386 141.693L83.1531 141.933C83.1867 142.418 83.0089 142.917 82.6343 143.388C82.4421 143.633 81.8032 144.181 81.6063 144.267C81.5486 144.291 81.4093 144.363 81.294 144.431C80.6984 144.767 79.6704 144.983 78.6664 144.983C77.845 144.983 77.4319 144.901 77.0092 144.656C76.6633 144.455 76.476 144.214 76.3607 143.835C76.2982 143.619 76.2934 143.547 76.3415 143.364C76.5096 142.773 76.9851 142.562 78.7193 142.317C79.0123 142.274 79.4302 142.211 79.656 142.173C79.767 142.156 79.9256 142.132 80.0924 142.106C80.2649 142.079 80.4462 142.051 80.5927 142.029C80.8857 141.986 81.294 141.923 81.5054 141.885C81.7168 141.846 82.0194 141.803 82.1779 141.784Z" fill="white"/>
<path fill-rule="evenodd" clip-rule="evenodd" d="M129.422 138.81C129.422 131.264 129.417 130.486 129.345 130.457C129.254 130.423 124.047 130.423 123.96 130.462C123.912 130.481 123.898 131.139 123.898 133.526C123.898 135.601 123.883 136.581 123.85 136.601C123.821 136.62 123.749 136.601 123.691 136.557C122.394 135.616 120.929 135.102 118.95 134.895C118.023 134.794 116.572 134.785 115.578 134.867C115.054 134.91 114.511 134.967 114.377 134.996C113.743 135.121 113.387 135.198 113.21 135.256C113.184 135.264 113.153 135.274 113.119 135.285L113.118 135.285C113.008 135.32 112.863 135.367 112.753 135.4C111.807 135.693 110.981 136.221 110.236 137.009C109.602 137.686 109.227 138.383 108.949 139.411C108.853 139.785 108.843 139.92 108.838 141.068C108.838 142.221 108.848 142.351 108.949 142.725C109.208 143.686 109.487 144.238 110.102 144.997C110.443 145.42 111.221 146.088 111.624 146.304C112.648 146.856 113.133 147.025 114.651 147.332C114.785 147.361 115.4 147.418 116.02 147.462C117 147.534 117.278 147.539 118.148 147.486C119.459 147.409 120.43 147.241 121.385 146.929C122.106 146.693 123.11 146.141 123.653 145.684C123.768 145.588 123.888 145.516 123.917 145.526C123.951 145.535 123.979 145.828 123.994 146.381L124.018 147.217L126.655 147.231C128.562 147.236 129.312 147.226 129.355 147.188C129.412 147.14 129.422 145.776 129.422 138.81ZM115.996 138.484C116.524 138.224 116.961 138.119 117.773 138.042C118.59 137.965 118.979 137.96 119.685 138.018C120.295 138.071 120.804 138.157 121.256 138.292C121.597 138.388 122.409 138.791 122.702 139.007C123.067 139.271 123.528 139.805 123.706 140.16C123.869 140.487 123.874 140.496 123.874 141.14C123.874 141.779 123.869 141.793 123.71 142.11C123.379 142.769 122.759 143.34 121.952 143.739C121.683 143.869 121.429 143.974 121.381 143.974C121.337 143.974 121.256 143.998 121.208 144.022C121.16 144.051 120.896 144.118 120.622 144.176C120.194 144.262 119.964 144.277 118.902 144.282C117.864 144.282 117.619 144.267 117.317 144.195C116.231 143.926 115.76 143.672 115.15 143.023C114.507 142.346 114.271 141.5 114.439 140.52C114.588 139.675 115.203 138.863 115.996 138.484Z" fill="white"/>
<path d="M37.3933 130.63C37.4029 130.639 37.4173 132.739 37.4317 135.299C37.4462 138.426 37.4702 139.958 37.5038 139.973C37.5518 139.987 37.9986 139.598 39.6895 138.066C40.1698 137.629 40.7175 137.134 40.9096 136.966C41.0969 136.798 41.5725 136.365 41.9616 136.005C42.3555 135.645 42.7254 135.328 42.7782 135.294C42.8599 135.251 43.6093 135.236 45.8286 135.232C48.3601 135.232 48.7684 135.241 48.7684 135.299C48.7684 135.337 48.73 135.4 48.6771 135.433C48.6003 135.491 48.2688 135.779 46.7076 137.153C46.4482 137.379 45.9294 137.83 45.5499 138.162C44.9993 138.643 44.6082 138.989 43.884 139.63C43.7112 139.783 43.5193 139.953 43.3018 140.146C42.98 140.434 42.7158 140.693 42.7158 140.727C42.7158 140.794 45.0167 143.004 48.2304 146.025C48.9461 146.703 49.537 147.284 49.537 147.318C49.537 147.375 49.0038 147.385 46.3906 147.385H43.2442L43.0136 147.183C42.8887 147.073 42.269 146.472 41.635 145.848C39.8384 144.085 37.5759 141.933 37.499 141.918C37.4414 141.904 37.4317 142.274 37.4317 144.565C37.4317 146.035 37.4173 147.265 37.4029 147.308C37.3741 147.375 37.0955 147.385 34.7465 147.385C32.7674 147.385 32.1045 147.37 32.0612 147.327C31.9796 147.246 31.9796 130.759 32.0612 130.678C32.1045 130.635 32.7674 130.62 34.7513 130.62C36.1972 130.62 37.3885 130.625 37.3933 130.63Z" fill="white"/>
<path d="M56.3102 133.963C56.3102 132.21 56.2958 130.74 56.2813 130.697C56.2525 130.63 55.9739 130.62 53.6249 130.62C51.6458 130.62 50.9829 130.635 50.9397 130.678C50.858 130.759 50.858 147.246 50.9397 147.327C51.0261 147.414 56.1805 147.409 56.2525 147.322C56.2861 147.284 56.3102 146.251 56.3198 144.19L56.3215 143.938C56.3388 141.456 56.3421 140.976 56.5056 140.559C56.5449 140.458 56.5933 140.362 56.6534 140.242L56.6546 140.24C56.6629 140.223 56.6713 140.206 56.68 140.189C56.8146 139.92 56.949 139.752 57.2661 139.444C57.7032 139.031 58.0347 138.83 58.5919 138.628C59.6151 138.268 61.1619 138.263 62.137 138.628C62.7903 138.868 63.3283 139.339 63.6069 139.915L63.6276 139.958C63.6734 140.052 63.7114 140.13 63.7431 140.211C63.9 140.612 63.9 141.073 63.9 143.822L63.9 143.989C63.9 145.776 63.9144 147.265 63.9288 147.308C63.9576 147.375 64.241 147.385 66.6381 147.385C68.8766 147.385 69.3233 147.375 69.3713 147.318C69.4146 147.265 69.4242 146.194 69.4146 143.052L69.4002 138.858L69.2416 138.402C68.9774 137.643 68.6508 137.143 68.0455 136.577C67.3922 135.957 66.6284 135.544 65.6821 135.294C64.7214 135.044 64.4668 135.02 62.9392 135.02C61.4117 135.025 61.0226 135.063 60.057 135.304C58.8273 135.616 57.6936 136.164 56.7809 136.898C56.6032 137.038 56.4255 137.153 56.387 137.153C56.3198 137.153 56.3102 136.817 56.3102 133.963Z" fill="white"/>
<path d="M137.242 130.678C137.286 130.721 137.3 132.633 137.3 138.983C137.3 143.523 137.286 147.265 137.271 147.308C137.242 147.375 136.964 147.385 134.615 147.385C132.636 147.385 131.973 147.37 131.93 147.327C131.848 147.246 131.848 130.759 131.93 130.678C131.973 130.635 132.631 130.62 134.586 130.62C136.541 130.62 137.199 130.635 137.242 130.678Z" fill="white"/>
<path d="M107.085 134.665L106.979 134.636C106.869 134.607 101.224 134.607 100.96 134.636C100.134 134.727 99.2886 134.9 99.1877 134.996C99.1589 135.02 99.1108 135.039 99.0724 135.039C98.9811 135.039 97.9291 135.544 97.6938 135.702C97.3239 135.947 97.0405 136.207 96.7474 136.557C96.5841 136.754 96.4304 136.908 96.4016 136.898C96.368 136.889 96.3391 136.548 96.3247 135.899L96.3007 134.919L93.8749 134.905C92.5394 134.9 91.401 134.905 91.3385 134.919L91.2328 134.943L91.2568 147.265H96.3487L96.3776 143.758C96.392 141.548 96.4256 140.179 96.4544 140.059C96.5889 139.56 96.8243 139.094 97.1365 138.729C97.5977 138.2 98.472 137.686 99.0916 137.581C99.3078 137.547 100.754 137.518 103.242 137.499L107.061 137.465L107.075 136.067L107.085 134.665Z" fill="white"/>
<path d="M53.0245 97.6092C53.063 97.6332 53.0966 99.7805 53.1446 105.113C53.2359 115.661 53.2311 116.949 53.1254 117.722C52.9044 119.307 52.5249 120.398 51.6747 121.901C51.4201 122.358 50.8965 123.04 50.3441 123.635C49.6427 124.399 49.1191 124.856 48.3602 125.36C47.8846 125.672 46.7798 126.249 46.6453 126.249C46.6068 126.249 46.5588 126.268 46.53 126.292C46.4819 126.34 46.0112 126.489 45.574 126.599C43.9456 127.012 42.1634 126.988 40.4725 126.532C38.0083 125.874 35.5632 123.794 34.247 121.238C34.1077 120.969 33.9444 120.619 33.8819 120.46C33.8243 120.302 33.7522 120.129 33.7282 120.076C33.4064 119.346 33.1133 117.775 33.0797 116.569C32.998 113.514 32.9068 108.528 32.9308 108.461C32.9596 108.384 33.1133 108.379 34.9435 108.389L36.9274 108.403L36.9611 112.15C36.9947 116.142 37.0379 117.16 37.1964 117.823C37.5471 119.307 38.4454 120.672 39.6847 121.604C40.6983 122.367 41.832 122.752 43.1001 122.756C43.5997 122.756 44.3107 122.675 44.6133 122.574C44.6485 122.563 44.695 122.548 44.7466 122.532L44.7475 122.532C44.8505 122.5 44.9739 122.462 45.0697 122.43C45.4107 122.319 46.064 121.978 46.4627 121.695C46.8758 121.407 47.6684 120.6 48.0143 120.114C48.5379 119.379 48.9126 118.534 49.1336 117.578C49.22 117.218 49.2248 116.954 49.2104 113.111C49.2008 110.863 49.1672 107.048 49.1288 104.632C49.0375 99.0503 49.0375 97.6332 49.1191 97.6044C49.2152 97.566 52.9669 97.5708 53.0245 97.6092Z" fill="white"/>
<path d="M128.581 97.835V101.63L126.833 101.644C125.584 101.654 125.065 101.639 125.022 101.601C124.931 101.524 124.921 97.9599 125.012 97.8686C125.055 97.8254 125.502 97.811 126.828 97.8206L128.581 97.835Z" fill="white"/>
<path d="M130.911 105.382C130.018 104.92 129.215 104.671 128.053 104.483C127.366 104.373 125.675 104.32 125.003 104.392C123.177 104.584 122.236 104.81 121.169 105.305C120.444 105.646 119.623 106.203 119.623 106.357C119.623 106.467 121.064 109.345 121.136 109.369C121.169 109.383 121.289 109.33 121.405 109.253C122.389 108.595 123.48 108.293 125.276 108.182C126.444 108.11 127.27 108.172 128.053 108.389C128.86 108.614 129.369 108.874 130.071 109.402C130.767 109.931 131.516 110.959 131.939 111.967C131.986 112.078 132.033 112.187 132.071 112.278C132.114 112.38 132.147 112.458 132.16 112.486C132.376 113.01 132.818 114.753 132.746 114.826C132.727 114.845 122.812 114.869 110.712 114.874C88.9944 114.888 88.7061 114.888 88.4227 114.792C88.1009 114.691 87.6253 114.398 87.2843 114.1C86.8183 113.687 86.2563 112.77 86.0545 112.092C85.8624 111.444 85.8528 111.228 85.8528 107.99C85.8528 105.607 85.8384 104.829 85.7951 104.786C85.7087 104.699 81.9474 104.704 81.8753 104.791C81.8369 104.834 81.8177 106.63 81.8033 110.757L81.8032 110.777V110.778C81.7889 116.622 81.7887 116.671 81.6832 117.146C81.3854 118.524 80.953 119.499 80.2085 120.494C79.805 121.027 78.9643 121.834 78.4167 122.204C77.9507 122.521 77.1005 122.968 76.7258 123.102C75.693 123.463 74.9485 123.626 74.0742 123.683C73.5074 123.717 73.4977 123.736 73.858 124.154C74.2903 124.659 74.5978 125.043 75.5441 126.268L75.9764 126.825H76.2454C76.7258 126.825 78.2053 126.508 78.7193 126.297C78.7292 126.293 78.7427 126.288 78.7589 126.282C78.829 126.256 78.9502 126.212 79.0556 126.177C79.7041 125.951 80.4006 125.595 81.1212 125.115C82.7928 124.005 84.2147 122.228 84.9881 120.292C84.9982 120.267 85.0085 120.241 85.0189 120.215L85.0495 120.137C85.0878 120.041 85.123 119.952 85.1418 119.908C85.1851 119.797 85.3292 119.365 85.4204 119.067C85.5501 118.64 85.7807 117.429 85.8432 116.857C85.8912 116.396 85.9681 116.392 86.2707 116.838C86.8135 117.65 87.5485 118.207 88.4419 118.486L88.759 118.582L112.705 118.596C125.877 118.606 136.704 118.601 136.767 118.587L136.882 118.558L136.848 117.468C136.796 115.767 136.599 114.316 136.2 112.741C136.051 112.15 135.734 111.165 135.571 110.79C135.513 110.666 135.451 110.521 135.431 110.469C135.412 110.416 135.249 110.08 135.071 109.724C134.096 107.774 132.66 106.275 130.911 105.382Z" fill="white"/>
<path d="M65.5813 104.771C68.4731 104.973 70.8269 106.453 72.2536 108.97C72.268 108.996 72.2821 109.022 72.296 109.047C72.3202 109.091 72.3435 109.133 72.3655 109.173L72.3701 109.181C72.4728 109.367 72.5466 109.501 72.5466 109.508C72.5466 109.522 72.6283 109.695 72.7292 109.902C73.0414 110.545 73.4113 111.597 73.6034 112.4C73.6563 112.635 73.7235 112.899 73.7475 112.991C73.7908 113.168 73.9445 114.023 74.0358 114.6C74.1703 115.474 74.2807 117.054 74.2663 117.866L74.2519 118.587L65.9464 118.601C61.0466 118.606 57.6168 118.592 57.5928 118.568C57.5688 118.544 57.5976 118.438 57.6697 118.313C57.7321 118.203 58.0107 117.674 58.2797 117.146C58.5535 116.617 58.8994 115.94 59.0531 115.637C59.2116 115.335 59.375 115.047 59.4182 114.998C59.4903 114.917 59.74 114.912 64.7118 114.902L69.9286 114.888L69.943 114.696C69.9719 114.369 69.7701 113.437 69.5059 112.702C69.0111 111.29 68.1945 110.137 67.0945 109.301C66.3355 108.72 65.5717 108.379 65.0385 108.379C64.9232 108.379 64.8079 108.355 64.7743 108.321C64.7311 108.278 64.7166 107.822 64.7166 106.554C64.7166 104.795 64.7215 104.723 64.9088 104.728C64.9472 104.733 65.2498 104.752 65.5813 104.771Z" fill="white"/>
</svg>
