<?xml version="1.0" encoding="UTF-8" standalone="no" ?>
<!DOCTYPE svg PUBLIC "-//W3C//DTD SVG 1.1//EN" "http://www.w3.org/Graphics/SVG/1.1/DTD/svg11.dtd">
<svg xmlns="http://www.w3.org/2000/svg" xmlns:xlink="http://www.w3.org/1999/xlink" version="1.1" width="1080" height="1080" viewBox="0 0 1080 1080" xml:space="preserve">
<desc>Created with Fabric.js 5.2.4</desc>
<defs>
</defs>
<g transform="matrix(1 0 0 1 540 540)" id="9b6133b3-72fc-4b11-b232-328a253ed307"  >
<rect style="stroke: none; stroke-width: 1; stroke-dasharray: none; stroke-linecap: butt; stroke-dashoffset: 0; stroke-linejoin: miter; stroke-miterlimit: 4; fill: rgb(255,255,255); fill-rule: nonzero; opacity: 1; visibility: hidden;" vector-effect="non-scaling-stroke"  x="-540" y="-540" rx="0" ry="0" width="1080" height="1080" />
</g>
<g transform="matrix(1 0 0 1 540 540)" id="539b27d6-9cf6-4014-a463-9df42883d394"  >
</g>
<g transform="matrix(0.14 0 0 0.14 540 540)"  >
<g style="" vector-effect="non-scaling-stroke"   >
		<g transform="matrix(0.13 0 0 -0.13 0 0)"  >
<path style="stroke: none; stroke-width: 1; stroke-dasharray: none; stroke-linecap: butt; stroke-dashoffset: 0; stroke-linejoin: miter; stroke-miterlimit: 4; fill: rgb(0,0,0); fill-rule: nonzero; opacity: 1;" vector-effect="non-scaling-stroke"  transform=" translate(-20160, -26949.01)" d="M 19667 52043 C 19663 52040 19665 52031 19672 52023 C 19688 52004 19668 51987 19599 51962 C 19546 51943 19525 51942 19109 51945 C 18797 51947 18636 51944 18535 51934 C 18458 51927 18301 51920 18185 51920 C 18066 51920 17923 51913 17855 51905 C 17789 51897 17675 51890 17601 51890 C 17489 51890 17452 51886 17372 51864 C 17299 51844 17263 51839 17224 51844 C 17185 51848 17144 51843 17068 51825 C 17011 51811 16940 51800 16909 51800 C 16878 51800 16790 51794 16714 51786 C 16637 51778 16510 51766 16430 51760 C 16350 51753 16233 51737 16170 51724 C 16107 51711 16033 51700 16006 51700 C 15978 51700 15920 51687 15871 51670 C 15800 51646 15758 51639 15630 51630 C 15471 51620 15325 51597 15140 51554 C 14961 51511 14768 51472 14705 51465 C 14540 51446 14390 51411 14295 51369 C 14251 51350 14128 51327 13982 51311 C 13895 51302 13859 51290 13722 51229 C 13699 51219 13629 51201 13567 51189 C 13390 51156 13320 51139 13246 51108 C 13208 51093 13170 51080 13161 51080 C 13152 51080 13125 51070 13101 51059 C 13076 51048 13006 51028 12944 51015 C 12883 51002 12813 50982 12789 50971 C 12740 50949 12709 50939 12505 50875 C 12428 50851 12345 50822 12320 50812 C 12295 50801 12243 50778 12204 50761 C 12165 50744 12127 50730 12119 50730 C 12076 50730 11942 50687 11901 50660 C 11848 50626 11702 50570 11667 50570 C 11637 50570 11497 50508 11456 50476 C 11437 50462 11400 50446 11374 50440 C 11262 50415 11183 50387 11147 50358 C 11106 50326 11023 50290 10925 50260 C 10869 50244 10779 50199 10720 50159 C 10706 50150 10663 50133 10624 50121 C 10581 50108 10521 50079 10469 50045 C 10423 50015 10356 49980 10320 49969 C 10284 49957 10216 49923 10167 49893 C 10119 49863 10051 49829 10016 49819 C 9981 49808 9918 49777 9876 49750 C 9834 49722 9764 49684 9720 49666 C 9676 49647 9624 49618 9605 49601 C 9586 49584 9531 49552 9482 49529 C 9434 49506 9375 49471 9350 49450 C 9325 49430 9280 49402 9249 49388 C 9192 49362 9117 49315 9046 49260 C 9025 49243 8990 49225 8969 49220 C 8948 49214 8902 49186 8866 49156 C 8830 49127 8770 49084 8733 49062 C 8696 49039 8646 49003 8623 48981 C 8599 48960 8553 48932 8519 48920 C 8485 48907 8443 48882 8426 48865 C 8409 48848 8361 48812 8320 48786 C 8279 48759 8222 48716 8194 48690 C 8166 48664 8121 48631 8094 48617 C 8067 48603 8034 48580 8020 48566 C 8007 48551 7960 48516 7915 48488 C 7871 48459 7803 48407 7765 48371 C 7726 48335 7663 48280 7625 48250 C 7537 48180 7448 48101 7433 48080 C 7427 48071 7402 48051 7378 48034 C 7354 48018 7277 47951 7207 47885 C 7137 47819 7054 47748 7023 47728 C 6962 47688 6448 47182 6425 47140 C 6418 47126 6395 47099 6376 47080 C 6356 47061 6323 47023 6303 46995 C 6283 46968 6230 46906 6186 46859 C 6081 46747 6051 46712 5971 46615 C 5935 46571 5898 46529 5888 46522 C 5878 46515 5852 46483 5831 46452 C 5810 46421 5775 46379 5755 46360 C 5735 46341 5700 46298 5677 46265 C 5655 46232 5613 46179 5583 46147 C 5554 46115 5530 46082 5530 46074 C 5530 46048 5499 45998 5451 45946 C 5425 45918 5382 45864 5356 45825 C 5329 45787 5294 45744 5278 45731 C 5261 45718 5235 45679 5220 45644 C 5204 45610 5176 45565 5157 45543 C 5138 45522 5103 45469 5080 45425 C 5057 45381 5015 45317 4988 45282 C 4961 45248 4930 45197 4920 45169 C 4910 45141 4895 45111 4888 45102 C 4881 45093 4859 45065 4839 45040 C 4819 45015 4785 44959 4764 44915 C 4743 44871 4711 44816 4692 44793 C 4674 44770 4644 44715 4625 44670 C 4606 44625 4572 44564 4550 44535 C 4525 44503 4494 44443 4474 44388 C 4436 44286 4403 44225 4371 44196 C 4359 44185 4340 44145 4328 44106 C 4303 44021 4280 43973 4237 43916 C 4219 43893 4190 43833 4172 43783 C 4154 43734 4125 43671 4107 43645 C 4089 43618 4067 43586 4058 43572 C 4049 43558 4031 43502 4019 43448 C 4002 43371 3989 43338 3963 43304 C 3920 43248 3895 43191 3870 43098 C 3843 42992 3803 42893 3770 42846 C 3748 42816 3735 42778 3720 42705 C 3709 42650 3687 42578 3671 42545 C 3622 42441 3591 42352 3565 42244 C 3551 42186 3526 42106 3509 42067 C 3493 42027 3468 41970 3456 41940 C 3443 41910 3427 41854 3421 41815 C 3399 41689 3387 41646 3349 41563 C 3311 41480 3293 41410 3264 41235 C 3248 41139 3199 40964 3167 40889 C 3148 40845 3125 40714 3111 40566 C 3103 40490 3090 40427 3066 40356 C 3023 40231 2994 40092 2979 39946 C 2973 39885 2960 39790 2950 39735 C 2940 39680 2926 39592 2920 39540 C 2913 39488 2894 39394 2879 39332 C 2863 39270 2850 39197 2850 39171 C 2850 39145 2843 39079 2835 39024 C 2827 38970 2820 38882 2820 38830 C 2820 38778 2813 38676 2806 38604 C 2799 38531 2795 38450 2798 38422 C 2801 38387 2796 38350 2781 38302 C 2758 38226 2739 38200 2717 38219 C 2709 38225 2700 38227 2697 38223 C 2693 38220 2690 38116 2690 37993 C 2690 37846 2687 37771 2680 37775 C 2673 37779 2670 32692 2670 22522 C 2670 7998 2671 7262 2688 7255 C 2697 7251 2734 7247 2770 7244 C 2885 7237 3240 7190 3410 7160 C 3630 7121 3852 7085 4040 7060 C 4191 7039 4473 6994 4635 6964 C 4727 6947 4873 6926 5010 6910 C 5109 6898 5246 6878 5340 6861 C 5370 6856 5447 6842 5510 6831 C 5573 6820 5654 6806 5690 6801 C 5946 6763 6112 6739 6215 6725 C 6281 6716 6400 6696 6480 6680 C 6560 6664 6715 6639 6825 6625 C 7089 6591 7213 6573 7334 6550 C 7390 6540 7480 6524 7535 6515 C 7731 6485 7776 6478 7825 6469 C 7853 6465 7931 6454 8000 6445 C 8113 6431 8209 6417 8370 6390 C 8400 6385 8457 6374 8495 6366 C 8534 6358 8639 6341 8730 6330 C 8929 6304 9186 6266 9295 6245 C 9439 6219 9629 6189 10085 6124 C 10146 6115 10278 6093 10380 6074 C 10482 6055 10642 6030 10735 6019 C 10933 5996 11045 5979 11225 5946 C 11400 5913 11708 5866 11915 5840 C 12007 5828 12260 5786 12340 5770 C 12423 5752 12564 5731 12740 5710 C 12916 5688 12983 5678 13185 5640 C 13317 5616 13626 5569 13880 5535 C 13982 5522 14099 5504 14140 5495 C 14365 5450 14437 5438 14675 5410 C 14839 5390 14936 5374 15085 5345 C 15174 5327 15612 5261 15880 5225 C 15949 5216 16070 5195 16150 5180 C 16289 5152 16343 5144 16688 5100 C 16773 5089 16887 5071 16943 5060 C 17116 5027 17341 4991 17710 4939 C 18027 4894 18052 4890 18059 4885 C 18074 4876 18311 4839 18509 4815 C 18622 4801 18751 4783 18795 4775 C 18839 4766 18909 4753 18950 4746 C 18991 4738 19059 4726 19100 4720 C 19141 4713 19198 4704 19225 4699 C 19253 4695 19392 4675 19535 4655 C 19764 4624 19978 4589 20120 4560 C 20177 4548 20335 4526 20510 4505 C 20584 4496 20717 4476 20805 4460 C 21004 4424 21228 4388 21430 4360 C 21665 4327 21894 4291 22000 4270 C 22110 4248 22247 4228 22445 4204 C 22522 4195 22644 4177 22715 4164 C 22827 4144 23094 4103 23650 4019 C 23724 4008 23841 3987 23910 3974 C 23979 3960 24103 3940 24185 3930 C 24566 3881 24560 3882 24875 3824 C 24919 3816 24987 3805 25025 3800 C 25064 3795 25140 3783 25195 3775 C 25250 3766 25376 3748 25475 3735 C 25574 3721 25705 3701 25765 3690 C 25826 3678 25911 3662 25954 3654 C 25998 3646 26126 3629 26239 3615 C 26352 3601 26533 3574 26640 3555 C 26747 3536 26862 3516 26895 3510 C 27046 3486 27301 3448 27465 3425 C 27564 3411 27677 3393 27715 3385 C 27887 3352 27968 3339 28165 3315 C 28281 3301 28411 3284 28455 3276 C 28637 3243 28759 3222 28835 3210 C 28879 3204 28935 3195 28960 3190 C 28985 3185 29091 3170 29195 3156 C 29493 3115 29565 3104 29755 3065 C 29834 3049 29890 3041 30172 3005 C 30281 2991 30405 2973 30447 2964 C 30490 2956 30550 2945 30580 2940 C 30610 2935 30676 2924 30725 2916 C 30846 2896 31121 2855 31310 2830 C 31491 2806 31480 2808 31635 2776 C 31768 2750 31844 2738 32030 2715 C 32254 2687 32293 2681 32435 2655 C 32640 2617 33042 2555 33210 2535 C 33288 2526 33488 2492 33600 2470 C 33691 2452 33758 2442 34085 2400 C 34168 2389 34271 2374 34315 2365 C 34429 2342 34673 2300 34750 2290 C 34786 2285 34928 2265 35065 2245 C 35203 2225 35342 2205 35375 2200 C 35408 2196 35442 2189 35450 2186 C 35479 2175 35707 2139 35905 2114 C 36015 2100 36204 2072 36325 2050 C 36520 2016 36753 1979 36965 1950 C 37004 1944 37083 1933 37141 1925 C 37312 1901 37406 1883 37431 1869 C 37467 1850 37621 1840 37637 1856 C 37648 1866 37650 5247 37650 19944 C 37650 31988 37647 38020 37640 38020 C 37634 38020 37630 38088 37630 38203 C 37630 38303 37626 38391 37621 38398 C 37615 38408 37607 38402 37591 38375 C 37580 38355 37566 38341 37561 38345 C 37555 38348 37542 38376 37530 38408 C 37513 38452 37506 38501 37499 38625 C 37494 38713 37485 38818 37480 38858 C 37474 38898 37470 38961 37470 38998 C 37470 39035 37462 39119 37451 39185 C 37441 39251 37427 39346 37420 39395 C 37414 39445 37396 39537 37380 39600 C 37364 39663 37344 39780 37335 39860 C 37326 39940 37310 40055 37299 40115 C 37289 40176 37280 40234 37280 40246 C 37280 40257 37266 40306 37249 40356 C 37216 40453 37196 40547 37179 40685 C 37166 40790 37115 40996 37070 41125 C 37052 41175 37030 41266 37020 41328 C 37000 41446 36971 41545 36922 41670 C 36905 41711 36878 41813 36860 41895 C 36836 42014 36820 42064 36784 42136 C 36753 42200 36734 42253 36724 42311 C 36705 42423 36695 42450 36650 42518 C 36621 42561 36605 42604 36580 42699 C 36546 42836 36503 42949 36465 43000 C 36451 43019 36434 43065 36425 43109 C 36399 43227 36390 43251 36350 43305 C 36314 43354 36282 43430 36260 43520 C 36254 43545 36224 43607 36194 43658 C 36163 43709 36130 43781 36120 43818 C 36108 43860 36081 43915 36048 43965 C 36019 44009 35983 44080 35968 44123 C 35952 44166 35917 44235 35890 44276 C 35859 44322 35834 44374 35823 44413 C 35814 44447 35795 44491 35780 44510 C 35721 44588 35691 44638 35665 44705 C 35649 44746 35619 44795 35594 44823 C 35568 44852 35538 44903 35518 44952 C 35500 44996 35469 45051 35449 45074 C 35429 45097 35396 45151 35375 45194 C 35354 45238 35318 45295 35294 45320 C 35270 45346 35237 45396 35221 45432 C 35204 45468 35173 45516 35151 45539 C 35129 45562 35095 45611 35075 45648 C 35056 45685 35018 45741 34991 45772 C 34964 45803 34932 45846 34919 45867 C 34906 45888 34872 45933 34843 45967 C 34814 46001 34782 46047 34771 46068 C 34760 46089 34725 46139 34693 46178 C 34661 46218 34622 46268 34605 46289 C 34557 46352 34460 46469 34400 46534 C 34369 46568 34330 46615 34313 46640 C 34296 46665 34268 46699 34250 46715 C 34233 46732 34198 46774 34173 46810 C 34112 46896 34102 46907 33599 47410 C 33360 47649 33142 47860 33115 47879 C 33087 47898 33043 47935 33015 47961 C 32881 48086 32830 48130 32775 48170 C 32742 48194 32687 48239 32653 48272 C 32619 48304 32588 48330 32583 48330 C 32578 48330 32546 48357 32512 48389 C 32478 48422 32429 48461 32403 48476 C 32377 48491 32335 48522 32310 48545 C 32285 48568 32237 48601 32202 48620 C 32167 48638 32135 48661 32130 48671 C 32124 48681 32077 48718 32025 48755 C 31973 48791 31909 48839 31883 48862 C 31856 48885 31812 48913 31785 48925 C 31757 48938 31715 48964 31691 48985 C 31666 49005 31628 49031 31606 49042 C 31554 49068 31475 49124 31430 49166 C 31411 49184 31369 49208 31337 49220 C 31306 49232 31257 49261 31230 49284 C 31203 49308 31141 49346 31093 49370 C 31044 49394 30980 49432 30950 49454 C 30920 49477 30868 49507 30835 49521 C 30802 49535 30740 49572 30698 49602 C 30648 49638 30603 49662 30570 49670 C 30538 49678 30491 49702 30444 49736 C 30354 49801 30329 49814 30271 49830 C 30246 49836 30208 49857 30186 49876 C 30142 49914 30047 49962 29982 49979 C 29959 49986 29910 50012 29873 50037 C 29789 50094 29740 50116 29674 50125 C 29626 50131 29598 50145 29471 50225 C 29441 50243 29398 50262 29376 50265 C 29326 50274 29205 50328 29148 50368 C 29120 50388 29069 50408 29001 50425 C 28896 50451 28871 50462 28813 50504 C 28795 50517 28741 50539 28693 50554 C 28607 50580 28555 50598 28477 50626 C 28456 50634 28423 50651 28402 50664 C 28380 50679 28318 50700 28251 50715 C 28188 50729 28125 50750 28110 50760 C 28096 50770 28064 50786 28039 50795 C 28015 50804 27975 50820 27950 50830 C 27925 50840 27856 50860 27795 50875 C 27690 50900 27630 50922 27513 50976 C 27484 50989 27410 51009 27348 51020 C 27276 51033 27203 51054 27145 51079 C 27033 51126 27011 51133 26880 51161 C 26723 51194 26647 51214 26515 51259 C 26441 51284 26351 51305 26280 51316 C 26165 51332 26033 51362 25999 51380 C 25989 51386 25953 51396 25918 51404 C 25883 51412 25819 51427 25775 51438 C 25731 51449 25632 51466 25555 51475 C 25469 51485 25373 51504 25305 51525 C 25245 51543 25175 51560 25150 51563 C 25125 51566 25062 51578 25010 51588 C 24958 51599 24881 51611 24840 51615 C 24673 51631 24479 51660 24385 51684 C 24282 51710 24064 51741 23855 51760 C 23789 51766 23688 51775 23630 51781 C 23572 51787 23471 51795 23405 51800 C 23339 51804 23248 51818 23203 51829 C 23144 51844 23106 51849 23068 51844 C 23027 51839 22993 51844 22920 51864 C 22840 51886 22804 51890 22690 51890 C 22616 51890 22515 51897 22465 51905 C 22404 51915 22300 51920 22145 51920 C 22019 51920 21884 51925 21845 51931 C 21806 51936 21551 51942 21275 51944 C 20834 51946 20767 51949 20708 51965 C 20634 51984 20611 52002 20629 52023 C 20635 52031 20637 52040 20633 52043 C 20630 52047 20412 52050 20150 52050 C 19888 52050 19670 52047 19667 52043 z M 37584 38072 C 37573 38041 37562 38038 37547 38061 C 37539 38073 37540 38100 37550 38151 L 37564 38225 L 37579 38162 C 37589 38118 37591 38091 37584 38072 z M 13576 31662 C 13584 31657 13591 31210 13601 30100 C 13620 27904 13619 27636 13597 27475 C 13551 27145 13472 26918 13295 26605 C 13242 26510 13133 26368 13018 26244 C 12872 26085 12763 25990 12605 25885 C 12506 25820 12276 25700 12248 25700 C 12240 25700 12230 25696 12224 25691 C 12214 25681 12116 25650 12025 25627 C 11686 25541 11315 25546 10963 25641 C 10450 25778 9941 26211 9667 26743 C 9638 26799 9604 26872 9591 26905 C 9579 26938 9564 26974 9559 26985 C 9492 27137 9431 27464 9424 27715 C 9407 28351 9388 29389 9393 29403 C 9399 29419 9431 29420 9812 29418 L 10225 29415 L 10232 28635 C 10239 27804 10248 27592 10281 27454 C 10354 27145 10541 26861 10799 26667 C 11010 26508 11246 26428 11510 26427 C 11614 26427 11762 26444 11825 26465 C 11847 26472 11890 26485 11920 26495 C 11991 26518 12127 26589 12210 26648 C 12296 26708 12461 26876 12533 26977 C 12642 27130 12720 27306 12766 27505 C 12784 27580 12785 27635 12782 28435 C 12780 28903 12773 29697 12765 30200 C 12746 31362 12746 31657 12763 31663 C 12783 31671 13564 31670 13576 31662 z M 29305 31220 L 29305 30825 L 28941 30822 C 28681 30820 28573 30823 28564 30831 C 28545 30847 28543 31589 28562 31608 C 28571 31617 28664 31620 28940 31618 L 29305 31615 L 29305 31220 z M 29195 30231 C 29437 30192 29604 30140 29790 30044 C 30154 29858 30453 29546 30656 29140 C 30693 29066 30727 28996 30731 28985 C 30735 28974 30748 28944 30760 28918 C 30794 28840 30860 28635 30891 28512 C 30974 28184 31015 27882 31026 27528 L 31033 27301 L 31009 27295 C 30996 27292 28742 27291 26000 27293 L 21015 27296 L 20949 27316 C 20763 27374 20610 27490 20497 27659 C 20434 27752 20418 27751 20408 27655 C 20395 27536 20347 27284 20320 27195 C 20301 27133 20271 27043 20262 27020 C 20256 27006 20242 26970 20230 26940 C 20069 26537 19773 26167 19425 25936 C 19275 25836 19130 25762 18995 25715 C 18968 25706 18936 25694 18925 25690 C 18818 25646 18510 25580 18410 25580 L 18354 25580 L 18264 25696 C 18067 25951 18003 26031 17913 26136 C 17838 26223 17840 26227 17958 26234 C 18140 26246 18295 26280 18510 26355 C 18588 26383 18765 26476 18862 26542 C 18976 26619 19151 26787 19235 26898 C 19390 27105 19480 27308 19542 27595 C 19564 27694 19564 27704 19567 28925 C 19570 29784 19574 30158 19582 30167 C 19597 30185 20380 30186 20398 30168 C 20407 30159 20410 29997 20410 29501 C 20410 28827 20412 28782 20452 28647 C 20494 28506 20611 28315 20708 28229 C 20779 28167 20878 28106 20945 28085 C 21004 28065 21064 28065 25585 28068 C 28104 28069 30168 28074 30172 28078 C 30187 28093 30095 28456 30050 28565 C 30045 28576 30025 28624 30004 28673 C 29916 28883 29760 29097 29615 29207 C 29469 29317 29363 29371 29195 29418 C 29032 29463 28860 29476 28617 29461 C 28243 29438 28016 29375 27811 29238 C 27787 29222 27762 29211 27755 29214 C 27740 29219 27440 29818 27440 29841 C 27440 29873 27611 29989 27762 30060 C 27984 30163 28180 30210 28560 30250 C 28700 30265 29052 30254 29195 30231 z M 16190 30171 C 16792 30129 17282 29821 17579 29297 C 17612 29237 17640 29187 17640 29185 C 17640 29182 17657 29146 17678 29103 C 17743 28969 17820 28750 17860 28583 C 17871 28534 17885 28479 17890 28460 C 17899 28423 17931 28245 17950 28125 C 17978 27943 18001 27614 17998 27445 L 17995 27295 L 16266 27292 C 15246 27291 14532 27294 14527 27299 C 14522 27304 14528 27326 14543 27352 C 14556 27375 14614 27485 14670 27595 C 14727 27705 14799 27846 14831 27909 C 14864 27972 14898 28032 14907 28042 C 14922 28059 14974 28060 16009 28062 L 17095 28065 L 17098 28105 C 17104 28173 17062 28367 17007 28520 C 16904 28814 16734 29054 16505 29228 C 16347 29349 16188 29420 16077 29420 C 16053 29420 16029 29425 16022 29432 C 16013 29441 16010 29536 16010 29800 C 16010 30166 16011 30181 16050 30180 C 16058 30179 16121 30175 16190 30171 z M 29464 24824 C 29479 24818 29480 24656 29480 23085 C 29480 21635 29478 21351 29466 21341 C 29457 21333 29301 21331 28904 21332 L 28355 21335 L 28350 21509 C 28347 21624 28341 21685 28334 21687 C 28328 21689 28303 21674 28279 21654 C 28166 21559 27957 21444 27807 21395 C 27608 21330 27406 21295 27133 21279 C 26952 21268 26894 21269 26690 21284 C 26561 21293 26433 21305 26405 21311 C 26089 21375 25988 21410 25775 21525 C 25691 21570 25529 21709 25458 21797 C 25330 21955 25272 22070 25218 22270 C 25197 22348 25195 22375 25195 22615 C 25196 22854 25198 22882 25218 22960 C 25276 23174 25354 23319 25486 23460 C 25641 23624 25813 23734 26010 23795 C 26040 23804 26083 23818 26105 23825 C 26142 23837 26216 23853 26348 23879 C 26376 23885 26489 23897 26598 23906 C 26805 23923 27107 23921 27300 23900 C 27712 23857 28017 23750 28287 23554 C 28299 23545 28314 23541 28320 23545 C 28327 23549 28330 23753 28330 24185 C 28330 24682 28333 24819 28343 24823 C 28361 24831 29445 24831 29464 24824 z M 10322 24788 C 10324 24786 10327 24349 10330 23816 C 10333 23165 10338 22846 10345 22843 C 10355 22840 10448 22921 10800 23240 C 10900 23331 11014 23434 11054 23469 C 11093 23504 11192 23594 11273 23669 C 11355 23744 11432 23810 11443 23817 C 11460 23826 11616 23829 12078 23830 C 12605 23830 12690 23828 12690 23816 C 12690 23808 12682 23795 12671 23788 C 12655 23776 12586 23716 12261 23430 C 12207 23383 12099 23289 12020 23220 C 11878 23096 11787 23015 11552 22807 C 11485 22747 11430 22693 11430 22686 C 11430 22672 11909 22212 12578 21583 C 12727 21442 12850 21321 12850 21314 C 12850 21302 12739 21300 12195 21300 L 11540 21300 L 11492 21342 C 11466 21365 11337 21490 11205 21620 C 10831 21987 10360 22435 10344 22438 C 10332 22441 10330 22364 10330 21887 C 10330 21581 10327 21325 10324 21316 C 10318 21302 10260 21300 9771 21300 C 9359 21300 9221 21303 9212 21312 C 9195 21329 9195 24761 9212 24778 C 9221 24787 9359 24790 9772 24790 C 10073 24790 10321 24789 10322 24788 z M 14254 24774 C 14257 24765 14260 24459 14260 24094 C 14260 23500 14262 23430 14276 23430 C 14284 23430 14321 23454 14358 23483 C 14548 23636 14784 23750 15040 23815 C 15241 23865 15322 23873 15640 23874 C 15958 23874 16011 23869 16211 23817 C 16408 23765 16567 23679 16703 23550 C 16829 23432 16897 23328 16952 23170 L 16985 23075 L 16988 22202 C 16990 21548 16988 21325 16979 21314 C 16969 21302 16876 21300 16410 21300 C 15911 21300 15852 21302 15846 21316 C 15843 21325 15840 21635 15840 22007 C 15840 22747 15841 22727 15779 22855 C 15721 22975 15609 23073 15473 23123 C 15270 23199 14948 23198 14735 23123 C 14619 23081 14550 23039 14459 22953 C 14393 22889 14365 22854 14337 22798 C 14265 22654 14267 22677 14262 21965 C 14260 21536 14255 21321 14248 21313 C 14233 21295 13160 21294 13142 21312 C 13125 21329 13125 24761 13142 24778 C 13151 24787 13289 24790 13701 24790 C 14190 24790 14248 24788 14254 24774 z M 31108 24778 C 31117 24769 31120 24371 31120 23049 C 31120 22104 31117 21325 31114 21316 C 31108 21302 31050 21300 30561 21300 C 30149 21300 30011 21303 30002 21312 C 29985 21329 29985 24761 30002 24778 C 30011 24787 30148 24790 30555 24790 C 30962 24790 31099 24787 31108 24778 z M 24808 23954 L 24830 23948 L 24828 23656 L 24825 23365 L 24030 23358 C 23512 23354 23211 23348 23166 23341 C 23037 23319 22855 23212 22759 23102 C 22694 23026 22645 22929 22617 22825 C 22611 22800 22604 22515 22601 22055 L 22595 21325 L 22065 21325 L 21535 21325 L 21532 22607 L 21530 23890 L 21552 23895 C 21565 23898 21802 23899 22080 23898 L 22585 23895 L 22590 23691 C 22593 23556 22599 23485 22606 23483 C 22612 23481 22644 23513 22678 23554 C 22739 23627 22798 23681 22875 23732 C 22924 23765 23143 23870 23162 23870 C 23170 23870 23180 23874 23186 23879 C 23207 23899 23383 23935 23555 23954 C 23610 23960 24785 23960 24808 23954 z M 19770 23911 C 20016 23882 20260 23834 20390 23790 C 20636 23706 20780 23575 20862 23360 C 20883 23307 20884 23286 20887 22685 C 20890 22267 20894 22056 20902 22037 C 20923 21982 20952 21970 21060 21970 C 21140 21970 21159 21967 21164 21954 C 21167 21945 21170 21788 21170 21605 L 21170 21271 L 21138 21265 C 21120 21262 20898 21260 20645 21263 C 20160 21266 20157 21267 20063 21315 C 19989 21352 19890 21499 19890 21570 C 19890 21604 19873 21601 19820 21558 C 19660 21426 19481 21333 19291 21283 C 19183 21255 19034 21232 18910 21225 C 18653 21210 18295 21222 18190 21250 C 18171 21255 18115 21269 18066 21281 C 18017 21292 17969 21305 17961 21310 C 17952 21314 17911 21333 17870 21351 C 17704 21426 17555 21570 17479 21726 C 17425 21838 17401 21947 17400 22082 C 17400 22259 17445 22412 17531 22520 C 17569 22568 17669 22655 17700 22667 C 17708 22670 17722 22679 17730 22685 C 17756 22706 17920 22768 18020 22793 C 18161 22830 18376 22865 18515 22876 C 18554 22878 18653 22887 18735 22895 C 18818 22903 18962 22916 19055 22925 C 19712 22985 19725 22986 19779 23012 C 19844 23044 19867 23111 19836 23185 C 19811 23243 19739 23276 19565 23308 C 19487 23322 19341 23325 18440 23330 L 17405 23335 L 17402 23619 C 17400 23825 17403 23906 17411 23917 C 17422 23929 17585 23930 18544 23927 C 19357 23925 19694 23920 19770 23911 z" stroke-linecap="round" />
</g>
		<g transform="matrix(0.13 0 0 -0.13 957 579.59)"  >
<path style="stroke: none; stroke-width: 1; stroke-dasharray: none; stroke-linecap: butt; stroke-dashoffset: 0; stroke-linejoin: miter; stroke-miterlimit: 4; fill: rgb(0,0,0); fill-rule: nonzero; opacity: 1;" vector-effect="non-scaling-stroke"  transform=" translate(-27337.54, -22602.06)" d="M 27055 23245 C 26886 23229 26795 23207 26685 23153 C 26520 23074 26392 22905 26361 22729 C 26326 22525 26375 22349 26509 22208 C 26636 22073 26734 22020 26960 21964 C 27023 21949 27074 21946 27290 21946 C 27511 21947 27559 21950 27648 21968 C 27705 21980 27760 21994 27770 22000 C 27780 22005 27797 22010 27806 22010 C 27816 22010 27869 22032 27925 22059 C 28093 22142 28222 22261 28291 22398 C 28324 22464 28325 22467 28325 22600 C 28325 22734 28324 22736 28290 22804 C 28253 22878 28157 22989 28081 23044 C 28020 23089 27851 23173 27780 23193 C 27686 23221 27580 23239 27453 23250 C 27306 23262 27225 23261 27055 23245 z" stroke-linecap="round" />
</g>
		<g transform="matrix(0.13 0 0 -0.13 -136.53 640.72)"  >
<path style="stroke: none; stroke-width: 1; stroke-dasharray: none; stroke-linecap: butt; stroke-dashoffset: 0; stroke-linejoin: miter; stroke-miterlimit: 4; fill: rgb(0,0,0); fill-rule: nonzero; opacity: 1;" vector-effect="non-scaling-stroke"  transform=" translate(-19136.05, -22143.6)" d="M 19725 22481 C 19714 22476 19678 22470 19645 22466 C 19612 22462 19549 22453 19505 22445 C 19461 22437 19376 22424 19315 22415 C 19255 22406 19167 22392 19120 22385 C 19073 22377 18986 22364 18925 22355 C 18564 22304 18465 22260 18430 22137 C 18420 22099 18421 22084 18434 22039 C 18458 21960 18497 21910 18569 21868 C 18657 21817 18743 21800 18914 21800 C 19123 21800 19337 21845 19461 21915 C 19485 21929 19514 21944 19526 21949 C 19567 21967 19700 22081 19740 22132 C 19818 22230 19855 22334 19848 22435 L 19845 22485 L 19795 22487 C 19768 22488 19736 22485 19725 22481 z" stroke-linecap="round" />
</g>
</g>
</g>
</svg>