<svg width="48" height="68" viewBox="0 0 48 68" fill="none" xmlns="http://www.w3.org/2000/svg">
<path d="M47.9217 43.1289C47.9217 51.2463 47.9217 59.3637 47.9217 67.4811C47.9217 68.0609 47.9217 68.0428 47.3531 67.9522C46.3261 67.7891 45.2991 67.608 44.2537 67.4449C42.7132 67.2093 41.1543 66.9919 39.6138 66.7563C38.6968 66.6114 37.7981 66.4846 36.8812 66.3396C35.1389 66.0678 33.3966 65.8142 31.6543 65.5424C30.5906 65.3793 29.5453 65.1981 28.4999 65.035C27.8213 64.9263 27.1428 64.8538 26.4642 64.7451C25.4188 64.582 24.3735 64.4009 23.3281 64.2378C22.6129 64.1291 21.9159 64.0385 21.2007 63.9298C20.1003 63.7667 19.0183 63.5855 17.9179 63.4043C17.2393 63.2956 16.5791 63.2231 15.9005 63.1144C14.8368 62.9513 13.7915 62.7701 12.7461 62.607C12.0492 62.4983 11.3339 62.4077 10.637 62.299C9.55499 62.136 8.49129 61.9548 7.40924 61.7917C6.3272 61.6286 5.24516 61.4836 4.16311 61.3206C2.95269 61.1394 1.76061 60.9401 0.550191 60.7408C0.531851 60.7408 0.513512 60.7408 0.513512 60.7408C0 60.6683 0 60.6683 0 60.1609C0 56.8995 0 53.6199 0 50.3584C0 44.2523 0 38.1461 0 32.0399C0 27.9268 0 23.8138 0.0183397 19.7007C0.0183397 19.1571 0.0183397 18.6135 0.165057 18.0881C0.275096 17.7076 0.238416 17.2908 0.311775 16.8922C0.403474 16.3124 0.495172 15.7507 0.64189 15.189C0.788607 14.5911 0.990344 13.9931 1.17374 13.3952C1.2471 13.1596 1.32046 12.9241 1.41216 12.6885C1.66891 12.0906 1.92567 11.4746 2.20076 10.8766C2.47586 10.3149 2.75096 9.73511 3.11775 9.20965C3.63126 8.44864 4.19979 7.72387 4.78666 7.01722C5.50191 6.12938 6.36388 5.40461 7.28086 4.7342C7.94109 4.24498 8.65634 3.81011 9.35325 3.39337C9.90344 3.06723 10.4903 2.77732 11.0772 2.50553C11.499 2.30622 11.9575 2.14314 12.3976 1.96195C12.8011 1.79888 13.2046 1.65392 13.6081 1.50897C13.8648 1.41837 14.1216 1.32778 14.3967 1.2553C14.8185 1.14659 15.2586 1.03787 15.6805 0.947274C16.1023 0.856678 16.5057 0.747962 16.9275 0.657366C16.9826 0.639247 17.0376 0.621128 17.0743 0.621128C17.6978 0.530531 18.3214 0.458054 18.9449 0.367458C19.3484 0.3131 19.7519 0.258743 20.1737 0.204385C20.3387 0.186266 20.5221 0.186266 20.7055 0.168147C21.5858 0.113789 22.4478 0.0413119 23.3281 0.00507339C23.8233 -0.0130459 24.3185 0.0231926 24.8136 0.0231926C24.832 0.0231926 24.8503 0.0231926 24.887 0.0231926C25.7489 0.0775504 26.5926 0.113789 27.4545 0.168147C27.748 0.186266 28.0231 0.240624 28.3165 0.258743C28.5916 0.294981 28.885 0.3131 29.1601 0.349339C29.857 0.458054 30.554 0.584889 31.2509 0.711724C31.691 0.784201 32.1312 0.874797 32.5713 0.983512C32.8648 1.05599 33.1582 1.11035 33.4333 1.21906C34.1302 1.45461 34.8271 1.69016 35.524 1.94383C36.0925 2.16126 36.6794 2.37869 37.2296 2.63236C37.7615 2.88603 38.2933 3.15782 38.7885 3.46585C39.3754 3.81011 39.9439 4.1725 40.4757 4.57112C41.2093 5.15094 41.9429 5.73075 42.5848 6.40116C43.2267 7.05346 43.8136 7.77823 44.3821 8.503C44.7305 8.95598 45.024 9.46332 45.2991 9.97066C45.5558 10.4236 45.8126 10.8947 46.0327 11.3658C46.2161 11.7645 46.3628 12.1812 46.5278 12.5979C46.6379 12.8697 46.7296 13.1234 46.8396 13.3952C46.9313 13.6489 47.0413 13.9206 47.0964 14.1924C47.2614 14.9172 47.4265 15.6601 47.5549 16.403C47.6466 16.856 47.6282 17.3271 47.7749 17.7619C48.1234 18.8672 47.9583 20.0087 47.9767 21.1321C47.94 28.4704 47.9217 35.8087 47.9217 43.1289ZM43.6302 29.1952C43.4468 29.177 43.3184 29.1771 43.19 29.1589C42.273 29.0683 41.3927 28.7422 40.5308 28.4523C39.9806 28.2711 39.4304 28.0718 38.8252 28.0718C38.4584 28.0718 38.1466 28.2167 37.9449 28.5248C37.7981 28.7784 37.6698 29.0502 37.5414 29.3039C37.3947 29.6119 37.413 29.63 37.7248 29.8293C37.7615 29.7569 37.7981 29.6663 37.8532 29.5938C38.0366 29.2858 38.2933 29.0865 38.6601 29.1046C38.8252 29.1227 39.0086 29.1227 39.1736 29.1771C39.8889 29.3945 40.5858 29.63 41.2827 29.8475C41.4111 29.8837 41.5394 29.9199 41.7228 29.9924C41.4844 30.1374 41.301 30.2461 41.1176 30.3548C39.9255 31.0433 38.6601 31.4963 37.2663 31.4963C32.3329 31.5144 27.3812 31.4963 22.4478 31.4963C21.7509 31.4963 21.1824 31.2064 20.7605 30.6447C20.6505 30.4998 20.5588 30.3548 20.4488 30.1917C20.2654 30.536 20.1187 30.844 19.9536 31.152C19.8986 31.2608 19.9169 31.3332 19.9903 31.4238C20.2837 31.8043 20.5772 32.1848 20.8706 32.5835C20.9806 32.7284 20.9806 32.8915 20.9073 33.0546C20.2837 34.3592 18.9082 35.1383 17.4411 35.0658C17.3494 35.0658 17.2577 35.0477 17.1293 35.0296C17.1843 35.1564 17.1843 35.2651 17.2577 35.3014C17.6061 35.5369 17.9546 35.8449 18.358 35.9899C19.1283 36.2798 19.8069 35.9718 20.3754 35.4282C20.9073 34.939 21.1824 34.3048 21.2924 33.5981C21.3474 33.3082 21.3841 33.0183 21.4208 32.7465C21.7142 32.7828 21.9893 32.8734 22.2461 32.8734C26.941 32.8734 31.6177 32.8553 36.3126 32.8915C37.8348 32.8915 39.1736 32.4385 40.4024 31.5869C40.9892 31.1883 41.5578 30.7715 42.1446 30.3729C42.3647 30.228 42.6215 30.1917 42.8966 30.228C42.9516 30.228 43.0616 30.2098 43.08 30.1736C43.245 29.8475 43.4284 29.5213 43.6302 29.1952ZM37.6514 40.3747C37.3213 40.2117 37.0462 40.0486 36.7528 39.958C35.8541 39.6862 34.9555 39.6862 34.0385 39.8493C32.9748 40.0305 32.2045 40.8458 32.2412 41.9874C32.2779 42.8571 32.663 43.4731 33.4333 43.8718C33.8918 44.1073 34.387 44.1617 34.9005 44.1798C35.7257 44.216 36.551 44.1617 37.2846 43.7087C37.3947 43.6362 37.4864 43.5637 37.6514 43.455C37.6514 43.6181 37.6514 43.7268 37.6514 43.8355C37.6331 43.9986 37.6881 44.0892 37.8715 44.0711C38.1283 44.0529 38.385 44.0711 38.6418 44.0711C38.9352 44.0711 39.2286 44.0711 39.5404 44.0711C39.5404 42.1142 39.5404 40.1935 39.5404 38.2367C38.9352 38.2367 38.3483 38.2367 37.7431 38.2367C37.7064 38.2367 37.6331 38.3454 37.6331 38.4179C37.6147 38.7802 37.6331 39.1426 37.6331 39.505C37.6514 39.7768 37.6514 40.0667 37.6514 40.3747ZM13.5714 38.2729C12.9478 38.2729 12.361 38.2729 11.7741 38.2729C11.7374 38.2729 11.6641 38.3816 11.6641 38.436C11.6641 40.266 11.6641 42.0961 11.6641 43.908C11.6641 44.0529 11.7191 44.1073 11.8658 44.1073C12.361 44.1073 12.8561 44.1073 13.3513 44.1073C13.5164 44.1073 13.5714 44.0529 13.5714 43.8899C13.553 43.3463 13.5714 42.8027 13.5714 42.2591C13.5714 41.5525 13.9198 41.1176 14.6167 40.9908C14.8368 40.9546 15.0936 40.9364 15.3137 40.9727C15.9922 41.0452 16.3223 41.4257 16.3223 42.0961C16.3223 42.694 16.3223 43.3101 16.3223 43.908C16.3223 44.0711 16.3774 44.1254 16.5241 44.1254C17.0192 44.1254 17.5328 44.1254 18.0279 44.1254C18.193 44.1254 18.2297 44.0711 18.2297 43.908C18.2297 43.0926 18.2297 42.2773 18.2297 41.4619C18.2297 40.8458 17.9362 40.3385 17.3677 40.103C16.2306 39.6137 15.0936 39.7043 14.0115 40.3023C13.8648 40.3747 13.7364 40.4835 13.5714 40.6103C13.5714 39.7949 13.5714 39.052 13.5714 38.2729ZM18.9449 40.7009C19.9719 40.7009 20.9806 40.7009 21.971 40.7009C22.2644 40.7009 22.5395 40.7552 22.8329 40.7915C22.998 40.8096 23.1447 40.864 23.1264 41.0814C23.108 41.2807 22.9613 41.3169 22.7963 41.3351C22.3011 41.3713 21.8243 41.4257 21.3291 41.4619C20.7605 41.5163 20.192 41.5344 19.6418 41.7518C19.3667 41.8605 19.1467 42.0236 19.0366 42.2954C18.7982 42.8571 18.9633 43.4912 19.4401 43.8718C19.7702 44.1254 20.1553 44.2341 20.5588 44.2523C21.2741 44.3066 21.9893 44.3066 22.6312 43.9623C22.8146 43.8718 22.9797 43.7449 23.1447 43.6362C23.2181 43.908 23.3648 44.1617 23.6766 44.1798C24.2084 44.216 24.7586 44.1798 25.3271 44.1798C25.3271 43.8174 25.3271 43.4913 25.3271 43.147C25.3271 43.1107 25.2354 43.0383 25.1804 43.0383C24.942 43.0383 24.8686 42.9114 24.8686 42.694C24.8686 42.1504 24.8686 41.6068 24.8686 41.0633C24.8686 40.4835 24.5935 40.0848 24.025 39.958C23.4932 39.8312 22.9613 39.7587 22.4295 39.7406C21.3474 39.7043 20.2654 39.7225 19.1833 39.7225C19.11 39.7225 19.0366 39.7225 18.9633 39.7406C18.9449 40.0667 18.9449 40.3747 18.9449 40.7009ZM10.8938 39.9036C10.1785 39.9036 9.55499 39.9036 8.9131 39.9036C8.8214 39.9036 8.7297 39.958 8.65634 40.0124C8.28955 40.3385 7.92275 40.6646 7.55596 40.9908C7.35422 41.172 7.13415 41.3713 6.91407 41.5525C6.89573 41.5344 6.87739 41.5344 6.85905 41.5163C6.85905 40.4291 6.85905 39.3601 6.85905 38.2548C6.29052 38.2548 5.74033 38.2548 5.20848 38.2548C5.00674 38.2548 4.95172 38.3091 4.95172 38.5085C4.95172 40.2841 4.95172 42.0779 4.95172 43.8536C4.95172 43.9261 4.95172 44.0167 4.97006 44.0892C5.61195 44.0892 6.21716 44.0892 6.87739 44.0892C6.87739 43.455 6.87739 42.839 6.87739 42.1685C6.98743 42.2773 7.06079 42.3316 7.11581 42.386C7.666 42.9114 8.21619 43.4369 8.76638 43.9623C8.85808 44.0348 8.98646 44.1073 9.09649 44.1073C9.72005 44.1254 10.3253 44.1073 10.9488 44.1073C11.0038 44.1073 11.0405 44.0892 11.1322 44.0711C10.3069 43.2919 9.51831 42.549 8.71136 41.788C9.44495 41.1539 10.1419 40.5559 10.8938 39.9036ZM5.09844 31.3151C4.8967 31.3514 4.73164 31.4057 4.65829 31.6231C4.38319 32.3842 4.21813 33.1814 4.27315 33.9968C4.32817 34.9571 4.8967 35.6456 5.81369 35.8631C7.15249 36.1892 9.0048 35.7 9.75672 33.8699C10.1602 32.8734 10.3619 31.8406 10.3436 30.7715C10.3253 28.9959 10.2519 27.2202 10.2152 25.4264C10.1969 24.9553 10.2152 24.4842 10.2152 23.9406C10.0868 24.0674 9.95846 24.158 9.90344 24.2667C9.75673 24.5385 9.61001 24.8103 9.49997 25.1002C9.40827 25.3539 9.29823 25.6257 9.29823 25.8975C9.31657 27.0209 9.37159 28.1624 9.40827 29.2858C9.44495 30.4635 9.49997 31.6413 9.53665 32.819C9.53665 32.9459 9.51831 33.0908 9.44495 33.1814C9.22487 33.4532 9.0048 33.725 8.7297 33.9243C7.92275 34.5041 7.00577 34.6309 6.0521 34.486C5.22682 34.3592 4.82334 33.8881 4.78666 33.0727C4.76832 32.8371 4.805 32.6016 4.84168 32.3842C4.8967 32.0399 5.00674 31.6956 5.09844 31.3151ZM27.803 44.0892C27.803 43.9805 27.8213 43.908 27.8213 43.8174C27.8213 43.2013 27.8213 42.6034 27.8213 41.9874C27.8213 41.172 28.3165 40.6828 29.1418 40.6646C29.8754 40.6646 30.6273 40.6646 31.3609 40.6646C31.4343 40.6646 31.526 40.6646 31.5993 40.6646C31.5993 40.3204 31.5993 40.0124 31.5993 39.6862C30.8474 39.6862 30.1138 39.65 29.3802 39.7043C28.83 39.7406 28.3348 39.958 27.9497 40.3929C27.913 40.4291 27.8764 40.4472 27.803 40.5016C27.803 40.2479 27.803 40.0305 27.803 39.7949C27.2895 39.7949 26.7943 39.813 26.2991 39.7949C26.0791 39.7949 26.024 39.8493 26.024 40.0667C26.024 41.3351 26.024 42.6034 26.024 43.8718C26.024 43.9442 26.024 44.0348 26.0424 44.1254C26.6293 44.0892 27.1978 44.0892 27.803 44.0892ZM42.3647 38.2729C41.7595 38.2729 41.191 38.2729 40.6041 38.2729C40.4391 38.2729 40.4757 38.3816 40.4757 38.4722C40.4757 40.2841 40.4757 42.0779 40.4757 43.8899C40.4757 44.0892 40.5491 44.1254 40.7325 44.1254C41.1543 44.1073 41.5761 44.1254 41.9979 44.1254C42.1263 44.1254 42.2547 44.1254 42.3831 44.1254C42.3647 42.1504 42.3647 40.2298 42.3647 38.2729ZM12.4893 30.5541C12.3243 30.5541 12.1776 30.5904 12.1592 30.7715C12.1225 31.1339 12.0492 31.4963 12.0675 31.8768C12.0859 32.511 12.4343 32.8915 13.0395 32.964C13.7181 33.0364 14.3967 33.0002 15.0202 32.6741C15.3503 32.4929 15.6438 32.2754 15.7721 31.9131C16.2123 30.7172 16.194 29.5757 15.332 28.5429C14.8552 27.9812 14.2683 27.5644 13.5897 27.2383C13.4613 27.6188 13.3513 27.9631 13.2229 28.3073C13.4613 28.4523 13.6814 28.5972 13.9015 28.7422C14.6167 29.2314 15.1853 29.8656 15.4787 30.6809C15.5888 31.0071 15.5521 31.1158 15.2586 31.2608C14.5067 31.6413 13.7181 31.6956 12.9112 31.5144C12.6361 31.442 12.5077 31.2608 12.4893 30.9527C12.4893 30.8259 12.4893 30.681 12.4893 30.5541ZM41.1176 25.9156C40.7875 25.6619 40.4391 25.4807 40.0539 25.4082C40.0172 25.3901 39.9255 25.4083 39.9072 25.4445C39.7055 25.7525 39.5037 26.0605 39.302 26.3323C39.6871 26.5135 40.0539 26.6947 40.4391 26.8759C40.6591 26.5679 40.8792 26.2599 41.1176 25.9156Z" fill="#040205"/>
<path d="M43.6305 29.1951C43.4288 29.5394 43.2454 29.8474 43.062 30.1554C43.0437 30.1917 42.9336 30.2279 42.8786 30.2098C42.6035 30.1735 42.3468 30.2098 42.1267 30.3547C41.5398 30.7534 40.9713 31.1701 40.3844 31.5687C39.1557 32.4203 37.8169 32.8733 36.2947 32.8733C31.5997 32.8552 26.9231 32.8733 22.2281 32.8552C21.953 32.8552 21.6963 32.7827 21.4028 32.7284C21.3661 33.0001 21.3295 33.29 21.2744 33.58C21.1461 34.2866 20.871 34.9208 20.3575 35.41C19.7889 35.9355 19.1104 36.2435 18.3401 35.9717C17.9366 35.8267 17.6065 35.5368 17.2397 35.2832C17.1847 35.2469 17.1663 35.1201 17.1113 35.0114C17.2397 35.0295 17.3314 35.0476 17.4231 35.0476C18.8719 35.1382 20.2658 34.341 20.8893 33.0364C20.9627 32.8733 20.9627 32.7102 20.8526 32.5653C20.5592 32.1848 20.2841 31.7862 19.9723 31.4056C19.899 31.3151 19.8806 31.2426 19.9356 31.1339C20.1007 30.8258 20.2658 30.4997 20.4308 30.1735C20.5409 30.3366 20.6326 30.4816 20.7426 30.6265C21.1644 31.1882 21.7329 31.4781 22.4298 31.4781C27.3632 31.4781 32.3149 31.4781 37.2483 31.4781C38.6421 31.4781 39.9076 31.0433 41.0997 30.3366C41.2831 30.2279 41.4665 30.1192 41.7049 29.9742C41.5215 29.9199 41.3931 29.8836 41.2647 29.8293C40.5678 29.6118 39.8526 29.3763 39.1557 29.1589C38.9906 29.1045 38.8072 29.0864 38.6421 29.0864C38.257 29.0683 38.0003 29.2495 37.8352 29.5756C37.7985 29.6481 37.7618 29.7387 37.7068 29.8112C37.395 29.6118 37.3767 29.5937 37.5234 29.2857C37.6518 29.0139 37.7618 28.7421 37.9269 28.5066C38.1286 28.1985 38.4221 28.0536 38.8072 28.0536C39.4124 28.0536 39.9626 28.2529 40.5128 28.4341C41.3931 28.724 42.2551 29.0501 43.172 29.1407C43.3188 29.1589 43.4471 29.177 43.6305 29.1951Z" fill="#C0D123"/>
<path d="M37.6514 40.3748C37.6514 40.0668 37.6514 39.7769 37.6514 39.487C37.6514 39.1246 37.6514 38.7622 37.6514 38.3998C37.6514 38.3455 37.7248 38.2186 37.7615 38.2186C38.3483 38.2005 38.9536 38.2186 39.5588 38.2186C39.5588 40.1755 39.5588 42.0961 39.5588 44.053C39.247 44.053 38.9536 44.053 38.6601 44.053C38.4034 44.053 38.1466 44.0349 37.8898 44.053C37.7065 44.0711 37.6514 43.9805 37.6698 43.8175C37.6881 43.7088 37.6698 43.6 37.6698 43.437C37.5047 43.5457 37.413 43.6182 37.303 43.6906C36.5694 44.1436 35.7441 44.198 34.9188 44.1617C34.4236 44.1436 33.9101 44.0711 33.4516 43.8537C32.6814 43.4732 32.2962 42.8571 32.2596 41.9693C32.2229 40.8459 32.9931 40.0124 34.0568 39.8312C34.9738 39.6863 35.8908 39.6682 36.7711 39.94C37.0646 40.0487 37.3213 40.2117 37.6514 40.3748ZM35.8175 40.8097C35.579 40.8459 35.3223 40.8459 35.1022 40.9003C34.607 41.009 34.2769 41.3714 34.2402 41.8244C34.1852 42.2955 34.4603 42.7122 34.9188 42.9115C35.3773 43.1108 35.8541 43.1108 36.3126 43.0383C36.6244 42.984 36.9545 42.8934 37.1929 42.7122C37.8715 42.2592 37.7981 41.4982 37.0829 41.0996C36.6794 40.8822 36.2576 40.8097 35.8175 40.8097Z" fill="#C0D123"/>
<path d="M13.5714 38.2729C13.5714 39.052 13.5714 39.7949 13.5714 40.5921C13.7364 40.4653 13.8648 40.3747 14.0115 40.2841C15.0936 39.6862 16.2306 39.5956 17.3677 40.0848C17.9362 40.3204 18.2297 40.8277 18.2297 41.4437C18.2297 42.2591 18.2297 43.0745 18.2297 43.8898C18.2297 44.0529 18.193 44.1073 18.0279 44.1073C17.5328 44.1073 17.0193 44.1073 16.5241 44.1073C16.359 44.1073 16.304 44.0529 16.3223 43.8898C16.3223 43.2919 16.3223 42.6759 16.3223 42.0779C16.3223 41.4075 15.9922 41.0451 15.3137 40.9545C15.0752 40.9364 14.8368 40.9364 14.6168 40.9726C13.9198 41.0995 13.5714 41.5343 13.5714 42.241C13.5714 42.7846 13.5714 43.3281 13.5714 43.8717C13.5714 44.0348 13.5164 44.0892 13.3513 44.0892C12.8561 44.071 12.361 44.0892 11.8658 44.0892C11.7191 44.0892 11.6641 44.0529 11.6641 43.8898C11.6641 42.0598 11.6641 40.2298 11.6641 38.4178C11.6641 38.3635 11.7374 38.2548 11.7741 38.2548C12.361 38.2548 12.9295 38.2729 13.5714 38.2729Z" fill="#C0D123"/>
<path d="M18.945 40.7007C18.945 40.3746 18.945 40.0666 18.945 39.7404C19.0183 39.7404 19.0917 39.7223 19.165 39.7223C20.2471 39.7223 21.3291 39.7042 22.4112 39.7404C22.943 39.7585 23.4932 39.8491 24.0067 39.9579C24.5752 40.0847 24.8503 40.5014 24.8503 41.0631C24.8503 41.6067 24.8503 42.1503 24.8503 42.6939C24.8503 42.9113 24.9237 43.0381 25.1621 43.0381C25.2171 43.0381 25.3088 43.1106 25.3088 43.1468C25.3272 43.4911 25.3088 43.8173 25.3088 44.1796C24.7403 44.1796 24.2084 44.1978 23.6583 44.1796C23.3648 44.1615 23.2181 43.9078 23.1264 43.6361C22.943 43.7448 22.778 43.8716 22.6129 43.9622C21.9527 44.3065 21.2558 44.3065 20.5405 44.2521C20.137 44.2159 19.7519 44.1253 19.4218 43.8716C18.945 43.4911 18.7799 42.8569 19.0183 42.2952C19.1283 42.0234 19.3668 41.8604 19.6235 41.7517C20.1554 41.5342 20.7422 41.5161 21.3108 41.4617C21.8059 41.4074 22.2828 41.3712 22.7779 41.3349C22.943 41.3168 23.0897 41.2806 23.1081 41.0812C23.1264 40.8819 22.9797 40.8276 22.8146 40.7913C22.5212 40.7551 22.2461 40.7007 21.9527 40.7007C20.9623 40.7007 19.972 40.7007 18.945 40.7007ZM21.4942 43.3643C21.7876 43.3099 22.0444 43.2918 22.2461 43.2012C22.6679 43.0381 23.053 42.8207 23.1264 42.3134C23.1631 42.114 23.0897 42.0959 22.9063 42.1322C22.6679 42.1684 22.4478 42.2046 22.2094 42.2409C21.8059 42.3134 21.3841 42.3496 20.9807 42.4583C20.6139 42.5489 20.5405 42.9113 20.8523 43.1287C21.0357 43.2737 21.3108 43.3099 21.4942 43.3643Z" fill="#C0D123"/>
<path d="M10.8937 39.9036C10.1418 40.5559 9.44489 41.1719 8.7113 41.8061C9.51825 42.5671 10.3069 43.31 11.1321 44.0891C11.0404 44.1072 11.0038 44.1253 10.9487 44.1253C10.3252 44.1253 9.71998 44.1253 9.09643 44.1253C8.98639 44.1253 8.85802 44.0529 8.76632 43.9804C8.21613 43.4549 7.66594 42.9295 7.11575 42.404C7.06073 42.3497 6.98737 42.2953 6.87733 42.1866C6.87733 42.857 6.87733 43.473 6.87733 44.1072C6.2171 44.1072 5.61189 44.1072 4.97 44.1072C4.97 44.0347 4.95166 43.9441 4.95166 43.8717C4.95166 42.096 4.95166 40.3022 4.95166 38.5265C4.95166 38.3272 5.00668 38.2728 5.20842 38.2728C5.74027 38.2909 6.29046 38.2728 6.85899 38.2728C6.85899 39.3781 6.85899 40.4653 6.85899 41.5343C6.87733 41.5524 6.89567 41.5524 6.91401 41.5705C7.13409 41.3893 7.33582 41.2081 7.5559 41.0088C7.92269 40.6827 8.28949 40.3384 8.65628 40.0304C8.72964 39.976 8.82134 39.9217 8.91304 39.9217C9.55493 39.8854 10.1968 39.9036 10.8937 39.9036Z" fill="#C0D123"/>
<path d="M5.09852 31.315C5.00683 31.6955 4.89679 32.0398 4.84177 32.4022C4.80509 32.6377 4.76841 32.8733 4.78675 33.0907C4.82343 33.9061 5.24524 34.3772 6.05219 34.504C7.00585 34.649 7.94118 34.504 8.72979 33.9423C9.00488 33.743 9.22496 33.4531 9.44503 33.1994C9.51839 33.1088 9.55507 32.9639 9.53673 32.837C9.50005 31.6593 9.46337 30.4815 9.40835 29.3038C9.37168 28.1804 9.31666 27.0389 9.29832 25.9155C9.29832 25.6437 9.40835 25.3719 9.50005 25.1182C9.61009 24.8283 9.75681 24.5566 9.90353 24.2848C9.95855 24.176 10.0869 24.0855 10.2153 23.9586C10.2153 24.5022 10.197 24.9733 10.2153 25.4444C10.252 27.2201 10.3253 28.9958 10.3437 30.7896C10.362 31.8586 10.1603 32.8914 9.75681 33.888C9.00488 35.6999 7.15257 36.1891 5.81377 35.8811C4.89679 35.6636 4.32826 34.957 4.27324 34.0148C4.21822 33.1994 4.38328 32.4203 4.65837 31.6412C4.73173 31.4056 4.87845 31.3513 5.09852 31.315Z" fill="#C0D123"/>
<path d="M27.8034 44.0893C27.1982 44.0893 26.6296 44.0893 26.0428 44.0893C26.0428 43.9987 26.0244 43.9262 26.0244 43.8356C26.0244 42.5672 26.0244 41.2989 26.0244 40.0305C26.0244 39.8131 26.0794 39.7588 26.2995 39.7588C26.7947 39.7769 27.2899 39.7588 27.8034 39.7588C27.8034 39.9943 27.8034 40.2117 27.8034 40.4654C27.8767 40.411 27.9317 40.3929 27.9501 40.3567C28.3169 39.9218 28.812 39.7044 29.3806 39.6682C30.1142 39.6319 30.8478 39.65 31.5997 39.65C31.5997 39.9581 31.5997 40.2842 31.5997 40.6285C31.5263 40.6285 31.4346 40.6285 31.3613 40.6285C30.6277 40.6285 29.8758 40.6285 29.1422 40.6285C28.3169 40.6285 27.8217 41.1177 27.8217 41.9512C27.8217 42.5672 27.8217 43.1652 27.8217 43.7812C27.8217 43.8899 27.8034 43.9805 27.8034 44.0893Z" fill="#C0D123"/>
<path d="M42.3646 38.2728C42.3646 40.2297 42.3646 42.1503 42.3646 44.1253C42.2362 44.1253 42.1078 44.1253 41.9795 44.1253C41.5577 44.1253 41.1358 44.1253 40.714 44.1253C40.5306 44.1253 40.4573 44.0891 40.4573 43.8898C40.4573 42.0779 40.4573 40.2841 40.4573 38.4721C40.4573 38.3815 40.4389 38.2728 40.5857 38.2728C41.1909 38.2728 41.7594 38.2728 42.3646 38.2728Z" fill="#C0D123"/>
<path d="M12.4892 30.554C12.4892 30.699 12.4892 30.8258 12.4892 30.9708C12.5075 31.2607 12.6175 31.46 12.911 31.5325C13.7179 31.7318 14.5249 31.6774 15.2585 31.2788C15.5702 31.1157 15.5886 31.007 15.4785 30.699C15.1851 29.8655 14.6166 29.2495 13.9013 28.7602C13.6812 28.6153 13.4612 28.4703 13.2227 28.3254C13.3511 27.9811 13.4612 27.6187 13.5895 27.2563C14.2681 27.5825 14.855 27.9992 15.3318 28.5609C16.1938 29.5937 16.2121 30.7352 15.772 31.9311C15.6436 32.2754 15.3502 32.5109 15.02 32.6921C14.3965 33.0183 13.7179 33.0726 13.0394 32.982C12.4341 32.9095 12.0857 32.529 12.0673 31.8949C12.049 31.5325 12.1224 31.1701 12.159 30.7896C12.1774 30.5722 12.3241 30.554 12.4892 30.554Z" fill="#C0D123"/>
<path d="M41.1176 25.9157C40.8792 26.2599 40.6591 26.568 40.4574 26.876C40.0722 26.6948 39.7054 26.5136 39.3203 26.3324C39.5037 26.0425 39.7054 25.7345 39.9255 25.4446C39.9439 25.4083 40.0172 25.4083 40.0722 25.4083C40.439 25.4989 40.7875 25.662 41.1176 25.9157Z" fill="#C0D123"/>
<path d="M35.8175 40.8097C36.2576 40.8097 36.6794 40.8822 37.0829 41.0996C37.7982 41.4982 37.8715 42.2592 37.193 42.7122C36.9362 42.8753 36.6061 42.984 36.3126 43.0384C35.8542 43.1108 35.3773 43.1108 34.9188 42.9115C34.442 42.7122 34.1852 42.2955 34.2403 41.8244C34.2769 41.3714 34.607 40.9909 35.1022 40.9003C35.3223 40.8459 35.5607 40.8278 35.8175 40.8097Z" fill="#040205"/>
<path d="M21.494 43.3644C21.3106 43.3101 21.0355 43.2738 20.8521 43.147C20.5403 42.9296 20.6137 42.5672 20.9805 42.4766C21.384 42.386 21.8058 42.3316 22.2092 42.2592C22.4477 42.2229 22.6677 42.1867 22.9062 42.1504C23.0712 42.1142 23.1446 42.1504 23.1262 42.3316C23.0529 42.839 22.6677 43.0564 22.2459 43.2195C22.0259 43.292 21.7874 43.3101 21.494 43.3644Z" fill="#040205"/>
</svg>
